M48
; DRILL file {KiCad (5.1.5)-3} date 10/07/2021 17:40:42
; FORMAT={-:-/ absolute / metric / decimal}
; #@! TF.CreationDate,2021-07-10T17:40:42+02:00
; #@! TF.GenerationSoftware,Kicad,Pcbnew,(5.1.5)-3
; #@! TF.FileFunction,Plated,1,2,PTH
FMAT,2
METRIC
T1C0.400
T2C0.600
T3C0.800
T4C1.100
T5C1.300
T6C1.400
%
G90
G05
T1
X117.282Y-65.644
X118.262Y-66.7
X120.066Y-55.408
X120.67Y-63.022
X121.432Y-69.174
X126.406Y-67.097
X128.534Y-65.649
X128.626Y-69.215
X131.143Y-63.386
X133.518Y-48.626
X135.082Y-70.521
X136.622Y-62.483
X137.747Y-53.378
X139.763Y-48.626
X140.376Y-53.376
X140.995Y-75.296
X141.331Y-44.567
X141.371Y-69.703
X143.069Y-44.583
X144.069Y-76.312
X145.283Y-48.565
X147.229Y-76.281
X150.358Y-70.907
X151.15Y-46.843
X155.443Y-75.804
X158.281Y-50.165
X158.46Y-40.406
X158.491Y-46.639
X159.4Y-77.627
X162.363Y-41.95
X162.474Y-46.116
X167.505Y-42.268
X167.505Y-46.007
X169.743Y-76.81
T3
X146.05Y-114.996
X153.55Y-116.396
T4
X151.0Y-103.632
X156.0Y-83.632
X166.0Y-83.632
X171.0Y-103.632
X117.6Y-103.632
X122.6Y-83.632
X132.6Y-83.632
X137.6Y-103.632
T5
X115.732Y-117.739
X138.232Y-117.739
T6
X163.053Y-119.426
X170.553Y-119.426
T2
G00X138.499Y-42.25
M15
G01X138.499Y-41.65
M16
G05
G00X138.499Y-46.68
M15
G01X138.499Y-45.58
M16
G05
G00X147.139Y-42.25
M15
G01X147.139Y-41.65
M16
G05
G00X147.139Y-46.68
M15
G01X147.139Y-45.58
M16
G05
T0
M30
