G04 #@! TF.GenerationSoftware,KiCad,Pcbnew,(5.1.5)-3*
G04 #@! TF.CreationDate,2021-07-10T17:40:16+02:00*
G04 #@! TF.ProjectId,EnergyMonitor,456e6572-6779-44d6-9f6e-69746f722e6b,rev?*
G04 #@! TF.SameCoordinates,Original*
G04 #@! TF.FileFunction,Copper,L1,Top*
G04 #@! TF.FilePolarity,Positive*
%FSLAX46Y46*%
G04 Gerber Fmt 4.6, Leading zero omitted, Abs format (unit mm)*
G04 Created by KiCad (PCBNEW (5.1.5)-3) date 2021-07-10 17:40:16*
%MOMM*%
%LPD*%
G04 APERTURE LIST*
%ADD10C,0.100000*%
%ADD11C,2.500000*%
%ADD12R,2.500000X2.500000*%
%ADD13R,0.900000X2.000000*%
%ADD14R,2.000000X0.900000*%
%ADD15R,5.000000X5.000000*%
%ADD16R,1.000000X0.900000*%
%ADD17O,2.000000X3.600000*%
%ADD18R,2.510000X1.000000*%
%ADD19R,0.600000X1.450000*%
%ADD20R,0.300000X1.450000*%
%ADD21O,1.000000X2.100000*%
%ADD22O,1.000000X1.600000*%
%ADD23R,0.450000X1.750000*%
%ADD24C,1.800000*%
%ADD25R,0.800000X0.900000*%
%ADD26C,3.000000*%
%ADD27R,2.000000X1.500000*%
%ADD28R,0.250000X1.100000*%
%ADD29C,0.800000*%
%ADD30C,0.250000*%
%ADD31C,0.500000*%
%ADD32C,1.000000*%
%ADD33C,3.000000*%
%ADD34C,0.254000*%
G04 APERTURE END LIST*
G04 #@! TA.AperFunction,SMDPad,CuDef*
D10*
G36*
X166611382Y-73455374D02*
G01*
X166635043Y-73458884D01*
X166658247Y-73464696D01*
X166680769Y-73472754D01*
X166702393Y-73482982D01*
X166722910Y-73495279D01*
X166742123Y-73509529D01*
X166759847Y-73525593D01*
X166775911Y-73543317D01*
X166790161Y-73562530D01*
X166802458Y-73583047D01*
X166812686Y-73604671D01*
X166820744Y-73627193D01*
X166826556Y-73650397D01*
X166830066Y-73674058D01*
X166831240Y-73697950D01*
X166831240Y-74185450D01*
X166830066Y-74209342D01*
X166826556Y-74233003D01*
X166820744Y-74256207D01*
X166812686Y-74278729D01*
X166802458Y-74300353D01*
X166790161Y-74320870D01*
X166775911Y-74340083D01*
X166759847Y-74357807D01*
X166742123Y-74373871D01*
X166722910Y-74388121D01*
X166702393Y-74400418D01*
X166680769Y-74410646D01*
X166658247Y-74418704D01*
X166635043Y-74424516D01*
X166611382Y-74428026D01*
X166587490Y-74429200D01*
X165674990Y-74429200D01*
X165651098Y-74428026D01*
X165627437Y-74424516D01*
X165604233Y-74418704D01*
X165581711Y-74410646D01*
X165560087Y-74400418D01*
X165539570Y-74388121D01*
X165520357Y-74373871D01*
X165502633Y-74357807D01*
X165486569Y-74340083D01*
X165472319Y-74320870D01*
X165460022Y-74300353D01*
X165449794Y-74278729D01*
X165441736Y-74256207D01*
X165435924Y-74233003D01*
X165432414Y-74209342D01*
X165431240Y-74185450D01*
X165431240Y-73697950D01*
X165432414Y-73674058D01*
X165435924Y-73650397D01*
X165441736Y-73627193D01*
X165449794Y-73604671D01*
X165460022Y-73583047D01*
X165472319Y-73562530D01*
X165486569Y-73543317D01*
X165502633Y-73525593D01*
X165520357Y-73509529D01*
X165539570Y-73495279D01*
X165560087Y-73482982D01*
X165581711Y-73472754D01*
X165604233Y-73464696D01*
X165627437Y-73458884D01*
X165651098Y-73455374D01*
X165674990Y-73454200D01*
X166587490Y-73454200D01*
X166611382Y-73455374D01*
G37*
G04 #@! TD.AperFunction*
G04 #@! TA.AperFunction,SMDPad,CuDef*
G36*
X166611382Y-75330374D02*
G01*
X166635043Y-75333884D01*
X166658247Y-75339696D01*
X166680769Y-75347754D01*
X166702393Y-75357982D01*
X166722910Y-75370279D01*
X166742123Y-75384529D01*
X166759847Y-75400593D01*
X166775911Y-75418317D01*
X166790161Y-75437530D01*
X166802458Y-75458047D01*
X166812686Y-75479671D01*
X166820744Y-75502193D01*
X166826556Y-75525397D01*
X166830066Y-75549058D01*
X166831240Y-75572950D01*
X166831240Y-76060450D01*
X166830066Y-76084342D01*
X166826556Y-76108003D01*
X166820744Y-76131207D01*
X166812686Y-76153729D01*
X166802458Y-76175353D01*
X166790161Y-76195870D01*
X166775911Y-76215083D01*
X166759847Y-76232807D01*
X166742123Y-76248871D01*
X166722910Y-76263121D01*
X166702393Y-76275418D01*
X166680769Y-76285646D01*
X166658247Y-76293704D01*
X166635043Y-76299516D01*
X166611382Y-76303026D01*
X166587490Y-76304200D01*
X165674990Y-76304200D01*
X165651098Y-76303026D01*
X165627437Y-76299516D01*
X165604233Y-76293704D01*
X165581711Y-76285646D01*
X165560087Y-76275418D01*
X165539570Y-76263121D01*
X165520357Y-76248871D01*
X165502633Y-76232807D01*
X165486569Y-76215083D01*
X165472319Y-76195870D01*
X165460022Y-76175353D01*
X165449794Y-76153729D01*
X165441736Y-76131207D01*
X165435924Y-76108003D01*
X165432414Y-76084342D01*
X165431240Y-76060450D01*
X165431240Y-75572950D01*
X165432414Y-75549058D01*
X165435924Y-75525397D01*
X165441736Y-75502193D01*
X165449794Y-75479671D01*
X165460022Y-75458047D01*
X165472319Y-75437530D01*
X165486569Y-75418317D01*
X165502633Y-75400593D01*
X165520357Y-75384529D01*
X165539570Y-75370279D01*
X165560087Y-75357982D01*
X165581711Y-75347754D01*
X165604233Y-75339696D01*
X165627437Y-75333884D01*
X165651098Y-75330374D01*
X165674990Y-75329200D01*
X166587490Y-75329200D01*
X166611382Y-75330374D01*
G37*
G04 #@! TD.AperFunction*
G04 #@! TA.AperFunction,SMDPad,CuDef*
G36*
X162902982Y-73455374D02*
G01*
X162926643Y-73458884D01*
X162949847Y-73464696D01*
X162972369Y-73472754D01*
X162993993Y-73482982D01*
X163014510Y-73495279D01*
X163033723Y-73509529D01*
X163051447Y-73525593D01*
X163067511Y-73543317D01*
X163081761Y-73562530D01*
X163094058Y-73583047D01*
X163104286Y-73604671D01*
X163112344Y-73627193D01*
X163118156Y-73650397D01*
X163121666Y-73674058D01*
X163122840Y-73697950D01*
X163122840Y-74185450D01*
X163121666Y-74209342D01*
X163118156Y-74233003D01*
X163112344Y-74256207D01*
X163104286Y-74278729D01*
X163094058Y-74300353D01*
X163081761Y-74320870D01*
X163067511Y-74340083D01*
X163051447Y-74357807D01*
X163033723Y-74373871D01*
X163014510Y-74388121D01*
X162993993Y-74400418D01*
X162972369Y-74410646D01*
X162949847Y-74418704D01*
X162926643Y-74424516D01*
X162902982Y-74428026D01*
X162879090Y-74429200D01*
X161966590Y-74429200D01*
X161942698Y-74428026D01*
X161919037Y-74424516D01*
X161895833Y-74418704D01*
X161873311Y-74410646D01*
X161851687Y-74400418D01*
X161831170Y-74388121D01*
X161811957Y-74373871D01*
X161794233Y-74357807D01*
X161778169Y-74340083D01*
X161763919Y-74320870D01*
X161751622Y-74300353D01*
X161741394Y-74278729D01*
X161733336Y-74256207D01*
X161727524Y-74233003D01*
X161724014Y-74209342D01*
X161722840Y-74185450D01*
X161722840Y-73697950D01*
X161724014Y-73674058D01*
X161727524Y-73650397D01*
X161733336Y-73627193D01*
X161741394Y-73604671D01*
X161751622Y-73583047D01*
X161763919Y-73562530D01*
X161778169Y-73543317D01*
X161794233Y-73525593D01*
X161811957Y-73509529D01*
X161831170Y-73495279D01*
X161851687Y-73482982D01*
X161873311Y-73472754D01*
X161895833Y-73464696D01*
X161919037Y-73458884D01*
X161942698Y-73455374D01*
X161966590Y-73454200D01*
X162879090Y-73454200D01*
X162902982Y-73455374D01*
G37*
G04 #@! TD.AperFunction*
G04 #@! TA.AperFunction,SMDPad,CuDef*
G36*
X162902982Y-75330374D02*
G01*
X162926643Y-75333884D01*
X162949847Y-75339696D01*
X162972369Y-75347754D01*
X162993993Y-75357982D01*
X163014510Y-75370279D01*
X163033723Y-75384529D01*
X163051447Y-75400593D01*
X163067511Y-75418317D01*
X163081761Y-75437530D01*
X163094058Y-75458047D01*
X163104286Y-75479671D01*
X163112344Y-75502193D01*
X163118156Y-75525397D01*
X163121666Y-75549058D01*
X163122840Y-75572950D01*
X163122840Y-76060450D01*
X163121666Y-76084342D01*
X163118156Y-76108003D01*
X163112344Y-76131207D01*
X163104286Y-76153729D01*
X163094058Y-76175353D01*
X163081761Y-76195870D01*
X163067511Y-76215083D01*
X163051447Y-76232807D01*
X163033723Y-76248871D01*
X163014510Y-76263121D01*
X162993993Y-76275418D01*
X162972369Y-76285646D01*
X162949847Y-76293704D01*
X162926643Y-76299516D01*
X162902982Y-76303026D01*
X162879090Y-76304200D01*
X161966590Y-76304200D01*
X161942698Y-76303026D01*
X161919037Y-76299516D01*
X161895833Y-76293704D01*
X161873311Y-76285646D01*
X161851687Y-76275418D01*
X161831170Y-76263121D01*
X161811957Y-76248871D01*
X161794233Y-76232807D01*
X161778169Y-76215083D01*
X161763919Y-76195870D01*
X161751622Y-76175353D01*
X161741394Y-76153729D01*
X161733336Y-76131207D01*
X161727524Y-76108003D01*
X161724014Y-76084342D01*
X161722840Y-76060450D01*
X161722840Y-75572950D01*
X161724014Y-75549058D01*
X161727524Y-75525397D01*
X161733336Y-75502193D01*
X161741394Y-75479671D01*
X161751622Y-75458047D01*
X161763919Y-75437530D01*
X161778169Y-75418317D01*
X161794233Y-75400593D01*
X161811957Y-75384529D01*
X161831170Y-75370279D01*
X161851687Y-75357982D01*
X161873311Y-75347754D01*
X161895833Y-75339696D01*
X161919037Y-75333884D01*
X161942698Y-75330374D01*
X161966590Y-75329200D01*
X162879090Y-75329200D01*
X162902982Y-75330374D01*
G37*
G04 #@! TD.AperFunction*
D11*
X132600000Y-83632000D03*
X122600000Y-83632000D03*
D12*
X137600000Y-103632000D03*
D11*
X117600000Y-103632000D03*
D13*
X169961560Y-70222000D03*
X168691560Y-70222000D03*
X167421560Y-70222000D03*
X166151560Y-70222000D03*
X164881560Y-70222000D03*
X163611560Y-70222000D03*
X162341560Y-70222000D03*
X161071560Y-70222000D03*
X159801560Y-70222000D03*
X158531560Y-70222000D03*
X157261560Y-70222000D03*
X155991560Y-70222000D03*
X154721560Y-70222000D03*
X153451560Y-70222000D03*
D14*
X152451560Y-67437000D03*
X152451560Y-66167000D03*
X152451560Y-64897000D03*
X152451560Y-63627000D03*
X152451560Y-62357000D03*
X152451560Y-61087000D03*
X152451560Y-59817000D03*
X152451560Y-58547000D03*
X152451560Y-57277000D03*
X152451560Y-56007000D03*
D13*
X153451560Y-53222000D03*
X154721560Y-53222000D03*
X155991560Y-53222000D03*
X157261560Y-53222000D03*
X158531560Y-53222000D03*
X159801560Y-53222000D03*
X161071560Y-53222000D03*
X162341560Y-53222000D03*
X163611560Y-53222000D03*
X164881560Y-53222000D03*
X166151560Y-53222000D03*
X167421560Y-53222000D03*
X168691560Y-53222000D03*
X169961560Y-53222000D03*
D15*
X162461560Y-60722000D03*
D16*
X165630760Y-41950000D03*
X164030760Y-41950000D03*
X165630760Y-46050000D03*
X164030760Y-46050000D03*
D17*
X170552760Y-119425720D03*
G04 #@! TA.AperFunction,ComponentPad*
D10*
G36*
X163827264Y-117626924D02*
G01*
X163851533Y-117630524D01*
X163875331Y-117636485D01*
X163898431Y-117644750D01*
X163920609Y-117655240D01*
X163941653Y-117667853D01*
X163961358Y-117682467D01*
X163979537Y-117698943D01*
X163996013Y-117717122D01*
X164010627Y-117736827D01*
X164023240Y-117757871D01*
X164033730Y-117780049D01*
X164041995Y-117803149D01*
X164047956Y-117826947D01*
X164051556Y-117851216D01*
X164052760Y-117875720D01*
X164052760Y-120975720D01*
X164051556Y-121000224D01*
X164047956Y-121024493D01*
X164041995Y-121048291D01*
X164033730Y-121071391D01*
X164023240Y-121093569D01*
X164010627Y-121114613D01*
X163996013Y-121134318D01*
X163979537Y-121152497D01*
X163961358Y-121168973D01*
X163941653Y-121183587D01*
X163920609Y-121196200D01*
X163898431Y-121206690D01*
X163875331Y-121214955D01*
X163851533Y-121220916D01*
X163827264Y-121224516D01*
X163802760Y-121225720D01*
X162302760Y-121225720D01*
X162278256Y-121224516D01*
X162253987Y-121220916D01*
X162230189Y-121214955D01*
X162207089Y-121206690D01*
X162184911Y-121196200D01*
X162163867Y-121183587D01*
X162144162Y-121168973D01*
X162125983Y-121152497D01*
X162109507Y-121134318D01*
X162094893Y-121114613D01*
X162082280Y-121093569D01*
X162071790Y-121071391D01*
X162063525Y-121048291D01*
X162057564Y-121024493D01*
X162053964Y-121000224D01*
X162052760Y-120975720D01*
X162052760Y-117875720D01*
X162053964Y-117851216D01*
X162057564Y-117826947D01*
X162063525Y-117803149D01*
X162071790Y-117780049D01*
X162082280Y-117757871D01*
X162094893Y-117736827D01*
X162109507Y-117717122D01*
X162125983Y-117698943D01*
X162144162Y-117682467D01*
X162163867Y-117667853D01*
X162184911Y-117655240D01*
X162207089Y-117644750D01*
X162230189Y-117636485D01*
X162253987Y-117630524D01*
X162278256Y-117626924D01*
X162302760Y-117625720D01*
X163802760Y-117625720D01*
X163827264Y-117626924D01*
G37*
G04 #@! TD.AperFunction*
D16*
X156466440Y-41950000D03*
X154866440Y-41950000D03*
X156466440Y-46050000D03*
X154866440Y-46050000D03*
D11*
X166000000Y-83632000D03*
X156000000Y-83632000D03*
D12*
X171000000Y-103632000D03*
D11*
X151000000Y-103632000D03*
D18*
X118246080Y-68102480D03*
X118246080Y-63022480D03*
X114936080Y-65562480D03*
X114936080Y-60482480D03*
D19*
X139569120Y-47045000D03*
X140369120Y-47045000D03*
X145269120Y-47045000D03*
X146069120Y-47045000D03*
X146069120Y-47045000D03*
X145269120Y-47045000D03*
X140369120Y-47045000D03*
X139569120Y-47045000D03*
D20*
X144569120Y-47045000D03*
X144069120Y-47045000D03*
X143569120Y-47045000D03*
X142569120Y-47045000D03*
X142069120Y-47045000D03*
X141569120Y-47045000D03*
X141069120Y-47045000D03*
X143069120Y-47045000D03*
D21*
X138499120Y-46130000D03*
X147139120Y-46130000D03*
D22*
X147139120Y-41950000D03*
X138499120Y-41950000D03*
D23*
X134672360Y-57278720D03*
X135322360Y-57278720D03*
X135972360Y-57278720D03*
X136622360Y-57278720D03*
X137272360Y-57278720D03*
X137922360Y-57278720D03*
X138572360Y-57278720D03*
X139222360Y-57278720D03*
X139872360Y-57278720D03*
X140522360Y-57278720D03*
X141172360Y-57278720D03*
X141822360Y-57278720D03*
X142472360Y-57278720D03*
X143122360Y-57278720D03*
X143122360Y-64478720D03*
X142472360Y-64478720D03*
X141822360Y-64478720D03*
X141172360Y-64478720D03*
X140522360Y-64478720D03*
X139872360Y-64478720D03*
X139222360Y-64478720D03*
X138572360Y-64478720D03*
X137922360Y-64478720D03*
X137272360Y-64478720D03*
X136622360Y-64478720D03*
X135972360Y-64478720D03*
X135322360Y-64478720D03*
X134672360Y-64478720D03*
D24*
X153550000Y-116395960D03*
X146050000Y-114995960D03*
G04 #@! TA.AperFunction,SMDPad,CuDef*
D10*
G36*
X147683302Y-74451534D02*
G01*
X147706963Y-74455044D01*
X147730167Y-74460856D01*
X147752689Y-74468914D01*
X147774313Y-74479142D01*
X147794830Y-74491439D01*
X147814043Y-74505689D01*
X147831767Y-74521753D01*
X147847831Y-74539477D01*
X147862081Y-74558690D01*
X147874378Y-74579207D01*
X147884606Y-74600831D01*
X147892664Y-74623353D01*
X147898476Y-74646557D01*
X147901986Y-74670218D01*
X147903160Y-74694110D01*
X147903160Y-75181610D01*
X147901986Y-75205502D01*
X147898476Y-75229163D01*
X147892664Y-75252367D01*
X147884606Y-75274889D01*
X147874378Y-75296513D01*
X147862081Y-75317030D01*
X147847831Y-75336243D01*
X147831767Y-75353967D01*
X147814043Y-75370031D01*
X147794830Y-75384281D01*
X147774313Y-75396578D01*
X147752689Y-75406806D01*
X147730167Y-75414864D01*
X147706963Y-75420676D01*
X147683302Y-75424186D01*
X147659410Y-75425360D01*
X146746910Y-75425360D01*
X146723018Y-75424186D01*
X146699357Y-75420676D01*
X146676153Y-75414864D01*
X146653631Y-75406806D01*
X146632007Y-75396578D01*
X146611490Y-75384281D01*
X146592277Y-75370031D01*
X146574553Y-75353967D01*
X146558489Y-75336243D01*
X146544239Y-75317030D01*
X146531942Y-75296513D01*
X146521714Y-75274889D01*
X146513656Y-75252367D01*
X146507844Y-75229163D01*
X146504334Y-75205502D01*
X146503160Y-75181610D01*
X146503160Y-74694110D01*
X146504334Y-74670218D01*
X146507844Y-74646557D01*
X146513656Y-74623353D01*
X146521714Y-74600831D01*
X146531942Y-74579207D01*
X146544239Y-74558690D01*
X146558489Y-74539477D01*
X146574553Y-74521753D01*
X146592277Y-74505689D01*
X146611490Y-74491439D01*
X146632007Y-74479142D01*
X146653631Y-74468914D01*
X146676153Y-74460856D01*
X146699357Y-74455044D01*
X146723018Y-74451534D01*
X146746910Y-74450360D01*
X147659410Y-74450360D01*
X147683302Y-74451534D01*
G37*
G04 #@! TD.AperFunction*
G04 #@! TA.AperFunction,SMDPad,CuDef*
G36*
X147683302Y-72576534D02*
G01*
X147706963Y-72580044D01*
X147730167Y-72585856D01*
X147752689Y-72593914D01*
X147774313Y-72604142D01*
X147794830Y-72616439D01*
X147814043Y-72630689D01*
X147831767Y-72646753D01*
X147847831Y-72664477D01*
X147862081Y-72683690D01*
X147874378Y-72704207D01*
X147884606Y-72725831D01*
X147892664Y-72748353D01*
X147898476Y-72771557D01*
X147901986Y-72795218D01*
X147903160Y-72819110D01*
X147903160Y-73306610D01*
X147901986Y-73330502D01*
X147898476Y-73354163D01*
X147892664Y-73377367D01*
X147884606Y-73399889D01*
X147874378Y-73421513D01*
X147862081Y-73442030D01*
X147847831Y-73461243D01*
X147831767Y-73478967D01*
X147814043Y-73495031D01*
X147794830Y-73509281D01*
X147774313Y-73521578D01*
X147752689Y-73531806D01*
X147730167Y-73539864D01*
X147706963Y-73545676D01*
X147683302Y-73549186D01*
X147659410Y-73550360D01*
X146746910Y-73550360D01*
X146723018Y-73549186D01*
X146699357Y-73545676D01*
X146676153Y-73539864D01*
X146653631Y-73531806D01*
X146632007Y-73521578D01*
X146611490Y-73509281D01*
X146592277Y-73495031D01*
X146574553Y-73478967D01*
X146558489Y-73461243D01*
X146544239Y-73442030D01*
X146531942Y-73421513D01*
X146521714Y-73399889D01*
X146513656Y-73377367D01*
X146507844Y-73354163D01*
X146504334Y-73330502D01*
X146503160Y-73306610D01*
X146503160Y-72819110D01*
X146504334Y-72795218D01*
X146507844Y-72771557D01*
X146513656Y-72748353D01*
X146521714Y-72725831D01*
X146531942Y-72704207D01*
X146544239Y-72683690D01*
X146558489Y-72664477D01*
X146574553Y-72646753D01*
X146592277Y-72630689D01*
X146611490Y-72616439D01*
X146632007Y-72604142D01*
X146653631Y-72593914D01*
X146676153Y-72585856D01*
X146699357Y-72580044D01*
X146723018Y-72576534D01*
X146746910Y-72575360D01*
X147659410Y-72575360D01*
X147683302Y-72576534D01*
G37*
G04 #@! TD.AperFunction*
G04 #@! TA.AperFunction,SMDPad,CuDef*
G36*
X144548942Y-74451534D02*
G01*
X144572603Y-74455044D01*
X144595807Y-74460856D01*
X144618329Y-74468914D01*
X144639953Y-74479142D01*
X144660470Y-74491439D01*
X144679683Y-74505689D01*
X144697407Y-74521753D01*
X144713471Y-74539477D01*
X144727721Y-74558690D01*
X144740018Y-74579207D01*
X144750246Y-74600831D01*
X144758304Y-74623353D01*
X144764116Y-74646557D01*
X144767626Y-74670218D01*
X144768800Y-74694110D01*
X144768800Y-75181610D01*
X144767626Y-75205502D01*
X144764116Y-75229163D01*
X144758304Y-75252367D01*
X144750246Y-75274889D01*
X144740018Y-75296513D01*
X144727721Y-75317030D01*
X144713471Y-75336243D01*
X144697407Y-75353967D01*
X144679683Y-75370031D01*
X144660470Y-75384281D01*
X144639953Y-75396578D01*
X144618329Y-75406806D01*
X144595807Y-75414864D01*
X144572603Y-75420676D01*
X144548942Y-75424186D01*
X144525050Y-75425360D01*
X143612550Y-75425360D01*
X143588658Y-75424186D01*
X143564997Y-75420676D01*
X143541793Y-75414864D01*
X143519271Y-75406806D01*
X143497647Y-75396578D01*
X143477130Y-75384281D01*
X143457917Y-75370031D01*
X143440193Y-75353967D01*
X143424129Y-75336243D01*
X143409879Y-75317030D01*
X143397582Y-75296513D01*
X143387354Y-75274889D01*
X143379296Y-75252367D01*
X143373484Y-75229163D01*
X143369974Y-75205502D01*
X143368800Y-75181610D01*
X143368800Y-74694110D01*
X143369974Y-74670218D01*
X143373484Y-74646557D01*
X143379296Y-74623353D01*
X143387354Y-74600831D01*
X143397582Y-74579207D01*
X143409879Y-74558690D01*
X143424129Y-74539477D01*
X143440193Y-74521753D01*
X143457917Y-74505689D01*
X143477130Y-74491439D01*
X143497647Y-74479142D01*
X143519271Y-74468914D01*
X143541793Y-74460856D01*
X143564997Y-74455044D01*
X143588658Y-74451534D01*
X143612550Y-74450360D01*
X144525050Y-74450360D01*
X144548942Y-74451534D01*
G37*
G04 #@! TD.AperFunction*
G04 #@! TA.AperFunction,SMDPad,CuDef*
G36*
X144548942Y-72576534D02*
G01*
X144572603Y-72580044D01*
X144595807Y-72585856D01*
X144618329Y-72593914D01*
X144639953Y-72604142D01*
X144660470Y-72616439D01*
X144679683Y-72630689D01*
X144697407Y-72646753D01*
X144713471Y-72664477D01*
X144727721Y-72683690D01*
X144740018Y-72704207D01*
X144750246Y-72725831D01*
X144758304Y-72748353D01*
X144764116Y-72771557D01*
X144767626Y-72795218D01*
X144768800Y-72819110D01*
X144768800Y-73306610D01*
X144767626Y-73330502D01*
X144764116Y-73354163D01*
X144758304Y-73377367D01*
X144750246Y-73399889D01*
X144740018Y-73421513D01*
X144727721Y-73442030D01*
X144713471Y-73461243D01*
X144697407Y-73478967D01*
X144679683Y-73495031D01*
X144660470Y-73509281D01*
X144639953Y-73521578D01*
X144618329Y-73531806D01*
X144595807Y-73539864D01*
X144572603Y-73545676D01*
X144548942Y-73549186D01*
X144525050Y-73550360D01*
X143612550Y-73550360D01*
X143588658Y-73549186D01*
X143564997Y-73545676D01*
X143541793Y-73539864D01*
X143519271Y-73531806D01*
X143497647Y-73521578D01*
X143477130Y-73509281D01*
X143457917Y-73495031D01*
X143440193Y-73478967D01*
X143424129Y-73461243D01*
X143409879Y-73442030D01*
X143397582Y-73421513D01*
X143387354Y-73399889D01*
X143379296Y-73377367D01*
X143373484Y-73354163D01*
X143369974Y-73330502D01*
X143368800Y-73306610D01*
X143368800Y-72819110D01*
X143369974Y-72795218D01*
X143373484Y-72771557D01*
X143379296Y-72748353D01*
X143387354Y-72725831D01*
X143397582Y-72704207D01*
X143409879Y-72683690D01*
X143424129Y-72664477D01*
X143440193Y-72646753D01*
X143457917Y-72630689D01*
X143477130Y-72616439D01*
X143497647Y-72604142D01*
X143519271Y-72593914D01*
X143541793Y-72585856D01*
X143564997Y-72580044D01*
X143588658Y-72576534D01*
X143612550Y-72575360D01*
X144525050Y-72575360D01*
X144548942Y-72576534D01*
G37*
G04 #@! TD.AperFunction*
G04 #@! TA.AperFunction,SMDPad,CuDef*
G36*
X151615222Y-42576174D02*
G01*
X151638883Y-42579684D01*
X151662087Y-42585496D01*
X151684609Y-42593554D01*
X151706233Y-42603782D01*
X151726750Y-42616079D01*
X151745963Y-42630329D01*
X151763687Y-42646393D01*
X151779751Y-42664117D01*
X151794001Y-42683330D01*
X151806298Y-42703847D01*
X151816526Y-42725471D01*
X151824584Y-42747993D01*
X151830396Y-42771197D01*
X151833906Y-42794858D01*
X151835080Y-42818750D01*
X151835080Y-43306250D01*
X151833906Y-43330142D01*
X151830396Y-43353803D01*
X151824584Y-43377007D01*
X151816526Y-43399529D01*
X151806298Y-43421153D01*
X151794001Y-43441670D01*
X151779751Y-43460883D01*
X151763687Y-43478607D01*
X151745963Y-43494671D01*
X151726750Y-43508921D01*
X151706233Y-43521218D01*
X151684609Y-43531446D01*
X151662087Y-43539504D01*
X151638883Y-43545316D01*
X151615222Y-43548826D01*
X151591330Y-43550000D01*
X150678830Y-43550000D01*
X150654938Y-43548826D01*
X150631277Y-43545316D01*
X150608073Y-43539504D01*
X150585551Y-43531446D01*
X150563927Y-43521218D01*
X150543410Y-43508921D01*
X150524197Y-43494671D01*
X150506473Y-43478607D01*
X150490409Y-43460883D01*
X150476159Y-43441670D01*
X150463862Y-43421153D01*
X150453634Y-43399529D01*
X150445576Y-43377007D01*
X150439764Y-43353803D01*
X150436254Y-43330142D01*
X150435080Y-43306250D01*
X150435080Y-42818750D01*
X150436254Y-42794858D01*
X150439764Y-42771197D01*
X150445576Y-42747993D01*
X150453634Y-42725471D01*
X150463862Y-42703847D01*
X150476159Y-42683330D01*
X150490409Y-42664117D01*
X150506473Y-42646393D01*
X150524197Y-42630329D01*
X150543410Y-42616079D01*
X150563927Y-42603782D01*
X150585551Y-42593554D01*
X150608073Y-42585496D01*
X150631277Y-42579684D01*
X150654938Y-42576174D01*
X150678830Y-42575000D01*
X151591330Y-42575000D01*
X151615222Y-42576174D01*
G37*
G04 #@! TD.AperFunction*
G04 #@! TA.AperFunction,SMDPad,CuDef*
G36*
X151615222Y-44451174D02*
G01*
X151638883Y-44454684D01*
X151662087Y-44460496D01*
X151684609Y-44468554D01*
X151706233Y-44478782D01*
X151726750Y-44491079D01*
X151745963Y-44505329D01*
X151763687Y-44521393D01*
X151779751Y-44539117D01*
X151794001Y-44558330D01*
X151806298Y-44578847D01*
X151816526Y-44600471D01*
X151824584Y-44622993D01*
X151830396Y-44646197D01*
X151833906Y-44669858D01*
X151835080Y-44693750D01*
X151835080Y-45181250D01*
X151833906Y-45205142D01*
X151830396Y-45228803D01*
X151824584Y-45252007D01*
X151816526Y-45274529D01*
X151806298Y-45296153D01*
X151794001Y-45316670D01*
X151779751Y-45335883D01*
X151763687Y-45353607D01*
X151745963Y-45369671D01*
X151726750Y-45383921D01*
X151706233Y-45396218D01*
X151684609Y-45406446D01*
X151662087Y-45414504D01*
X151638883Y-45420316D01*
X151615222Y-45423826D01*
X151591330Y-45425000D01*
X150678830Y-45425000D01*
X150654938Y-45423826D01*
X150631277Y-45420316D01*
X150608073Y-45414504D01*
X150585551Y-45406446D01*
X150563927Y-45396218D01*
X150543410Y-45383921D01*
X150524197Y-45369671D01*
X150506473Y-45353607D01*
X150490409Y-45335883D01*
X150476159Y-45316670D01*
X150463862Y-45296153D01*
X150453634Y-45274529D01*
X150445576Y-45252007D01*
X150439764Y-45228803D01*
X150436254Y-45205142D01*
X150435080Y-45181250D01*
X150435080Y-44693750D01*
X150436254Y-44669858D01*
X150439764Y-44646197D01*
X150445576Y-44622993D01*
X150453634Y-44600471D01*
X150463862Y-44578847D01*
X150476159Y-44558330D01*
X150490409Y-44539117D01*
X150506473Y-44521393D01*
X150524197Y-44505329D01*
X150543410Y-44491079D01*
X150563927Y-44478782D01*
X150585551Y-44468554D01*
X150608073Y-44460496D01*
X150631277Y-44454684D01*
X150654938Y-44451174D01*
X150678830Y-44450000D01*
X151591330Y-44450000D01*
X151615222Y-44451174D01*
G37*
G04 #@! TD.AperFunction*
G04 #@! TA.AperFunction,SMDPad,CuDef*
G36*
X160794782Y-42576174D02*
G01*
X160818443Y-42579684D01*
X160841647Y-42585496D01*
X160864169Y-42593554D01*
X160885793Y-42603782D01*
X160906310Y-42616079D01*
X160925523Y-42630329D01*
X160943247Y-42646393D01*
X160959311Y-42664117D01*
X160973561Y-42683330D01*
X160985858Y-42703847D01*
X160996086Y-42725471D01*
X161004144Y-42747993D01*
X161009956Y-42771197D01*
X161013466Y-42794858D01*
X161014640Y-42818750D01*
X161014640Y-43306250D01*
X161013466Y-43330142D01*
X161009956Y-43353803D01*
X161004144Y-43377007D01*
X160996086Y-43399529D01*
X160985858Y-43421153D01*
X160973561Y-43441670D01*
X160959311Y-43460883D01*
X160943247Y-43478607D01*
X160925523Y-43494671D01*
X160906310Y-43508921D01*
X160885793Y-43521218D01*
X160864169Y-43531446D01*
X160841647Y-43539504D01*
X160818443Y-43545316D01*
X160794782Y-43548826D01*
X160770890Y-43550000D01*
X159858390Y-43550000D01*
X159834498Y-43548826D01*
X159810837Y-43545316D01*
X159787633Y-43539504D01*
X159765111Y-43531446D01*
X159743487Y-43521218D01*
X159722970Y-43508921D01*
X159703757Y-43494671D01*
X159686033Y-43478607D01*
X159669969Y-43460883D01*
X159655719Y-43441670D01*
X159643422Y-43421153D01*
X159633194Y-43399529D01*
X159625136Y-43377007D01*
X159619324Y-43353803D01*
X159615814Y-43330142D01*
X159614640Y-43306250D01*
X159614640Y-42818750D01*
X159615814Y-42794858D01*
X159619324Y-42771197D01*
X159625136Y-42747993D01*
X159633194Y-42725471D01*
X159643422Y-42703847D01*
X159655719Y-42683330D01*
X159669969Y-42664117D01*
X159686033Y-42646393D01*
X159703757Y-42630329D01*
X159722970Y-42616079D01*
X159743487Y-42603782D01*
X159765111Y-42593554D01*
X159787633Y-42585496D01*
X159810837Y-42579684D01*
X159834498Y-42576174D01*
X159858390Y-42575000D01*
X160770890Y-42575000D01*
X160794782Y-42576174D01*
G37*
G04 #@! TD.AperFunction*
G04 #@! TA.AperFunction,SMDPad,CuDef*
G36*
X160794782Y-44451174D02*
G01*
X160818443Y-44454684D01*
X160841647Y-44460496D01*
X160864169Y-44468554D01*
X160885793Y-44478782D01*
X160906310Y-44491079D01*
X160925523Y-44505329D01*
X160943247Y-44521393D01*
X160959311Y-44539117D01*
X160973561Y-44558330D01*
X160985858Y-44578847D01*
X160996086Y-44600471D01*
X161004144Y-44622993D01*
X161009956Y-44646197D01*
X161013466Y-44669858D01*
X161014640Y-44693750D01*
X161014640Y-45181250D01*
X161013466Y-45205142D01*
X161009956Y-45228803D01*
X161004144Y-45252007D01*
X160996086Y-45274529D01*
X160985858Y-45296153D01*
X160973561Y-45316670D01*
X160959311Y-45335883D01*
X160943247Y-45353607D01*
X160925523Y-45369671D01*
X160906310Y-45383921D01*
X160885793Y-45396218D01*
X160864169Y-45406446D01*
X160841647Y-45414504D01*
X160818443Y-45420316D01*
X160794782Y-45423826D01*
X160770890Y-45425000D01*
X159858390Y-45425000D01*
X159834498Y-45423826D01*
X159810837Y-45420316D01*
X159787633Y-45414504D01*
X159765111Y-45406446D01*
X159743487Y-45396218D01*
X159722970Y-45383921D01*
X159703757Y-45369671D01*
X159686033Y-45353607D01*
X159669969Y-45335883D01*
X159655719Y-45316670D01*
X159643422Y-45296153D01*
X159633194Y-45274529D01*
X159625136Y-45252007D01*
X159619324Y-45228803D01*
X159615814Y-45205142D01*
X159614640Y-45181250D01*
X159614640Y-44693750D01*
X159615814Y-44669858D01*
X159619324Y-44646197D01*
X159625136Y-44622993D01*
X159633194Y-44600471D01*
X159643422Y-44578847D01*
X159655719Y-44558330D01*
X159669969Y-44539117D01*
X159686033Y-44521393D01*
X159703757Y-44505329D01*
X159722970Y-44491079D01*
X159743487Y-44478782D01*
X159765111Y-44468554D01*
X159787633Y-44460496D01*
X159810837Y-44454684D01*
X159834498Y-44451174D01*
X159858390Y-44450000D01*
X160770890Y-44450000D01*
X160794782Y-44451174D01*
G37*
G04 #@! TD.AperFunction*
G04 #@! TA.AperFunction,SMDPad,CuDef*
G36*
X144543862Y-51515334D02*
G01*
X144567523Y-51518844D01*
X144590727Y-51524656D01*
X144613249Y-51532714D01*
X144634873Y-51542942D01*
X144655390Y-51555239D01*
X144674603Y-51569489D01*
X144692327Y-51585553D01*
X144708391Y-51603277D01*
X144722641Y-51622490D01*
X144734938Y-51643007D01*
X144745166Y-51664631D01*
X144753224Y-51687153D01*
X144759036Y-51710357D01*
X144762546Y-51734018D01*
X144763720Y-51757910D01*
X144763720Y-52245410D01*
X144762546Y-52269302D01*
X144759036Y-52292963D01*
X144753224Y-52316167D01*
X144745166Y-52338689D01*
X144734938Y-52360313D01*
X144722641Y-52380830D01*
X144708391Y-52400043D01*
X144692327Y-52417767D01*
X144674603Y-52433831D01*
X144655390Y-52448081D01*
X144634873Y-52460378D01*
X144613249Y-52470606D01*
X144590727Y-52478664D01*
X144567523Y-52484476D01*
X144543862Y-52487986D01*
X144519970Y-52489160D01*
X143607470Y-52489160D01*
X143583578Y-52487986D01*
X143559917Y-52484476D01*
X143536713Y-52478664D01*
X143514191Y-52470606D01*
X143492567Y-52460378D01*
X143472050Y-52448081D01*
X143452837Y-52433831D01*
X143435113Y-52417767D01*
X143419049Y-52400043D01*
X143404799Y-52380830D01*
X143392502Y-52360313D01*
X143382274Y-52338689D01*
X143374216Y-52316167D01*
X143368404Y-52292963D01*
X143364894Y-52269302D01*
X143363720Y-52245410D01*
X143363720Y-51757910D01*
X143364894Y-51734018D01*
X143368404Y-51710357D01*
X143374216Y-51687153D01*
X143382274Y-51664631D01*
X143392502Y-51643007D01*
X143404799Y-51622490D01*
X143419049Y-51603277D01*
X143435113Y-51585553D01*
X143452837Y-51569489D01*
X143472050Y-51555239D01*
X143492567Y-51542942D01*
X143514191Y-51532714D01*
X143536713Y-51524656D01*
X143559917Y-51518844D01*
X143583578Y-51515334D01*
X143607470Y-51514160D01*
X144519970Y-51514160D01*
X144543862Y-51515334D01*
G37*
G04 #@! TD.AperFunction*
G04 #@! TA.AperFunction,SMDPad,CuDef*
G36*
X144543862Y-49640334D02*
G01*
X144567523Y-49643844D01*
X144590727Y-49649656D01*
X144613249Y-49657714D01*
X144634873Y-49667942D01*
X144655390Y-49680239D01*
X144674603Y-49694489D01*
X144692327Y-49710553D01*
X144708391Y-49728277D01*
X144722641Y-49747490D01*
X144734938Y-49768007D01*
X144745166Y-49789631D01*
X144753224Y-49812153D01*
X144759036Y-49835357D01*
X144762546Y-49859018D01*
X144763720Y-49882910D01*
X144763720Y-50370410D01*
X144762546Y-50394302D01*
X144759036Y-50417963D01*
X144753224Y-50441167D01*
X144745166Y-50463689D01*
X144734938Y-50485313D01*
X144722641Y-50505830D01*
X144708391Y-50525043D01*
X144692327Y-50542767D01*
X144674603Y-50558831D01*
X144655390Y-50573081D01*
X144634873Y-50585378D01*
X144613249Y-50595606D01*
X144590727Y-50603664D01*
X144567523Y-50609476D01*
X144543862Y-50612986D01*
X144519970Y-50614160D01*
X143607470Y-50614160D01*
X143583578Y-50612986D01*
X143559917Y-50609476D01*
X143536713Y-50603664D01*
X143514191Y-50595606D01*
X143492567Y-50585378D01*
X143472050Y-50573081D01*
X143452837Y-50558831D01*
X143435113Y-50542767D01*
X143419049Y-50525043D01*
X143404799Y-50505830D01*
X143392502Y-50485313D01*
X143382274Y-50463689D01*
X143374216Y-50441167D01*
X143368404Y-50417963D01*
X143364894Y-50394302D01*
X143363720Y-50370410D01*
X143363720Y-49882910D01*
X143364894Y-49859018D01*
X143368404Y-49835357D01*
X143374216Y-49812153D01*
X143382274Y-49789631D01*
X143392502Y-49768007D01*
X143404799Y-49747490D01*
X143419049Y-49728277D01*
X143435113Y-49710553D01*
X143452837Y-49694489D01*
X143472050Y-49680239D01*
X143492567Y-49667942D01*
X143514191Y-49657714D01*
X143536713Y-49649656D01*
X143559917Y-49643844D01*
X143583578Y-49640334D01*
X143607470Y-49639160D01*
X144519970Y-49639160D01*
X144543862Y-49640334D01*
G37*
G04 #@! TD.AperFunction*
G04 #@! TA.AperFunction,SMDPad,CuDef*
G36*
X139794062Y-51517214D02*
G01*
X139817723Y-51520724D01*
X139840927Y-51526536D01*
X139863449Y-51534594D01*
X139885073Y-51544822D01*
X139905590Y-51557119D01*
X139924803Y-51571369D01*
X139942527Y-51587433D01*
X139958591Y-51605157D01*
X139972841Y-51624370D01*
X139985138Y-51644887D01*
X139995366Y-51666511D01*
X140003424Y-51689033D01*
X140009236Y-51712237D01*
X140012746Y-51735898D01*
X140013920Y-51759790D01*
X140013920Y-52247290D01*
X140012746Y-52271182D01*
X140009236Y-52294843D01*
X140003424Y-52318047D01*
X139995366Y-52340569D01*
X139985138Y-52362193D01*
X139972841Y-52382710D01*
X139958591Y-52401923D01*
X139942527Y-52419647D01*
X139924803Y-52435711D01*
X139905590Y-52449961D01*
X139885073Y-52462258D01*
X139863449Y-52472486D01*
X139840927Y-52480544D01*
X139817723Y-52486356D01*
X139794062Y-52489866D01*
X139770170Y-52491040D01*
X138857670Y-52491040D01*
X138833778Y-52489866D01*
X138810117Y-52486356D01*
X138786913Y-52480544D01*
X138764391Y-52472486D01*
X138742767Y-52462258D01*
X138722250Y-52449961D01*
X138703037Y-52435711D01*
X138685313Y-52419647D01*
X138669249Y-52401923D01*
X138654999Y-52382710D01*
X138642702Y-52362193D01*
X138632474Y-52340569D01*
X138624416Y-52318047D01*
X138618604Y-52294843D01*
X138615094Y-52271182D01*
X138613920Y-52247290D01*
X138613920Y-51759790D01*
X138615094Y-51735898D01*
X138618604Y-51712237D01*
X138624416Y-51689033D01*
X138632474Y-51666511D01*
X138642702Y-51644887D01*
X138654999Y-51624370D01*
X138669249Y-51605157D01*
X138685313Y-51587433D01*
X138703037Y-51571369D01*
X138722250Y-51557119D01*
X138742767Y-51544822D01*
X138764391Y-51534594D01*
X138786913Y-51526536D01*
X138810117Y-51520724D01*
X138833778Y-51517214D01*
X138857670Y-51516040D01*
X139770170Y-51516040D01*
X139794062Y-51517214D01*
G37*
G04 #@! TD.AperFunction*
G04 #@! TA.AperFunction,SMDPad,CuDef*
G36*
X139794062Y-49642214D02*
G01*
X139817723Y-49645724D01*
X139840927Y-49651536D01*
X139863449Y-49659594D01*
X139885073Y-49669822D01*
X139905590Y-49682119D01*
X139924803Y-49696369D01*
X139942527Y-49712433D01*
X139958591Y-49730157D01*
X139972841Y-49749370D01*
X139985138Y-49769887D01*
X139995366Y-49791511D01*
X140003424Y-49814033D01*
X140009236Y-49837237D01*
X140012746Y-49860898D01*
X140013920Y-49884790D01*
X140013920Y-50372290D01*
X140012746Y-50396182D01*
X140009236Y-50419843D01*
X140003424Y-50443047D01*
X139995366Y-50465569D01*
X139985138Y-50487193D01*
X139972841Y-50507710D01*
X139958591Y-50526923D01*
X139942527Y-50544647D01*
X139924803Y-50560711D01*
X139905590Y-50574961D01*
X139885073Y-50587258D01*
X139863449Y-50597486D01*
X139840927Y-50605544D01*
X139817723Y-50611356D01*
X139794062Y-50614866D01*
X139770170Y-50616040D01*
X138857670Y-50616040D01*
X138833778Y-50614866D01*
X138810117Y-50611356D01*
X138786913Y-50605544D01*
X138764391Y-50597486D01*
X138742767Y-50587258D01*
X138722250Y-50574961D01*
X138703037Y-50560711D01*
X138685313Y-50544647D01*
X138669249Y-50526923D01*
X138654999Y-50507710D01*
X138642702Y-50487193D01*
X138632474Y-50465569D01*
X138624416Y-50443047D01*
X138618604Y-50419843D01*
X138615094Y-50396182D01*
X138613920Y-50372290D01*
X138613920Y-49884790D01*
X138615094Y-49860898D01*
X138618604Y-49837237D01*
X138624416Y-49814033D01*
X138632474Y-49791511D01*
X138642702Y-49769887D01*
X138654999Y-49749370D01*
X138669249Y-49730157D01*
X138685313Y-49712433D01*
X138703037Y-49696369D01*
X138722250Y-49682119D01*
X138742767Y-49669822D01*
X138764391Y-49659594D01*
X138786913Y-49651536D01*
X138810117Y-49645724D01*
X138833778Y-49642214D01*
X138857670Y-49641040D01*
X139770170Y-49641040D01*
X139794062Y-49642214D01*
G37*
G04 #@! TD.AperFunction*
D25*
X138846560Y-70892160D03*
X139796560Y-72892160D03*
X137896560Y-72892160D03*
X133710680Y-70892160D03*
X134660680Y-72892160D03*
X132760680Y-72892160D03*
D26*
X115731880Y-117739160D03*
X138231880Y-117739160D03*
G04 #@! TA.AperFunction,SMDPad,CuDef*
D10*
G36*
X136090742Y-49696214D02*
G01*
X136114403Y-49699724D01*
X136137607Y-49705536D01*
X136160129Y-49713594D01*
X136181753Y-49723822D01*
X136202270Y-49736119D01*
X136221483Y-49750369D01*
X136239207Y-49766433D01*
X136255271Y-49784157D01*
X136269521Y-49803370D01*
X136281818Y-49823887D01*
X136292046Y-49845511D01*
X136300104Y-49868033D01*
X136305916Y-49891237D01*
X136309426Y-49914898D01*
X136310600Y-49938790D01*
X136310600Y-50426290D01*
X136309426Y-50450182D01*
X136305916Y-50473843D01*
X136300104Y-50497047D01*
X136292046Y-50519569D01*
X136281818Y-50541193D01*
X136269521Y-50561710D01*
X136255271Y-50580923D01*
X136239207Y-50598647D01*
X136221483Y-50614711D01*
X136202270Y-50628961D01*
X136181753Y-50641258D01*
X136160129Y-50651486D01*
X136137607Y-50659544D01*
X136114403Y-50665356D01*
X136090742Y-50668866D01*
X136066850Y-50670040D01*
X135154350Y-50670040D01*
X135130458Y-50668866D01*
X135106797Y-50665356D01*
X135083593Y-50659544D01*
X135061071Y-50651486D01*
X135039447Y-50641258D01*
X135018930Y-50628961D01*
X134999717Y-50614711D01*
X134981993Y-50598647D01*
X134965929Y-50580923D01*
X134951679Y-50561710D01*
X134939382Y-50541193D01*
X134929154Y-50519569D01*
X134921096Y-50497047D01*
X134915284Y-50473843D01*
X134911774Y-50450182D01*
X134910600Y-50426290D01*
X134910600Y-49938790D01*
X134911774Y-49914898D01*
X134915284Y-49891237D01*
X134921096Y-49868033D01*
X134929154Y-49845511D01*
X134939382Y-49823887D01*
X134951679Y-49803370D01*
X134965929Y-49784157D01*
X134981993Y-49766433D01*
X134999717Y-49750369D01*
X135018930Y-49736119D01*
X135039447Y-49723822D01*
X135061071Y-49713594D01*
X135083593Y-49705536D01*
X135106797Y-49699724D01*
X135130458Y-49696214D01*
X135154350Y-49695040D01*
X136066850Y-49695040D01*
X136090742Y-49696214D01*
G37*
G04 #@! TD.AperFunction*
G04 #@! TA.AperFunction,SMDPad,CuDef*
G36*
X136090742Y-51571214D02*
G01*
X136114403Y-51574724D01*
X136137607Y-51580536D01*
X136160129Y-51588594D01*
X136181753Y-51598822D01*
X136202270Y-51611119D01*
X136221483Y-51625369D01*
X136239207Y-51641433D01*
X136255271Y-51659157D01*
X136269521Y-51678370D01*
X136281818Y-51698887D01*
X136292046Y-51720511D01*
X136300104Y-51743033D01*
X136305916Y-51766237D01*
X136309426Y-51789898D01*
X136310600Y-51813790D01*
X136310600Y-52301290D01*
X136309426Y-52325182D01*
X136305916Y-52348843D01*
X136300104Y-52372047D01*
X136292046Y-52394569D01*
X136281818Y-52416193D01*
X136269521Y-52436710D01*
X136255271Y-52455923D01*
X136239207Y-52473647D01*
X136221483Y-52489711D01*
X136202270Y-52503961D01*
X136181753Y-52516258D01*
X136160129Y-52526486D01*
X136137607Y-52534544D01*
X136114403Y-52540356D01*
X136090742Y-52543866D01*
X136066850Y-52545040D01*
X135154350Y-52545040D01*
X135130458Y-52543866D01*
X135106797Y-52540356D01*
X135083593Y-52534544D01*
X135061071Y-52526486D01*
X135039447Y-52516258D01*
X135018930Y-52503961D01*
X134999717Y-52489711D01*
X134981993Y-52473647D01*
X134965929Y-52455923D01*
X134951679Y-52436710D01*
X134939382Y-52416193D01*
X134929154Y-52394569D01*
X134921096Y-52372047D01*
X134915284Y-52348843D01*
X134911774Y-52325182D01*
X134910600Y-52301290D01*
X134910600Y-51813790D01*
X134911774Y-51789898D01*
X134915284Y-51766237D01*
X134921096Y-51743033D01*
X134929154Y-51720511D01*
X134939382Y-51698887D01*
X134951679Y-51678370D01*
X134965929Y-51659157D01*
X134981993Y-51641433D01*
X134999717Y-51625369D01*
X135018930Y-51611119D01*
X135039447Y-51598822D01*
X135061071Y-51588594D01*
X135083593Y-51580536D01*
X135106797Y-51574724D01*
X135130458Y-51571214D01*
X135154350Y-51570040D01*
X136066850Y-51570040D01*
X136090742Y-51571214D01*
G37*
G04 #@! TD.AperFunction*
D27*
X126227720Y-42498280D03*
X126227720Y-49698280D03*
X126227720Y-51898280D03*
X119227720Y-42498280D03*
X119227720Y-45898280D03*
X119227720Y-51398280D03*
D28*
X126907800Y-65116600D03*
X126407800Y-65116600D03*
X125907800Y-65116600D03*
X125407800Y-65116600D03*
X124907800Y-65116600D03*
X124907800Y-60816600D03*
X125407800Y-60816600D03*
X125907800Y-60816600D03*
X126407800Y-60816600D03*
X126907800Y-60816600D03*
G04 #@! TA.AperFunction,SMDPad,CuDef*
D10*
G36*
X147612182Y-62676094D02*
G01*
X147635843Y-62679604D01*
X147659047Y-62685416D01*
X147681569Y-62693474D01*
X147703193Y-62703702D01*
X147723710Y-62715999D01*
X147742923Y-62730249D01*
X147760647Y-62746313D01*
X147776711Y-62764037D01*
X147790961Y-62783250D01*
X147803258Y-62803767D01*
X147813486Y-62825391D01*
X147821544Y-62847913D01*
X147827356Y-62871117D01*
X147830866Y-62894778D01*
X147832040Y-62918670D01*
X147832040Y-63406170D01*
X147830866Y-63430062D01*
X147827356Y-63453723D01*
X147821544Y-63476927D01*
X147813486Y-63499449D01*
X147803258Y-63521073D01*
X147790961Y-63541590D01*
X147776711Y-63560803D01*
X147760647Y-63578527D01*
X147742923Y-63594591D01*
X147723710Y-63608841D01*
X147703193Y-63621138D01*
X147681569Y-63631366D01*
X147659047Y-63639424D01*
X147635843Y-63645236D01*
X147612182Y-63648746D01*
X147588290Y-63649920D01*
X146675790Y-63649920D01*
X146651898Y-63648746D01*
X146628237Y-63645236D01*
X146605033Y-63639424D01*
X146582511Y-63631366D01*
X146560887Y-63621138D01*
X146540370Y-63608841D01*
X146521157Y-63594591D01*
X146503433Y-63578527D01*
X146487369Y-63560803D01*
X146473119Y-63541590D01*
X146460822Y-63521073D01*
X146450594Y-63499449D01*
X146442536Y-63476927D01*
X146436724Y-63453723D01*
X146433214Y-63430062D01*
X146432040Y-63406170D01*
X146432040Y-62918670D01*
X146433214Y-62894778D01*
X146436724Y-62871117D01*
X146442536Y-62847913D01*
X146450594Y-62825391D01*
X146460822Y-62803767D01*
X146473119Y-62783250D01*
X146487369Y-62764037D01*
X146503433Y-62746313D01*
X146521157Y-62730249D01*
X146540370Y-62715999D01*
X146560887Y-62703702D01*
X146582511Y-62693474D01*
X146605033Y-62685416D01*
X146628237Y-62679604D01*
X146651898Y-62676094D01*
X146675790Y-62674920D01*
X147588290Y-62674920D01*
X147612182Y-62676094D01*
G37*
G04 #@! TD.AperFunction*
G04 #@! TA.AperFunction,SMDPad,CuDef*
G36*
X147612182Y-60801094D02*
G01*
X147635843Y-60804604D01*
X147659047Y-60810416D01*
X147681569Y-60818474D01*
X147703193Y-60828702D01*
X147723710Y-60840999D01*
X147742923Y-60855249D01*
X147760647Y-60871313D01*
X147776711Y-60889037D01*
X147790961Y-60908250D01*
X147803258Y-60928767D01*
X147813486Y-60950391D01*
X147821544Y-60972913D01*
X147827356Y-60996117D01*
X147830866Y-61019778D01*
X147832040Y-61043670D01*
X147832040Y-61531170D01*
X147830866Y-61555062D01*
X147827356Y-61578723D01*
X147821544Y-61601927D01*
X147813486Y-61624449D01*
X147803258Y-61646073D01*
X147790961Y-61666590D01*
X147776711Y-61685803D01*
X147760647Y-61703527D01*
X147742923Y-61719591D01*
X147723710Y-61733841D01*
X147703193Y-61746138D01*
X147681569Y-61756366D01*
X147659047Y-61764424D01*
X147635843Y-61770236D01*
X147612182Y-61773746D01*
X147588290Y-61774920D01*
X146675790Y-61774920D01*
X146651898Y-61773746D01*
X146628237Y-61770236D01*
X146605033Y-61764424D01*
X146582511Y-61756366D01*
X146560887Y-61746138D01*
X146540370Y-61733841D01*
X146521157Y-61719591D01*
X146503433Y-61703527D01*
X146487369Y-61685803D01*
X146473119Y-61666590D01*
X146460822Y-61646073D01*
X146450594Y-61624449D01*
X146442536Y-61601927D01*
X146436724Y-61578723D01*
X146433214Y-61555062D01*
X146432040Y-61531170D01*
X146432040Y-61043670D01*
X146433214Y-61019778D01*
X146436724Y-60996117D01*
X146442536Y-60972913D01*
X146450594Y-60950391D01*
X146460822Y-60928767D01*
X146473119Y-60908250D01*
X146487369Y-60889037D01*
X146503433Y-60871313D01*
X146521157Y-60855249D01*
X146540370Y-60840999D01*
X146560887Y-60828702D01*
X146582511Y-60818474D01*
X146605033Y-60810416D01*
X146628237Y-60804604D01*
X146651898Y-60801094D01*
X146675790Y-60799920D01*
X147588290Y-60799920D01*
X147612182Y-60801094D01*
G37*
G04 #@! TD.AperFunction*
G04 #@! TA.AperFunction,SMDPad,CuDef*
G36*
X123675222Y-70562554D02*
G01*
X123698883Y-70566064D01*
X123722087Y-70571876D01*
X123744609Y-70579934D01*
X123766233Y-70590162D01*
X123786750Y-70602459D01*
X123805963Y-70616709D01*
X123823687Y-70632773D01*
X123839751Y-70650497D01*
X123854001Y-70669710D01*
X123866298Y-70690227D01*
X123876526Y-70711851D01*
X123884584Y-70734373D01*
X123890396Y-70757577D01*
X123893906Y-70781238D01*
X123895080Y-70805130D01*
X123895080Y-71292630D01*
X123893906Y-71316522D01*
X123890396Y-71340183D01*
X123884584Y-71363387D01*
X123876526Y-71385909D01*
X123866298Y-71407533D01*
X123854001Y-71428050D01*
X123839751Y-71447263D01*
X123823687Y-71464987D01*
X123805963Y-71481051D01*
X123786750Y-71495301D01*
X123766233Y-71507598D01*
X123744609Y-71517826D01*
X123722087Y-71525884D01*
X123698883Y-71531696D01*
X123675222Y-71535206D01*
X123651330Y-71536380D01*
X122738830Y-71536380D01*
X122714938Y-71535206D01*
X122691277Y-71531696D01*
X122668073Y-71525884D01*
X122645551Y-71517826D01*
X122623927Y-71507598D01*
X122603410Y-71495301D01*
X122584197Y-71481051D01*
X122566473Y-71464987D01*
X122550409Y-71447263D01*
X122536159Y-71428050D01*
X122523862Y-71407533D01*
X122513634Y-71385909D01*
X122505576Y-71363387D01*
X122499764Y-71340183D01*
X122496254Y-71316522D01*
X122495080Y-71292630D01*
X122495080Y-70805130D01*
X122496254Y-70781238D01*
X122499764Y-70757577D01*
X122505576Y-70734373D01*
X122513634Y-70711851D01*
X122523862Y-70690227D01*
X122536159Y-70669710D01*
X122550409Y-70650497D01*
X122566473Y-70632773D01*
X122584197Y-70616709D01*
X122603410Y-70602459D01*
X122623927Y-70590162D01*
X122645551Y-70579934D01*
X122668073Y-70571876D01*
X122691277Y-70566064D01*
X122714938Y-70562554D01*
X122738830Y-70561380D01*
X123651330Y-70561380D01*
X123675222Y-70562554D01*
G37*
G04 #@! TD.AperFunction*
G04 #@! TA.AperFunction,SMDPad,CuDef*
G36*
X123675222Y-68687554D02*
G01*
X123698883Y-68691064D01*
X123722087Y-68696876D01*
X123744609Y-68704934D01*
X123766233Y-68715162D01*
X123786750Y-68727459D01*
X123805963Y-68741709D01*
X123823687Y-68757773D01*
X123839751Y-68775497D01*
X123854001Y-68794710D01*
X123866298Y-68815227D01*
X123876526Y-68836851D01*
X123884584Y-68859373D01*
X123890396Y-68882577D01*
X123893906Y-68906238D01*
X123895080Y-68930130D01*
X123895080Y-69417630D01*
X123893906Y-69441522D01*
X123890396Y-69465183D01*
X123884584Y-69488387D01*
X123876526Y-69510909D01*
X123866298Y-69532533D01*
X123854001Y-69553050D01*
X123839751Y-69572263D01*
X123823687Y-69589987D01*
X123805963Y-69606051D01*
X123786750Y-69620301D01*
X123766233Y-69632598D01*
X123744609Y-69642826D01*
X123722087Y-69650884D01*
X123698883Y-69656696D01*
X123675222Y-69660206D01*
X123651330Y-69661380D01*
X122738830Y-69661380D01*
X122714938Y-69660206D01*
X122691277Y-69656696D01*
X122668073Y-69650884D01*
X122645551Y-69642826D01*
X122623927Y-69632598D01*
X122603410Y-69620301D01*
X122584197Y-69606051D01*
X122566473Y-69589987D01*
X122550409Y-69572263D01*
X122536159Y-69553050D01*
X122523862Y-69532533D01*
X122513634Y-69510909D01*
X122505576Y-69488387D01*
X122499764Y-69465183D01*
X122496254Y-69441522D01*
X122495080Y-69417630D01*
X122495080Y-68930130D01*
X122496254Y-68906238D01*
X122499764Y-68882577D01*
X122505576Y-68859373D01*
X122513634Y-68836851D01*
X122523862Y-68815227D01*
X122536159Y-68794710D01*
X122550409Y-68775497D01*
X122566473Y-68757773D01*
X122584197Y-68741709D01*
X122603410Y-68727459D01*
X122623927Y-68715162D01*
X122645551Y-68704934D01*
X122668073Y-68696876D01*
X122691277Y-68691064D01*
X122714938Y-68687554D01*
X122738830Y-68686380D01*
X123651330Y-68686380D01*
X123675222Y-68687554D01*
G37*
G04 #@! TD.AperFunction*
G04 #@! TA.AperFunction,SMDPad,CuDef*
G36*
X127617302Y-68720814D02*
G01*
X127640963Y-68724324D01*
X127664167Y-68730136D01*
X127686689Y-68738194D01*
X127708313Y-68748422D01*
X127728830Y-68760719D01*
X127748043Y-68774969D01*
X127765767Y-68791033D01*
X127781831Y-68808757D01*
X127796081Y-68827970D01*
X127808378Y-68848487D01*
X127818606Y-68870111D01*
X127826664Y-68892633D01*
X127832476Y-68915837D01*
X127835986Y-68939498D01*
X127837160Y-68963390D01*
X127837160Y-69450890D01*
X127835986Y-69474782D01*
X127832476Y-69498443D01*
X127826664Y-69521647D01*
X127818606Y-69544169D01*
X127808378Y-69565793D01*
X127796081Y-69586310D01*
X127781831Y-69605523D01*
X127765767Y-69623247D01*
X127748043Y-69639311D01*
X127728830Y-69653561D01*
X127708313Y-69665858D01*
X127686689Y-69676086D01*
X127664167Y-69684144D01*
X127640963Y-69689956D01*
X127617302Y-69693466D01*
X127593410Y-69694640D01*
X126680910Y-69694640D01*
X126657018Y-69693466D01*
X126633357Y-69689956D01*
X126610153Y-69684144D01*
X126587631Y-69676086D01*
X126566007Y-69665858D01*
X126545490Y-69653561D01*
X126526277Y-69639311D01*
X126508553Y-69623247D01*
X126492489Y-69605523D01*
X126478239Y-69586310D01*
X126465942Y-69565793D01*
X126455714Y-69544169D01*
X126447656Y-69521647D01*
X126441844Y-69498443D01*
X126438334Y-69474782D01*
X126437160Y-69450890D01*
X126437160Y-68963390D01*
X126438334Y-68939498D01*
X126441844Y-68915837D01*
X126447656Y-68892633D01*
X126455714Y-68870111D01*
X126465942Y-68848487D01*
X126478239Y-68827970D01*
X126492489Y-68808757D01*
X126508553Y-68791033D01*
X126526277Y-68774969D01*
X126545490Y-68760719D01*
X126566007Y-68748422D01*
X126587631Y-68738194D01*
X126610153Y-68730136D01*
X126633357Y-68724324D01*
X126657018Y-68720814D01*
X126680910Y-68719640D01*
X127593410Y-68719640D01*
X127617302Y-68720814D01*
G37*
G04 #@! TD.AperFunction*
G04 #@! TA.AperFunction,SMDPad,CuDef*
G36*
X127617302Y-70595814D02*
G01*
X127640963Y-70599324D01*
X127664167Y-70605136D01*
X127686689Y-70613194D01*
X127708313Y-70623422D01*
X127728830Y-70635719D01*
X127748043Y-70649969D01*
X127765767Y-70666033D01*
X127781831Y-70683757D01*
X127796081Y-70702970D01*
X127808378Y-70723487D01*
X127818606Y-70745111D01*
X127826664Y-70767633D01*
X127832476Y-70790837D01*
X127835986Y-70814498D01*
X127837160Y-70838390D01*
X127837160Y-71325890D01*
X127835986Y-71349782D01*
X127832476Y-71373443D01*
X127826664Y-71396647D01*
X127818606Y-71419169D01*
X127808378Y-71440793D01*
X127796081Y-71461310D01*
X127781831Y-71480523D01*
X127765767Y-71498247D01*
X127748043Y-71514311D01*
X127728830Y-71528561D01*
X127708313Y-71540858D01*
X127686689Y-71551086D01*
X127664167Y-71559144D01*
X127640963Y-71564956D01*
X127617302Y-71568466D01*
X127593410Y-71569640D01*
X126680910Y-71569640D01*
X126657018Y-71568466D01*
X126633357Y-71564956D01*
X126610153Y-71559144D01*
X126587631Y-71551086D01*
X126566007Y-71540858D01*
X126545490Y-71528561D01*
X126526277Y-71514311D01*
X126508553Y-71498247D01*
X126492489Y-71480523D01*
X126478239Y-71461310D01*
X126465942Y-71440793D01*
X126455714Y-71419169D01*
X126447656Y-71396647D01*
X126441844Y-71373443D01*
X126438334Y-71349782D01*
X126437160Y-71325890D01*
X126437160Y-70838390D01*
X126438334Y-70814498D01*
X126441844Y-70790837D01*
X126447656Y-70767633D01*
X126455714Y-70745111D01*
X126465942Y-70723487D01*
X126478239Y-70702970D01*
X126492489Y-70683757D01*
X126508553Y-70666033D01*
X126526277Y-70649969D01*
X126545490Y-70635719D01*
X126566007Y-70623422D01*
X126587631Y-70613194D01*
X126610153Y-70605136D01*
X126633357Y-70599324D01*
X126657018Y-70595814D01*
X126680910Y-70594640D01*
X127593410Y-70594640D01*
X127617302Y-70595814D01*
G37*
G04 #@! TD.AperFunction*
G04 #@! TA.AperFunction,SMDPad,CuDef*
G36*
X172788662Y-42576174D02*
G01*
X172812323Y-42579684D01*
X172835527Y-42585496D01*
X172858049Y-42593554D01*
X172879673Y-42603782D01*
X172900190Y-42616079D01*
X172919403Y-42630329D01*
X172937127Y-42646393D01*
X172953191Y-42664117D01*
X172967441Y-42683330D01*
X172979738Y-42703847D01*
X172989966Y-42725471D01*
X172998024Y-42747993D01*
X173003836Y-42771197D01*
X173007346Y-42794858D01*
X173008520Y-42818750D01*
X173008520Y-43306250D01*
X173007346Y-43330142D01*
X173003836Y-43353803D01*
X172998024Y-43377007D01*
X172989966Y-43399529D01*
X172979738Y-43421153D01*
X172967441Y-43441670D01*
X172953191Y-43460883D01*
X172937127Y-43478607D01*
X172919403Y-43494671D01*
X172900190Y-43508921D01*
X172879673Y-43521218D01*
X172858049Y-43531446D01*
X172835527Y-43539504D01*
X172812323Y-43545316D01*
X172788662Y-43548826D01*
X172764770Y-43550000D01*
X171852270Y-43550000D01*
X171828378Y-43548826D01*
X171804717Y-43545316D01*
X171781513Y-43539504D01*
X171758991Y-43531446D01*
X171737367Y-43521218D01*
X171716850Y-43508921D01*
X171697637Y-43494671D01*
X171679913Y-43478607D01*
X171663849Y-43460883D01*
X171649599Y-43441670D01*
X171637302Y-43421153D01*
X171627074Y-43399529D01*
X171619016Y-43377007D01*
X171613204Y-43353803D01*
X171609694Y-43330142D01*
X171608520Y-43306250D01*
X171608520Y-42818750D01*
X171609694Y-42794858D01*
X171613204Y-42771197D01*
X171619016Y-42747993D01*
X171627074Y-42725471D01*
X171637302Y-42703847D01*
X171649599Y-42683330D01*
X171663849Y-42664117D01*
X171679913Y-42646393D01*
X171697637Y-42630329D01*
X171716850Y-42616079D01*
X171737367Y-42603782D01*
X171758991Y-42593554D01*
X171781513Y-42585496D01*
X171804717Y-42579684D01*
X171828378Y-42576174D01*
X171852270Y-42575000D01*
X172764770Y-42575000D01*
X172788662Y-42576174D01*
G37*
G04 #@! TD.AperFunction*
G04 #@! TA.AperFunction,SMDPad,CuDef*
G36*
X172788662Y-44451174D02*
G01*
X172812323Y-44454684D01*
X172835527Y-44460496D01*
X172858049Y-44468554D01*
X172879673Y-44478782D01*
X172900190Y-44491079D01*
X172919403Y-44505329D01*
X172937127Y-44521393D01*
X172953191Y-44539117D01*
X172967441Y-44558330D01*
X172979738Y-44578847D01*
X172989966Y-44600471D01*
X172998024Y-44622993D01*
X173003836Y-44646197D01*
X173007346Y-44669858D01*
X173008520Y-44693750D01*
X173008520Y-45181250D01*
X173007346Y-45205142D01*
X173003836Y-45228803D01*
X172998024Y-45252007D01*
X172989966Y-45274529D01*
X172979738Y-45296153D01*
X172967441Y-45316670D01*
X172953191Y-45335883D01*
X172937127Y-45353607D01*
X172919403Y-45369671D01*
X172900190Y-45383921D01*
X172879673Y-45396218D01*
X172858049Y-45406446D01*
X172835527Y-45414504D01*
X172812323Y-45420316D01*
X172788662Y-45423826D01*
X172764770Y-45425000D01*
X171852270Y-45425000D01*
X171828378Y-45423826D01*
X171804717Y-45420316D01*
X171781513Y-45414504D01*
X171758991Y-45406446D01*
X171737367Y-45396218D01*
X171716850Y-45383921D01*
X171697637Y-45369671D01*
X171679913Y-45353607D01*
X171663849Y-45335883D01*
X171649599Y-45316670D01*
X171637302Y-45296153D01*
X171627074Y-45274529D01*
X171619016Y-45252007D01*
X171613204Y-45228803D01*
X171609694Y-45205142D01*
X171608520Y-45181250D01*
X171608520Y-44693750D01*
X171609694Y-44669858D01*
X171613204Y-44646197D01*
X171619016Y-44622993D01*
X171627074Y-44600471D01*
X171637302Y-44578847D01*
X171649599Y-44558330D01*
X171663849Y-44539117D01*
X171679913Y-44521393D01*
X171697637Y-44505329D01*
X171716850Y-44491079D01*
X171737367Y-44478782D01*
X171758991Y-44468554D01*
X171781513Y-44460496D01*
X171804717Y-44454684D01*
X171828378Y-44451174D01*
X171852270Y-44450000D01*
X172764770Y-44450000D01*
X172788662Y-44451174D01*
G37*
G04 #@! TD.AperFunction*
G04 #@! TA.AperFunction,SMDPad,CuDef*
G36*
X169816862Y-42576174D02*
G01*
X169840523Y-42579684D01*
X169863727Y-42585496D01*
X169886249Y-42593554D01*
X169907873Y-42603782D01*
X169928390Y-42616079D01*
X169947603Y-42630329D01*
X169965327Y-42646393D01*
X169981391Y-42664117D01*
X169995641Y-42683330D01*
X170007938Y-42703847D01*
X170018166Y-42725471D01*
X170026224Y-42747993D01*
X170032036Y-42771197D01*
X170035546Y-42794858D01*
X170036720Y-42818750D01*
X170036720Y-43306250D01*
X170035546Y-43330142D01*
X170032036Y-43353803D01*
X170026224Y-43377007D01*
X170018166Y-43399529D01*
X170007938Y-43421153D01*
X169995641Y-43441670D01*
X169981391Y-43460883D01*
X169965327Y-43478607D01*
X169947603Y-43494671D01*
X169928390Y-43508921D01*
X169907873Y-43521218D01*
X169886249Y-43531446D01*
X169863727Y-43539504D01*
X169840523Y-43545316D01*
X169816862Y-43548826D01*
X169792970Y-43550000D01*
X168880470Y-43550000D01*
X168856578Y-43548826D01*
X168832917Y-43545316D01*
X168809713Y-43539504D01*
X168787191Y-43531446D01*
X168765567Y-43521218D01*
X168745050Y-43508921D01*
X168725837Y-43494671D01*
X168708113Y-43478607D01*
X168692049Y-43460883D01*
X168677799Y-43441670D01*
X168665502Y-43421153D01*
X168655274Y-43399529D01*
X168647216Y-43377007D01*
X168641404Y-43353803D01*
X168637894Y-43330142D01*
X168636720Y-43306250D01*
X168636720Y-42818750D01*
X168637894Y-42794858D01*
X168641404Y-42771197D01*
X168647216Y-42747993D01*
X168655274Y-42725471D01*
X168665502Y-42703847D01*
X168677799Y-42683330D01*
X168692049Y-42664117D01*
X168708113Y-42646393D01*
X168725837Y-42630329D01*
X168745050Y-42616079D01*
X168765567Y-42603782D01*
X168787191Y-42593554D01*
X168809713Y-42585496D01*
X168832917Y-42579684D01*
X168856578Y-42576174D01*
X168880470Y-42575000D01*
X169792970Y-42575000D01*
X169816862Y-42576174D01*
G37*
G04 #@! TD.AperFunction*
G04 #@! TA.AperFunction,SMDPad,CuDef*
G36*
X169816862Y-44451174D02*
G01*
X169840523Y-44454684D01*
X169863727Y-44460496D01*
X169886249Y-44468554D01*
X169907873Y-44478782D01*
X169928390Y-44491079D01*
X169947603Y-44505329D01*
X169965327Y-44521393D01*
X169981391Y-44539117D01*
X169995641Y-44558330D01*
X170007938Y-44578847D01*
X170018166Y-44600471D01*
X170026224Y-44622993D01*
X170032036Y-44646197D01*
X170035546Y-44669858D01*
X170036720Y-44693750D01*
X170036720Y-45181250D01*
X170035546Y-45205142D01*
X170032036Y-45228803D01*
X170026224Y-45252007D01*
X170018166Y-45274529D01*
X170007938Y-45296153D01*
X169995641Y-45316670D01*
X169981391Y-45335883D01*
X169965327Y-45353607D01*
X169947603Y-45369671D01*
X169928390Y-45383921D01*
X169907873Y-45396218D01*
X169886249Y-45406446D01*
X169863727Y-45414504D01*
X169840523Y-45420316D01*
X169816862Y-45423826D01*
X169792970Y-45425000D01*
X168880470Y-45425000D01*
X168856578Y-45423826D01*
X168832917Y-45420316D01*
X168809713Y-45414504D01*
X168787191Y-45406446D01*
X168765567Y-45396218D01*
X168745050Y-45383921D01*
X168725837Y-45369671D01*
X168708113Y-45353607D01*
X168692049Y-45335883D01*
X168677799Y-45316670D01*
X168665502Y-45296153D01*
X168655274Y-45274529D01*
X168647216Y-45252007D01*
X168641404Y-45228803D01*
X168637894Y-45205142D01*
X168636720Y-45181250D01*
X168636720Y-44693750D01*
X168637894Y-44669858D01*
X168641404Y-44646197D01*
X168647216Y-44622993D01*
X168655274Y-44600471D01*
X168665502Y-44578847D01*
X168677799Y-44558330D01*
X168692049Y-44539117D01*
X168708113Y-44521393D01*
X168725837Y-44505329D01*
X168745050Y-44491079D01*
X168765567Y-44478782D01*
X168787191Y-44468554D01*
X168809713Y-44460496D01*
X168832917Y-44454684D01*
X168856578Y-44451174D01*
X168880470Y-44450000D01*
X169792970Y-44450000D01*
X169816862Y-44451174D01*
G37*
G04 #@! TD.AperFunction*
G04 #@! TA.AperFunction,SMDPad,CuDef*
G36*
X122781142Y-58515574D02*
G01*
X122804803Y-58519084D01*
X122828007Y-58524896D01*
X122850529Y-58532954D01*
X122872153Y-58543182D01*
X122892670Y-58555479D01*
X122911883Y-58569729D01*
X122929607Y-58585793D01*
X122945671Y-58603517D01*
X122959921Y-58622730D01*
X122972218Y-58643247D01*
X122982446Y-58664871D01*
X122990504Y-58687393D01*
X122996316Y-58710597D01*
X122999826Y-58734258D01*
X123001000Y-58758150D01*
X123001000Y-59245650D01*
X122999826Y-59269542D01*
X122996316Y-59293203D01*
X122990504Y-59316407D01*
X122982446Y-59338929D01*
X122972218Y-59360553D01*
X122959921Y-59381070D01*
X122945671Y-59400283D01*
X122929607Y-59418007D01*
X122911883Y-59434071D01*
X122892670Y-59448321D01*
X122872153Y-59460618D01*
X122850529Y-59470846D01*
X122828007Y-59478904D01*
X122804803Y-59484716D01*
X122781142Y-59488226D01*
X122757250Y-59489400D01*
X121844750Y-59489400D01*
X121820858Y-59488226D01*
X121797197Y-59484716D01*
X121773993Y-59478904D01*
X121751471Y-59470846D01*
X121729847Y-59460618D01*
X121709330Y-59448321D01*
X121690117Y-59434071D01*
X121672393Y-59418007D01*
X121656329Y-59400283D01*
X121642079Y-59381070D01*
X121629782Y-59360553D01*
X121619554Y-59338929D01*
X121611496Y-59316407D01*
X121605684Y-59293203D01*
X121602174Y-59269542D01*
X121601000Y-59245650D01*
X121601000Y-58758150D01*
X121602174Y-58734258D01*
X121605684Y-58710597D01*
X121611496Y-58687393D01*
X121619554Y-58664871D01*
X121629782Y-58643247D01*
X121642079Y-58622730D01*
X121656329Y-58603517D01*
X121672393Y-58585793D01*
X121690117Y-58569729D01*
X121709330Y-58555479D01*
X121729847Y-58543182D01*
X121751471Y-58532954D01*
X121773993Y-58524896D01*
X121797197Y-58519084D01*
X121820858Y-58515574D01*
X121844750Y-58514400D01*
X122757250Y-58514400D01*
X122781142Y-58515574D01*
G37*
G04 #@! TD.AperFunction*
G04 #@! TA.AperFunction,SMDPad,CuDef*
G36*
X122781142Y-56640574D02*
G01*
X122804803Y-56644084D01*
X122828007Y-56649896D01*
X122850529Y-56657954D01*
X122872153Y-56668182D01*
X122892670Y-56680479D01*
X122911883Y-56694729D01*
X122929607Y-56710793D01*
X122945671Y-56728517D01*
X122959921Y-56747730D01*
X122972218Y-56768247D01*
X122982446Y-56789871D01*
X122990504Y-56812393D01*
X122996316Y-56835597D01*
X122999826Y-56859258D01*
X123001000Y-56883150D01*
X123001000Y-57370650D01*
X122999826Y-57394542D01*
X122996316Y-57418203D01*
X122990504Y-57441407D01*
X122982446Y-57463929D01*
X122972218Y-57485553D01*
X122959921Y-57506070D01*
X122945671Y-57525283D01*
X122929607Y-57543007D01*
X122911883Y-57559071D01*
X122892670Y-57573321D01*
X122872153Y-57585618D01*
X122850529Y-57595846D01*
X122828007Y-57603904D01*
X122804803Y-57609716D01*
X122781142Y-57613226D01*
X122757250Y-57614400D01*
X121844750Y-57614400D01*
X121820858Y-57613226D01*
X121797197Y-57609716D01*
X121773993Y-57603904D01*
X121751471Y-57595846D01*
X121729847Y-57585618D01*
X121709330Y-57573321D01*
X121690117Y-57559071D01*
X121672393Y-57543007D01*
X121656329Y-57525283D01*
X121642079Y-57506070D01*
X121629782Y-57485553D01*
X121619554Y-57463929D01*
X121611496Y-57441407D01*
X121605684Y-57418203D01*
X121602174Y-57394542D01*
X121601000Y-57370650D01*
X121601000Y-56883150D01*
X121602174Y-56859258D01*
X121605684Y-56835597D01*
X121611496Y-56812393D01*
X121619554Y-56789871D01*
X121629782Y-56768247D01*
X121642079Y-56747730D01*
X121656329Y-56728517D01*
X121672393Y-56710793D01*
X121690117Y-56694729D01*
X121709330Y-56680479D01*
X121729847Y-56668182D01*
X121751471Y-56657954D01*
X121773993Y-56649896D01*
X121797197Y-56644084D01*
X121820858Y-56640574D01*
X121844750Y-56639400D01*
X122757250Y-56639400D01*
X122781142Y-56640574D01*
G37*
G04 #@! TD.AperFunction*
G04 #@! TA.AperFunction,SMDPad,CuDef*
G36*
X122781142Y-60576174D02*
G01*
X122804803Y-60579684D01*
X122828007Y-60585496D01*
X122850529Y-60593554D01*
X122872153Y-60603782D01*
X122892670Y-60616079D01*
X122911883Y-60630329D01*
X122929607Y-60646393D01*
X122945671Y-60664117D01*
X122959921Y-60683330D01*
X122972218Y-60703847D01*
X122982446Y-60725471D01*
X122990504Y-60747993D01*
X122996316Y-60771197D01*
X122999826Y-60794858D01*
X123001000Y-60818750D01*
X123001000Y-61306250D01*
X122999826Y-61330142D01*
X122996316Y-61353803D01*
X122990504Y-61377007D01*
X122982446Y-61399529D01*
X122972218Y-61421153D01*
X122959921Y-61441670D01*
X122945671Y-61460883D01*
X122929607Y-61478607D01*
X122911883Y-61494671D01*
X122892670Y-61508921D01*
X122872153Y-61521218D01*
X122850529Y-61531446D01*
X122828007Y-61539504D01*
X122804803Y-61545316D01*
X122781142Y-61548826D01*
X122757250Y-61550000D01*
X121844750Y-61550000D01*
X121820858Y-61548826D01*
X121797197Y-61545316D01*
X121773993Y-61539504D01*
X121751471Y-61531446D01*
X121729847Y-61521218D01*
X121709330Y-61508921D01*
X121690117Y-61494671D01*
X121672393Y-61478607D01*
X121656329Y-61460883D01*
X121642079Y-61441670D01*
X121629782Y-61421153D01*
X121619554Y-61399529D01*
X121611496Y-61377007D01*
X121605684Y-61353803D01*
X121602174Y-61330142D01*
X121601000Y-61306250D01*
X121601000Y-60818750D01*
X121602174Y-60794858D01*
X121605684Y-60771197D01*
X121611496Y-60747993D01*
X121619554Y-60725471D01*
X121629782Y-60703847D01*
X121642079Y-60683330D01*
X121656329Y-60664117D01*
X121672393Y-60646393D01*
X121690117Y-60630329D01*
X121709330Y-60616079D01*
X121729847Y-60603782D01*
X121751471Y-60593554D01*
X121773993Y-60585496D01*
X121797197Y-60579684D01*
X121820858Y-60576174D01*
X121844750Y-60575000D01*
X122757250Y-60575000D01*
X122781142Y-60576174D01*
G37*
G04 #@! TD.AperFunction*
G04 #@! TA.AperFunction,SMDPad,CuDef*
G36*
X122781142Y-62451174D02*
G01*
X122804803Y-62454684D01*
X122828007Y-62460496D01*
X122850529Y-62468554D01*
X122872153Y-62478782D01*
X122892670Y-62491079D01*
X122911883Y-62505329D01*
X122929607Y-62521393D01*
X122945671Y-62539117D01*
X122959921Y-62558330D01*
X122972218Y-62578847D01*
X122982446Y-62600471D01*
X122990504Y-62622993D01*
X122996316Y-62646197D01*
X122999826Y-62669858D01*
X123001000Y-62693750D01*
X123001000Y-63181250D01*
X122999826Y-63205142D01*
X122996316Y-63228803D01*
X122990504Y-63252007D01*
X122982446Y-63274529D01*
X122972218Y-63296153D01*
X122959921Y-63316670D01*
X122945671Y-63335883D01*
X122929607Y-63353607D01*
X122911883Y-63369671D01*
X122892670Y-63383921D01*
X122872153Y-63396218D01*
X122850529Y-63406446D01*
X122828007Y-63414504D01*
X122804803Y-63420316D01*
X122781142Y-63423826D01*
X122757250Y-63425000D01*
X121844750Y-63425000D01*
X121820858Y-63423826D01*
X121797197Y-63420316D01*
X121773993Y-63414504D01*
X121751471Y-63406446D01*
X121729847Y-63396218D01*
X121709330Y-63383921D01*
X121690117Y-63369671D01*
X121672393Y-63353607D01*
X121656329Y-63335883D01*
X121642079Y-63316670D01*
X121629782Y-63296153D01*
X121619554Y-63274529D01*
X121611496Y-63252007D01*
X121605684Y-63228803D01*
X121602174Y-63205142D01*
X121601000Y-63181250D01*
X121601000Y-62693750D01*
X121602174Y-62669858D01*
X121605684Y-62646197D01*
X121611496Y-62622993D01*
X121619554Y-62600471D01*
X121629782Y-62578847D01*
X121642079Y-62558330D01*
X121656329Y-62539117D01*
X121672393Y-62521393D01*
X121690117Y-62505329D01*
X121709330Y-62491079D01*
X121729847Y-62478782D01*
X121751471Y-62468554D01*
X121773993Y-62460496D01*
X121797197Y-62454684D01*
X121820858Y-62451174D01*
X121844750Y-62450000D01*
X122757250Y-62450000D01*
X122781142Y-62451174D01*
G37*
G04 #@! TD.AperFunction*
G04 #@! TA.AperFunction,SMDPad,CuDef*
G36*
X132128342Y-59012934D02*
G01*
X132152003Y-59016444D01*
X132175207Y-59022256D01*
X132197729Y-59030314D01*
X132219353Y-59040542D01*
X132239870Y-59052839D01*
X132259083Y-59067089D01*
X132276807Y-59083153D01*
X132292871Y-59100877D01*
X132307121Y-59120090D01*
X132319418Y-59140607D01*
X132329646Y-59162231D01*
X132337704Y-59184753D01*
X132343516Y-59207957D01*
X132347026Y-59231618D01*
X132348200Y-59255510D01*
X132348200Y-59743010D01*
X132347026Y-59766902D01*
X132343516Y-59790563D01*
X132337704Y-59813767D01*
X132329646Y-59836289D01*
X132319418Y-59857913D01*
X132307121Y-59878430D01*
X132292871Y-59897643D01*
X132276807Y-59915367D01*
X132259083Y-59931431D01*
X132239870Y-59945681D01*
X132219353Y-59957978D01*
X132197729Y-59968206D01*
X132175207Y-59976264D01*
X132152003Y-59982076D01*
X132128342Y-59985586D01*
X132104450Y-59986760D01*
X131191950Y-59986760D01*
X131168058Y-59985586D01*
X131144397Y-59982076D01*
X131121193Y-59976264D01*
X131098671Y-59968206D01*
X131077047Y-59957978D01*
X131056530Y-59945681D01*
X131037317Y-59931431D01*
X131019593Y-59915367D01*
X131003529Y-59897643D01*
X130989279Y-59878430D01*
X130976982Y-59857913D01*
X130966754Y-59836289D01*
X130958696Y-59813767D01*
X130952884Y-59790563D01*
X130949374Y-59766902D01*
X130948200Y-59743010D01*
X130948200Y-59255510D01*
X130949374Y-59231618D01*
X130952884Y-59207957D01*
X130958696Y-59184753D01*
X130966754Y-59162231D01*
X130976982Y-59140607D01*
X130989279Y-59120090D01*
X131003529Y-59100877D01*
X131019593Y-59083153D01*
X131037317Y-59067089D01*
X131056530Y-59052839D01*
X131077047Y-59040542D01*
X131098671Y-59030314D01*
X131121193Y-59022256D01*
X131144397Y-59016444D01*
X131168058Y-59012934D01*
X131191950Y-59011760D01*
X132104450Y-59011760D01*
X132128342Y-59012934D01*
G37*
G04 #@! TD.AperFunction*
G04 #@! TA.AperFunction,SMDPad,CuDef*
G36*
X132128342Y-60887934D02*
G01*
X132152003Y-60891444D01*
X132175207Y-60897256D01*
X132197729Y-60905314D01*
X132219353Y-60915542D01*
X132239870Y-60927839D01*
X132259083Y-60942089D01*
X132276807Y-60958153D01*
X132292871Y-60975877D01*
X132307121Y-60995090D01*
X132319418Y-61015607D01*
X132329646Y-61037231D01*
X132337704Y-61059753D01*
X132343516Y-61082957D01*
X132347026Y-61106618D01*
X132348200Y-61130510D01*
X132348200Y-61618010D01*
X132347026Y-61641902D01*
X132343516Y-61665563D01*
X132337704Y-61688767D01*
X132329646Y-61711289D01*
X132319418Y-61732913D01*
X132307121Y-61753430D01*
X132292871Y-61772643D01*
X132276807Y-61790367D01*
X132259083Y-61806431D01*
X132239870Y-61820681D01*
X132219353Y-61832978D01*
X132197729Y-61843206D01*
X132175207Y-61851264D01*
X132152003Y-61857076D01*
X132128342Y-61860586D01*
X132104450Y-61861760D01*
X131191950Y-61861760D01*
X131168058Y-61860586D01*
X131144397Y-61857076D01*
X131121193Y-61851264D01*
X131098671Y-61843206D01*
X131077047Y-61832978D01*
X131056530Y-61820681D01*
X131037317Y-61806431D01*
X131019593Y-61790367D01*
X131003529Y-61772643D01*
X130989279Y-61753430D01*
X130976982Y-61732913D01*
X130966754Y-61711289D01*
X130958696Y-61688767D01*
X130952884Y-61665563D01*
X130949374Y-61641902D01*
X130948200Y-61618010D01*
X130948200Y-61130510D01*
X130949374Y-61106618D01*
X130952884Y-61082957D01*
X130958696Y-61059753D01*
X130966754Y-61037231D01*
X130976982Y-61015607D01*
X130989279Y-60995090D01*
X131003529Y-60975877D01*
X131019593Y-60958153D01*
X131037317Y-60942089D01*
X131056530Y-60927839D01*
X131077047Y-60915542D01*
X131098671Y-60905314D01*
X131121193Y-60897256D01*
X131144397Y-60891444D01*
X131168058Y-60887934D01*
X131191950Y-60886760D01*
X132104450Y-60886760D01*
X132128342Y-60887934D01*
G37*
G04 #@! TD.AperFunction*
D29*
X167505380Y-42268140D03*
X167505380Y-46007020D03*
X169743120Y-76809600D03*
X158490920Y-46639480D03*
X158460440Y-40406320D03*
X131142740Y-63385700D03*
X151150320Y-46842680D03*
X120670320Y-63022480D03*
X120065800Y-55407560D03*
X121432320Y-69174360D03*
X128625600Y-69215000D03*
X137746740Y-53378100D03*
X140375640Y-53375560D03*
X136622360Y-62483160D03*
X135082280Y-70520560D03*
X158281440Y-50165000D03*
X162473640Y-46116240D03*
X150357840Y-70906640D03*
X162362520Y-41950000D03*
X126405640Y-67096640D03*
X118262400Y-66700400D03*
X147228560Y-76281280D03*
X128534160Y-65648840D03*
X117281960Y-65643760D03*
X144068800Y-76311760D03*
X139763360Y-48625760D03*
X145282920Y-48564800D03*
X133517640Y-48625760D03*
X143069120Y-44583160D03*
X141330680Y-44566840D03*
X155442920Y-75803760D03*
X140995400Y-75295760D03*
X159400240Y-77627480D03*
X141371320Y-69702680D03*
D30*
X139019120Y-47045000D02*
X139569120Y-47045000D01*
X138499120Y-47033720D02*
X138521440Y-47056040D01*
X138499120Y-46130000D02*
X138499120Y-47033720D01*
X138364120Y-47045000D02*
X138521440Y-47056040D01*
X138521440Y-47056040D02*
X139019120Y-47045000D01*
X135972360Y-58403720D02*
X135966200Y-58409880D01*
X135972360Y-57278720D02*
X135972360Y-58403720D01*
X135966200Y-58409880D02*
X135966200Y-59496960D01*
X136626600Y-57358280D02*
X136626600Y-59496960D01*
X136622360Y-57354040D02*
X136626600Y-57358280D01*
X136622360Y-57278720D02*
X136622360Y-57354040D01*
X141172360Y-58883120D02*
X141172360Y-57278720D01*
X140556220Y-59499260D02*
X141172360Y-58883120D01*
X139222360Y-59476760D02*
X139197080Y-59502040D01*
X139222360Y-57278720D02*
X139222360Y-59476760D01*
X138572360Y-59502160D02*
X138572240Y-59502040D01*
X138572360Y-64478720D02*
X138572360Y-59502160D01*
X141172360Y-56153720D02*
X141173200Y-56152880D01*
X141172360Y-57278720D02*
X141172360Y-56153720D01*
X141173200Y-56152880D02*
X141173200Y-55905400D01*
X139313920Y-54046120D02*
X139313920Y-52003540D01*
X141173200Y-55905400D02*
X139313920Y-54046120D01*
X147437480Y-41950000D02*
X147139120Y-41950000D01*
D31*
X147139120Y-41950000D02*
X148139120Y-41950000D01*
X122301000Y-61062500D02*
X123417700Y-62179200D01*
X128968260Y-62179200D02*
X129921000Y-61226460D01*
X130579100Y-59499260D02*
X131648200Y-59499260D01*
X129921000Y-61226460D02*
X129921000Y-60157360D01*
X129921000Y-60157360D02*
X130579100Y-59499260D01*
D30*
X125892560Y-61528960D02*
X125907800Y-61513720D01*
X125892560Y-62179200D02*
X125892560Y-61528960D01*
X125907800Y-61513720D02*
X125907800Y-60816600D01*
D31*
X123417700Y-62179200D02*
X125892560Y-62179200D01*
D30*
X126989840Y-62179200D02*
X126907800Y-62097160D01*
X126907800Y-62097160D02*
X126907800Y-60816600D01*
D31*
X126989840Y-62179200D02*
X128968260Y-62179200D01*
X125892560Y-62179200D02*
X126989840Y-62179200D01*
X147067220Y-59499260D02*
X131648200Y-59499260D01*
X147139120Y-59571160D02*
X147067220Y-59499260D01*
X147139120Y-56034400D02*
X147139120Y-59571160D01*
X147037220Y-52001660D02*
X144063720Y-52001660D01*
X147139120Y-52103560D02*
X147037220Y-52001660D01*
X147139120Y-52103560D02*
X147139120Y-56034400D01*
X147139120Y-46130000D02*
X147139120Y-52103560D01*
X146224120Y-47045000D02*
X147139120Y-46130000D01*
X146069120Y-47045000D02*
X146224120Y-47045000D01*
X147139120Y-41950000D02*
X147139120Y-46130000D01*
X138499120Y-41950000D02*
X138499120Y-46130000D01*
X137499120Y-46130000D02*
X138499120Y-46130000D01*
X135610600Y-48018520D02*
X137499120Y-46130000D01*
X135610600Y-50182540D02*
X135610600Y-48018520D01*
X139414120Y-47045000D02*
X138499120Y-46130000D01*
X139569120Y-47045000D02*
X139414120Y-47045000D01*
D30*
X135610600Y-50182540D02*
X136496820Y-50182540D01*
X138317820Y-52003540D02*
X139313920Y-52003540D01*
X136496820Y-50182540D02*
X138317820Y-52003540D01*
D32*
X169961560Y-70222000D02*
X169961560Y-68222000D01*
X169889680Y-60722000D02*
X162461560Y-60722000D01*
X169961560Y-60650120D02*
X169889680Y-60722000D01*
X169961560Y-60650120D02*
X169961560Y-53222000D01*
X169961560Y-68222000D02*
X169961560Y-60650120D01*
D31*
X168299740Y-43062500D02*
X172308520Y-43062500D01*
X147166520Y-56007000D02*
X152451560Y-56007000D01*
X147139120Y-56034400D02*
X147166520Y-56007000D01*
X147132040Y-59578240D02*
X147132040Y-61287420D01*
X147139120Y-59571160D02*
X147132040Y-59578240D01*
X167505380Y-42268140D02*
X168299740Y-43062500D01*
X167462400Y-46050000D02*
X167505380Y-46007020D01*
X165630760Y-46050000D02*
X167462400Y-46050000D01*
X122301000Y-60309760D02*
X122128280Y-60482480D01*
X122301000Y-60309760D02*
X122301000Y-61062500D01*
X122128280Y-60482480D02*
X114936080Y-60482480D01*
X122301000Y-59001900D02*
X122301000Y-60309760D01*
D32*
X169961560Y-76591160D02*
X169743120Y-76809600D01*
X169961560Y-70222000D02*
X169961560Y-76591160D01*
D31*
X169961560Y-51722000D02*
X169971720Y-51711840D01*
X169961560Y-53222000D02*
X169961560Y-51722000D01*
X169971720Y-48473360D02*
X167505380Y-46007020D01*
X169971720Y-51711840D02*
X169971720Y-48473360D01*
X167187240Y-41950000D02*
X167505380Y-42268140D01*
X165630760Y-41950000D02*
X167187240Y-41950000D01*
X156466440Y-41950000D02*
X156516440Y-41950000D01*
X149712680Y-40406320D02*
X149362160Y-40756840D01*
X165630760Y-41000000D02*
X165037080Y-40406320D01*
X148139120Y-41950000D02*
X149362160Y-40756840D01*
X165630760Y-41950000D02*
X165630760Y-41000000D01*
X156466440Y-40591840D02*
X156466440Y-41950000D01*
X156651960Y-40406320D02*
X156466440Y-40591840D01*
X156651960Y-40406320D02*
X149712680Y-40406320D01*
X165037080Y-40406320D02*
X158460440Y-40406320D01*
X157466440Y-46050000D02*
X157466640Y-46050200D01*
X156466440Y-46050000D02*
X157466440Y-46050000D01*
X157466640Y-46050200D02*
X157901640Y-46050200D01*
X157901640Y-46050200D02*
X158490920Y-46639480D01*
X158490920Y-46639480D02*
X158490920Y-46639480D01*
X158460440Y-40406320D02*
X156651960Y-40406320D01*
X169336720Y-44937500D02*
X172308520Y-44937500D01*
X122301000Y-62937500D02*
X122786527Y-63423027D01*
D30*
X125917187Y-64352667D02*
X125907800Y-64362054D01*
X125907800Y-64362054D02*
X125907800Y-65116600D01*
X125917187Y-63423027D02*
X125917187Y-64352667D01*
D31*
X122786527Y-63423027D02*
X125917187Y-63423027D01*
X131648200Y-61374260D02*
X131162673Y-61859787D01*
X131162673Y-61859787D02*
X131162673Y-63365767D01*
X131105413Y-63423027D02*
X131142740Y-63385700D01*
X131142740Y-63385700D02*
X131162673Y-63365767D01*
X151135080Y-46827440D02*
X151150320Y-46842680D01*
X151135080Y-44937500D02*
X151135080Y-46827440D01*
X129783067Y-63423027D02*
X131105413Y-63423027D01*
X125917187Y-63423027D02*
X129783067Y-63423027D01*
X129783067Y-63423027D02*
X129783067Y-74792067D01*
X133211690Y-78220690D02*
X135914250Y-78220690D01*
X129783067Y-74792067D02*
X133211690Y-78220690D01*
X122216020Y-63022480D02*
X122301000Y-62937500D01*
X118246080Y-63022480D02*
X120670320Y-63022480D01*
X120670320Y-63022480D02*
X122216020Y-63022480D01*
X121785140Y-57126900D02*
X120065800Y-55407560D01*
X122301000Y-57126900D02*
X121785140Y-57126900D01*
X144068800Y-73062860D02*
X147203160Y-73062860D01*
X143532620Y-73062860D02*
X143499840Y-73030080D01*
X142363070Y-78220690D02*
X142363070Y-73608050D01*
X135914250Y-78220690D02*
X142363070Y-78220690D01*
X142363070Y-73608050D02*
X142864840Y-73106280D01*
X142908260Y-73062860D02*
X142864840Y-73106280D01*
X144068800Y-73062860D02*
X142908260Y-73062860D01*
X162382160Y-83632000D02*
X166000000Y-83632000D01*
X160477160Y-83632000D02*
X162382160Y-83632000D01*
X142363070Y-78220690D02*
X155065850Y-78220690D01*
X155065850Y-78220690D02*
X160477160Y-83632000D01*
X160314640Y-46944280D02*
X160314640Y-44937500D01*
X166801800Y-48625760D02*
X161996120Y-48625760D01*
X168691560Y-53222000D02*
X168691560Y-50515520D01*
X161996120Y-48625760D02*
X160314640Y-46944280D01*
X168691560Y-50515520D02*
X166801800Y-48625760D01*
X151835080Y-44937500D02*
X152566420Y-44206160D01*
X151135080Y-44937500D02*
X151835080Y-44937500D01*
X152566420Y-44206160D02*
X158460440Y-44206160D01*
X159191780Y-44937500D02*
X160314640Y-44937500D01*
X158460440Y-44206160D02*
X159191780Y-44937500D01*
X161014640Y-44937500D02*
X161806940Y-44145200D01*
X160314640Y-44937500D02*
X161014640Y-44937500D01*
X161806940Y-44145200D02*
X167472360Y-44145200D01*
X168264660Y-44937500D02*
X169336720Y-44937500D01*
X167472360Y-44145200D02*
X168264660Y-44937500D01*
X166151560Y-73921380D02*
X166131240Y-73941700D01*
X166151560Y-70222000D02*
X166151560Y-73921380D01*
X164881560Y-71482980D02*
X162422840Y-73941700D01*
X164881560Y-70222000D02*
X164881560Y-71482980D01*
D30*
X124977720Y-42498280D02*
X124028200Y-43447800D01*
X126227720Y-42498280D02*
X124977720Y-42498280D01*
X124028200Y-43447800D02*
X124028200Y-58983880D01*
X124907800Y-59863480D02*
X124907800Y-60816600D01*
X124028200Y-58983880D02*
X124907800Y-59863480D01*
D33*
X142687040Y-122194320D02*
X138231880Y-117739160D01*
X160284160Y-122194320D02*
X163052760Y-119425720D01*
X142687040Y-122194320D02*
X160284160Y-122194320D01*
D30*
X123195080Y-68686380D02*
X123195080Y-69173880D01*
X123195080Y-66454320D02*
X123195080Y-68686380D01*
X124532800Y-65116600D02*
X123195080Y-66454320D01*
X124907800Y-65116600D02*
X124532800Y-65116600D01*
D31*
X127837160Y-69207140D02*
X127845020Y-69215000D01*
X127137160Y-69207140D02*
X127837160Y-69207140D01*
X127845020Y-69215000D02*
X128625600Y-69215000D01*
X122495080Y-69173880D02*
X122494600Y-69174360D01*
X123195080Y-69173880D02*
X122495080Y-69173880D01*
X122494600Y-69174360D02*
X121432320Y-69174360D01*
X121432320Y-69174360D02*
X121432320Y-69174360D01*
X128625600Y-69215000D02*
X128625600Y-69215000D01*
D30*
X125407800Y-65116600D02*
X125407800Y-69699760D01*
X124058680Y-71048880D02*
X123195080Y-71048880D01*
X125407800Y-69699760D02*
X124058680Y-71048880D01*
D32*
X123195080Y-83036920D02*
X122600000Y-83632000D01*
X123195080Y-71048880D02*
X123195080Y-83036920D01*
D30*
X125407800Y-60016600D02*
X128640840Y-56783560D01*
X125407800Y-60816600D02*
X125407800Y-60016600D01*
X128640840Y-56783560D02*
X128640840Y-50520600D01*
X127818520Y-49698280D02*
X126227720Y-49698280D01*
X128640840Y-50520600D02*
X127818520Y-49698280D01*
X136310600Y-52057540D02*
X135610600Y-52057540D01*
X140522360Y-56153720D02*
X137746740Y-53378100D01*
X136426180Y-52057540D02*
X136310600Y-52057540D01*
X140522360Y-57278720D02*
X140522360Y-56153720D01*
X137746740Y-53378100D02*
X136426180Y-52057540D01*
X141822360Y-57278720D02*
X141822360Y-55503000D01*
X141822360Y-55503000D02*
X140375640Y-54056280D01*
X140375640Y-54056280D02*
X140375640Y-53375560D01*
X140375640Y-53375560D02*
X140375640Y-53375560D01*
X136622360Y-64478720D02*
X136622360Y-62483160D01*
X136622360Y-62483160D02*
X136622360Y-62483160D01*
D33*
X120661600Y-110688120D02*
X144637760Y-110688120D01*
X115731880Y-117739160D02*
X115731880Y-115617840D01*
X115731880Y-115617840D02*
X120661600Y-110688120D01*
X145069560Y-110256320D02*
X144637760Y-110688120D01*
X145069560Y-103632000D02*
X145069560Y-110256320D01*
X145069560Y-103632000D02*
X151000000Y-103632000D01*
X137600000Y-103632000D02*
X145069560Y-103632000D01*
X145150001Y-110336761D02*
X145069560Y-110256320D01*
X145150001Y-114095961D02*
X145150001Y-110336761D01*
X146050000Y-114995960D02*
X145150001Y-114095961D01*
X171000000Y-102602880D02*
X171000000Y-103632000D01*
X165105080Y-96707960D02*
X171000000Y-102602880D01*
X117600000Y-103632000D02*
X124524040Y-96707960D01*
X124524040Y-96707960D02*
X165105080Y-96707960D01*
X157911800Y-111429800D02*
X170703240Y-111429800D01*
X171000000Y-111133040D02*
X171000000Y-103632000D01*
X170703240Y-111429800D02*
X171000000Y-111133040D01*
X153550000Y-116395960D02*
X153550000Y-114094880D01*
X156215080Y-111429800D02*
X157911800Y-111429800D01*
X153550000Y-114094880D02*
X156215080Y-111429800D01*
X170856960Y-119121520D02*
X170552760Y-119425720D01*
X170703240Y-111429800D02*
X170856960Y-111429800D01*
X170856960Y-111429800D02*
X170856960Y-119121520D01*
D30*
X158281440Y-50165000D02*
X158281440Y-50165000D01*
X135082280Y-70520560D02*
X135082280Y-70520560D01*
D31*
X134710680Y-70892160D02*
X135082280Y-70520560D01*
X133710680Y-70892160D02*
X134710680Y-70892160D01*
X151620607Y-42572553D02*
X152262840Y-41930320D01*
X151620607Y-42576973D02*
X151620607Y-42572553D01*
X151135080Y-43062500D02*
X151620607Y-42576973D01*
D30*
X152262840Y-41930320D02*
X152247580Y-41950000D01*
D31*
X152247580Y-41950000D02*
X154866440Y-41950000D01*
X158031440Y-50165000D02*
X158281440Y-50165000D01*
X167421560Y-51722000D02*
X167421560Y-53222000D01*
X165864560Y-50165000D02*
X167421560Y-51722000D01*
X158281440Y-50165000D02*
X165864560Y-50165000D01*
X149179280Y-48707040D02*
X150637240Y-50165000D01*
X150435080Y-43062500D02*
X150434420Y-43063160D01*
X151135080Y-43062500D02*
X150435080Y-43062500D01*
X150434420Y-43063160D02*
X149682200Y-43063160D01*
X149682200Y-43063160D02*
X149179280Y-43566080D01*
X149179280Y-43566080D02*
X149179280Y-48707040D01*
X154879040Y-50165000D02*
X158281440Y-50165000D01*
X150637240Y-50165000D02*
X154879040Y-50165000D01*
X154866440Y-50152400D02*
X154866440Y-46050000D01*
X154879040Y-50165000D02*
X154866440Y-50152400D01*
X137896560Y-72892160D02*
X134660680Y-72892160D01*
D30*
X134660680Y-72192160D02*
X134660680Y-72892160D01*
X135972360Y-64478720D02*
X135972360Y-70880480D01*
X135972360Y-70880480D02*
X134660680Y-72192160D01*
D31*
X133558960Y-74640440D02*
X138729720Y-74640440D01*
X132760680Y-72892160D02*
X132760680Y-73842160D01*
X132760680Y-73842160D02*
X133558960Y-74640440D01*
D30*
X138804160Y-74584560D02*
X138729720Y-74640440D01*
D31*
X138804160Y-74584560D02*
X139796560Y-73592160D01*
X139796560Y-73592160D02*
X139796560Y-72892160D01*
D30*
X132760680Y-72192160D02*
X132760680Y-72892160D01*
X132760720Y-68710398D02*
X132760720Y-72192120D01*
X135322360Y-64478720D02*
X135322360Y-66148758D01*
X132760720Y-72192120D02*
X132760680Y-72192160D01*
X135322360Y-66148758D02*
X132760720Y-68710398D01*
D31*
X139746560Y-70892160D02*
X139752400Y-70886320D01*
X138846560Y-70892160D02*
X139746560Y-70892160D01*
X160314640Y-43062500D02*
X161427140Y-41950000D01*
X161427140Y-41950000D02*
X162362520Y-41950000D01*
X162362520Y-41950000D02*
X164030760Y-41950000D01*
X162539880Y-46050000D02*
X162473640Y-46116240D01*
X164030760Y-46050000D02*
X162539880Y-46050000D01*
X152501560Y-70222000D02*
X153451560Y-70222000D01*
X151831400Y-70892160D02*
X152501560Y-70222000D01*
X139746560Y-70892160D02*
X151831400Y-70892160D01*
D30*
X139313920Y-50128540D02*
X140163180Y-50128540D01*
X141069120Y-49222600D02*
X141069120Y-47045000D01*
X140163180Y-50128540D02*
X141069120Y-49222600D01*
X144063720Y-47050400D02*
X144069120Y-47045000D01*
X144063720Y-50126660D02*
X144063720Y-47050400D01*
D32*
X132600000Y-79940720D02*
X132600000Y-83632000D01*
X127137160Y-71082140D02*
X127137160Y-74477880D01*
X127137160Y-74477880D02*
X132600000Y-79940720D01*
D31*
X148239000Y-67437000D02*
X152451560Y-67437000D01*
X147132040Y-66330040D02*
X148239000Y-67437000D01*
X147132040Y-63162420D02*
X147132040Y-66330040D01*
D30*
X126407800Y-65635760D02*
X126405640Y-65637920D01*
X126407800Y-65116600D02*
X126407800Y-65635760D01*
X126405640Y-67198240D02*
X126405640Y-67198240D01*
X126407800Y-67094480D02*
X126405640Y-67096640D01*
X126407800Y-65116600D02*
X126407800Y-67094480D01*
D31*
X118246080Y-66716720D02*
X118262400Y-66700400D01*
X118246080Y-68102480D02*
X118246080Y-66716720D01*
X147203160Y-75425360D02*
X147228560Y-75450760D01*
X147203160Y-74937860D02*
X147203160Y-75425360D01*
X147228560Y-75450760D02*
X147228560Y-76281280D01*
X147228560Y-76281280D02*
X147228560Y-76281280D01*
D30*
X163611560Y-70987002D02*
X162249202Y-72349360D01*
X163611560Y-70222000D02*
X163611560Y-70987002D01*
X162249202Y-72349360D02*
X160406080Y-72349360D01*
X157817580Y-74937860D02*
X147203160Y-74937860D01*
X160406080Y-72349360D02*
X157817580Y-74937860D01*
X128001920Y-65116600D02*
X128534160Y-65648840D01*
X126907800Y-65116600D02*
X128001920Y-65116600D01*
D31*
X117200680Y-65562480D02*
X117281960Y-65643760D01*
X114936080Y-65562480D02*
X117200680Y-65562480D01*
X144068800Y-74937860D02*
X144068800Y-75425360D01*
X144068800Y-75425360D02*
X144068800Y-76311760D01*
X144068800Y-76311760D02*
X144068800Y-76311760D01*
D30*
X145227040Y-77470000D02*
X144068800Y-76311760D01*
X155945840Y-77470000D02*
X145227040Y-77470000D01*
X157800040Y-79324200D02*
X155945840Y-77470000D01*
X167421560Y-70222000D02*
X167421560Y-71472000D01*
X168422320Y-72472760D02*
X168422320Y-77073760D01*
X167421560Y-71472000D02*
X168422320Y-72472760D01*
X166171880Y-79324200D02*
X157800040Y-79324200D01*
X168422320Y-77073760D02*
X166171880Y-79324200D01*
X140369120Y-48020000D02*
X139763360Y-48625760D01*
X140369120Y-47045000D02*
X140369120Y-48020000D01*
X139763360Y-48625760D02*
X139763360Y-48625760D01*
X145269120Y-48551000D02*
X145282920Y-48564800D01*
X145269120Y-47045000D02*
X145269120Y-48551000D01*
X139872360Y-56153720D02*
X139872360Y-57278720D01*
X138028920Y-54310280D02*
X139872360Y-56153720D01*
X134650480Y-54310280D02*
X138028920Y-54310280D01*
X134650480Y-54310280D02*
X134650480Y-54305200D01*
X133517640Y-53172360D02*
X133517640Y-48625760D01*
X134650480Y-54305200D02*
X133517640Y-53172360D01*
X142569120Y-48020000D02*
X141752320Y-48836800D01*
X142569120Y-47045000D02*
X142569120Y-48020000D01*
X143569120Y-47045000D02*
X143569120Y-45352400D01*
X142569120Y-47045000D02*
X142569120Y-45749400D01*
X142569120Y-45749400D02*
X142229840Y-45410120D01*
X142229840Y-45410120D02*
X142229840Y-43870880D01*
X142229840Y-43870880D02*
X142737840Y-43362880D01*
X142737840Y-43362880D02*
X143601440Y-43362880D01*
X143601440Y-43362880D02*
X144195800Y-43957240D01*
X144195800Y-44725720D02*
X143569120Y-45352400D01*
X144195800Y-43957240D02*
X144195800Y-44725720D01*
X142472360Y-57278720D02*
X142472360Y-54070200D01*
X141752320Y-53350160D02*
X141752320Y-48836800D01*
X142472360Y-54070200D02*
X141752320Y-53350160D01*
X143069120Y-47045000D02*
X143069120Y-48604360D01*
X143069120Y-48604360D02*
X142514320Y-49159160D01*
X143069120Y-47045000D02*
X143069120Y-44583160D01*
X142069120Y-47027400D02*
X142072360Y-47024160D01*
X142069120Y-47045000D02*
X142069120Y-47027400D01*
X143069120Y-44583160D02*
X143069120Y-44583160D01*
X141330680Y-45331560D02*
X141330680Y-44566840D01*
X142069120Y-47045000D02*
X142069120Y-46070000D01*
X142069120Y-46070000D02*
X141330680Y-45331560D01*
X142514320Y-49159160D02*
X142514320Y-52969160D01*
X143122360Y-53577200D02*
X143122360Y-57278720D01*
X142514320Y-52969160D02*
X143122360Y-53577200D01*
X155455860Y-75816700D02*
X155442920Y-75803760D01*
X162422840Y-75816700D02*
X155455860Y-75816700D01*
X140385800Y-75905360D02*
X140995400Y-75295760D01*
X134197360Y-64478720D02*
X131262120Y-67413960D01*
X132420360Y-75905360D02*
X140385800Y-75905360D01*
X134672360Y-64478720D02*
X134197360Y-64478720D01*
X131262120Y-67413960D02*
X131262120Y-74747120D01*
X131262120Y-74747120D02*
X132420360Y-75905360D01*
D31*
X159400240Y-77627480D02*
X159400240Y-77627480D01*
D30*
X137272360Y-65603720D02*
X141371320Y-69702680D01*
X137272360Y-64478720D02*
X137272360Y-65603720D01*
X141371320Y-69702680D02*
X141371320Y-69702680D01*
X164320460Y-77627480D02*
X166131240Y-75816700D01*
X159400240Y-77627480D02*
X164320460Y-77627480D01*
D34*
G36*
X169773001Y-76099082D02*
G01*
X169767064Y-76159360D01*
X169790755Y-76399894D01*
X169860916Y-76631184D01*
X169881156Y-76669051D01*
X169880280Y-77759458D01*
X169882700Y-77784236D01*
X169889908Y-77808067D01*
X169901627Y-77830033D01*
X169917405Y-77849290D01*
X169936638Y-77865100D01*
X169958585Y-77876854D01*
X169982403Y-77884100D01*
X170007280Y-77886560D01*
X176327117Y-77886560D01*
X176341721Y-83718229D01*
X168377000Y-83707528D01*
X168377000Y-83397886D01*
X168285653Y-82938655D01*
X168106470Y-82506068D01*
X167846336Y-82116751D01*
X167515249Y-81785664D01*
X167125932Y-81525530D01*
X166693345Y-81346347D01*
X166234114Y-81255000D01*
X165765886Y-81255000D01*
X165306655Y-81346347D01*
X164874068Y-81525530D01*
X164484751Y-81785664D01*
X164153664Y-82116751D01*
X164061289Y-82255000D01*
X161047532Y-82255000D01*
X159368732Y-80576200D01*
X166110384Y-80576200D01*
X166171880Y-80582257D01*
X166233376Y-80576200D01*
X166233378Y-80576200D01*
X166417315Y-80558084D01*
X166653318Y-80486493D01*
X166870819Y-80370236D01*
X167061461Y-80213781D01*
X167100667Y-80166008D01*
X169264128Y-78002547D01*
X169311901Y-77963341D01*
X169468356Y-77772699D01*
X169584613Y-77555198D01*
X169656204Y-77319195D01*
X169674320Y-77135258D01*
X169674320Y-77135256D01*
X169680377Y-77073760D01*
X169674320Y-77012264D01*
X169674320Y-72534255D01*
X169680377Y-72472759D01*
X169672069Y-72388410D01*
X169656204Y-72227325D01*
X169655547Y-72225160D01*
X169770717Y-72163600D01*
X169773001Y-72161726D01*
X169773001Y-76099082D01*
G37*
X169773001Y-76099082D02*
X169767064Y-76159360D01*
X169790755Y-76399894D01*
X169860916Y-76631184D01*
X169881156Y-76669051D01*
X169880280Y-77759458D01*
X169882700Y-77784236D01*
X169889908Y-77808067D01*
X169901627Y-77830033D01*
X169917405Y-77849290D01*
X169936638Y-77865100D01*
X169958585Y-77876854D01*
X169982403Y-77884100D01*
X170007280Y-77886560D01*
X176327117Y-77886560D01*
X176341721Y-83718229D01*
X168377000Y-83707528D01*
X168377000Y-83397886D01*
X168285653Y-82938655D01*
X168106470Y-82506068D01*
X167846336Y-82116751D01*
X167515249Y-81785664D01*
X167125932Y-81525530D01*
X166693345Y-81346347D01*
X166234114Y-81255000D01*
X165765886Y-81255000D01*
X165306655Y-81346347D01*
X164874068Y-81525530D01*
X164484751Y-81785664D01*
X164153664Y-82116751D01*
X164061289Y-82255000D01*
X161047532Y-82255000D01*
X159368732Y-80576200D01*
X166110384Y-80576200D01*
X166171880Y-80582257D01*
X166233376Y-80576200D01*
X166233378Y-80576200D01*
X166417315Y-80558084D01*
X166653318Y-80486493D01*
X166870819Y-80370236D01*
X167061461Y-80213781D01*
X167100667Y-80166008D01*
X169264128Y-78002547D01*
X169311901Y-77963341D01*
X169468356Y-77772699D01*
X169584613Y-77555198D01*
X169656204Y-77319195D01*
X169674320Y-77135258D01*
X169674320Y-77135256D01*
X169680377Y-77073760D01*
X169674320Y-77012264D01*
X169674320Y-72534255D01*
X169680377Y-72472759D01*
X169672069Y-72388410D01*
X169656204Y-72227325D01*
X169655547Y-72225160D01*
X169770717Y-72163600D01*
X169773001Y-72161726D01*
X169773001Y-76099082D01*
G36*
X142363070Y-79604352D02*
G01*
X142430709Y-79597690D01*
X154495479Y-79597690D01*
X156844583Y-81946795D01*
X156675874Y-81862567D01*
X156317688Y-81764710D01*
X155947294Y-81738611D01*
X155578925Y-81785275D01*
X155226738Y-81902906D01*
X154991914Y-82028423D01*
X154866000Y-82318395D01*
X156000000Y-83452395D01*
X156014143Y-83438253D01*
X156193748Y-83617858D01*
X156179605Y-83632000D01*
X156193748Y-83646143D01*
X156148792Y-83691098D01*
X155850808Y-83690698D01*
X155806253Y-83646143D01*
X155820395Y-83632000D01*
X154686395Y-82498000D01*
X154396423Y-82623914D01*
X154230567Y-82956126D01*
X154132710Y-83314312D01*
X154106611Y-83684706D01*
X154107073Y-83688355D01*
X134977000Y-83662653D01*
X134977000Y-83397886D01*
X134885653Y-82938655D01*
X134706470Y-82506068D01*
X134446336Y-82116751D01*
X134227000Y-81897415D01*
X134227000Y-80020634D01*
X134234871Y-79940719D01*
X134227000Y-79860805D01*
X134227000Y-79860795D01*
X134203458Y-79621772D01*
X134196153Y-79597690D01*
X142295430Y-79597690D01*
X142363070Y-79604352D01*
G37*
X142363070Y-79604352D02*
X142430709Y-79597690D01*
X154495479Y-79597690D01*
X156844583Y-81946795D01*
X156675874Y-81862567D01*
X156317688Y-81764710D01*
X155947294Y-81738611D01*
X155578925Y-81785275D01*
X155226738Y-81902906D01*
X154991914Y-82028423D01*
X154866000Y-82318395D01*
X156000000Y-83452395D01*
X156014143Y-83438253D01*
X156193748Y-83617858D01*
X156179605Y-83632000D01*
X156193748Y-83646143D01*
X156148792Y-83691098D01*
X155850808Y-83690698D01*
X155806253Y-83646143D01*
X155820395Y-83632000D01*
X154686395Y-82498000D01*
X154396423Y-82623914D01*
X154230567Y-82956126D01*
X154132710Y-83314312D01*
X154106611Y-83684706D01*
X154107073Y-83688355D01*
X134977000Y-83662653D01*
X134977000Y-83397886D01*
X134885653Y-82938655D01*
X134706470Y-82506068D01*
X134446336Y-82116751D01*
X134227000Y-81897415D01*
X134227000Y-80020634D01*
X134234871Y-79940719D01*
X134227000Y-79860805D01*
X134227000Y-79860795D01*
X134203458Y-79621772D01*
X134196153Y-79597690D01*
X142295430Y-79597690D01*
X142363070Y-79604352D01*
G36*
X137974144Y-40635724D02*
G01*
X137786356Y-40757631D01*
X137625959Y-40913831D01*
X137499117Y-41098322D01*
X137410705Y-41304013D01*
X137364120Y-41523000D01*
X137364120Y-41823000D01*
X138372120Y-41823000D01*
X138372120Y-41803000D01*
X138626120Y-41803000D01*
X138626120Y-41823000D01*
X139634120Y-41823000D01*
X139634120Y-41523000D01*
X139587535Y-41304013D01*
X139499123Y-41098322D01*
X139372281Y-40913831D01*
X139211884Y-40757631D01*
X139024096Y-40635724D01*
X138915891Y-40597000D01*
X146722349Y-40597000D01*
X146614144Y-40635724D01*
X146426356Y-40757631D01*
X146265959Y-40913831D01*
X146139117Y-41098322D01*
X146050705Y-41304013D01*
X146004120Y-41523000D01*
X146004120Y-41823000D01*
X147012120Y-41823000D01*
X147012120Y-41803000D01*
X147266120Y-41803000D01*
X147266120Y-41823000D01*
X148274120Y-41823000D01*
X148274120Y-41523000D01*
X148227535Y-41304013D01*
X148139123Y-41098322D01*
X148012281Y-40913831D01*
X147851884Y-40757631D01*
X147664096Y-40635724D01*
X147555891Y-40597000D01*
X151914590Y-40597000D01*
X151733336Y-40651983D01*
X151494120Y-40779848D01*
X151336983Y-40908805D01*
X151297077Y-40948711D01*
X151269183Y-40971603D01*
X151246291Y-40999497D01*
X150803242Y-41442547D01*
X150678830Y-41442547D01*
X150410346Y-41468990D01*
X150152180Y-41547304D01*
X149914253Y-41674479D01*
X149900020Y-41686160D01*
X149749836Y-41686160D01*
X149682199Y-41679498D01*
X149614562Y-41686160D01*
X149614560Y-41686160D01*
X149412261Y-41706085D01*
X149152695Y-41784823D01*
X148913479Y-41912687D01*
X148703803Y-42084763D01*
X148660679Y-42137310D01*
X148253426Y-42544563D01*
X148235312Y-42559429D01*
X148274120Y-42377000D01*
X148274120Y-42077000D01*
X147266120Y-42077000D01*
X147266120Y-43217954D01*
X147440994Y-43344119D01*
X147664096Y-43264276D01*
X147851884Y-43142369D01*
X147875965Y-43118918D01*
X147822205Y-43296141D01*
X147795618Y-43566080D01*
X147802280Y-43633720D01*
X147802280Y-44655430D01*
X147664096Y-44565724D01*
X147440994Y-44485881D01*
X147266120Y-44612046D01*
X147266120Y-46003000D01*
X147286120Y-46003000D01*
X147286120Y-46257000D01*
X147266120Y-46257000D01*
X147266120Y-47647954D01*
X147440994Y-47774119D01*
X147664096Y-47694276D01*
X147802281Y-47604570D01*
X147802281Y-48639391D01*
X147795618Y-48707040D01*
X147822205Y-48976979D01*
X147900943Y-49236544D01*
X147964933Y-49356260D01*
X148028808Y-49475761D01*
X148200884Y-49685437D01*
X148253425Y-49728556D01*
X149615723Y-51090855D01*
X149658843Y-51143397D01*
X149868519Y-51315473D01*
X150010864Y-51391558D01*
X150107735Y-51443337D01*
X150367300Y-51522075D01*
X150637240Y-51548662D01*
X150704880Y-51542000D01*
X152101686Y-51542000D01*
X152059960Y-51592843D01*
X151955310Y-51788629D01*
X151890867Y-52001069D01*
X151869107Y-52222000D01*
X151869107Y-54222000D01*
X151890867Y-54442931D01*
X151955310Y-54655371D01*
X152059960Y-54851157D01*
X152117930Y-54921794D01*
X151451560Y-54918928D01*
X151327078Y-54931188D01*
X151207380Y-54967498D01*
X151097066Y-55026463D01*
X151000375Y-55105815D01*
X150921023Y-55202506D01*
X150862058Y-55312820D01*
X150825748Y-55432518D01*
X150813488Y-55557000D01*
X150816560Y-55721250D01*
X150925567Y-55830257D01*
X150832509Y-55879998D01*
X150816560Y-55879998D01*
X150816560Y-55890195D01*
X150650795Y-56026235D01*
X150509960Y-56197843D01*
X150405310Y-56393629D01*
X150340867Y-56606069D01*
X150319107Y-56827000D01*
X150319107Y-57727000D01*
X150337328Y-57912000D01*
X150319107Y-58097000D01*
X150319107Y-58997000D01*
X150337328Y-59182000D01*
X150319107Y-59367000D01*
X150319107Y-60267000D01*
X150337328Y-60452000D01*
X150319107Y-60637000D01*
X150319107Y-61537000D01*
X150337328Y-61722000D01*
X150319107Y-61907000D01*
X150319107Y-62807000D01*
X150337328Y-62992000D01*
X150319107Y-63177000D01*
X150319107Y-64077000D01*
X150337328Y-64262000D01*
X150319107Y-64447000D01*
X150319107Y-65347000D01*
X150337328Y-65532000D01*
X150319107Y-65717000D01*
X150319107Y-66060000D01*
X148809372Y-66060000D01*
X148509040Y-65759669D01*
X148509040Y-64422273D01*
X148561412Y-64379292D01*
X148732561Y-64170747D01*
X148859736Y-63932820D01*
X148938050Y-63674654D01*
X148964493Y-63406170D01*
X148964493Y-62918670D01*
X148938050Y-62650186D01*
X148859736Y-62392020D01*
X148732561Y-62154093D01*
X148561412Y-61945548D01*
X148461392Y-61863463D01*
X148470112Y-61774920D01*
X148467040Y-61573170D01*
X148308290Y-61414420D01*
X147259040Y-61414420D01*
X147259040Y-61434420D01*
X147005040Y-61434420D01*
X147005040Y-61414420D01*
X145955790Y-61414420D01*
X145797040Y-61573170D01*
X145793968Y-61774920D01*
X145802688Y-61863463D01*
X145702668Y-61945548D01*
X145531519Y-62154093D01*
X145404344Y-62392020D01*
X145326030Y-62650186D01*
X145299587Y-62918670D01*
X145299587Y-63406170D01*
X145326030Y-63674654D01*
X145404344Y-63932820D01*
X145531519Y-64170747D01*
X145702668Y-64379292D01*
X145755040Y-64422273D01*
X145755041Y-66262391D01*
X145748378Y-66330040D01*
X145774965Y-66599979D01*
X145853703Y-66859544D01*
X145912925Y-66970339D01*
X145981568Y-67098761D01*
X146153644Y-67308437D01*
X146206185Y-67351556D01*
X147217483Y-68362855D01*
X147260603Y-68415397D01*
X147470279Y-68587473D01*
X147700255Y-68710398D01*
X147709495Y-68715337D01*
X147969060Y-68794075D01*
X148239000Y-68820662D01*
X148306640Y-68814000D01*
X150804613Y-68814000D01*
X150822403Y-68828600D01*
X151018189Y-68933250D01*
X151230629Y-68997693D01*
X151451560Y-69019453D01*
X151830262Y-69019453D01*
X151732839Y-69071527D01*
X151523163Y-69243603D01*
X151480039Y-69296150D01*
X151261029Y-69515160D01*
X150988755Y-69515160D01*
X150803250Y-69438321D01*
X150508236Y-69379640D01*
X150207444Y-69379640D01*
X149912430Y-69438321D01*
X149726925Y-69515160D01*
X142890936Y-69515160D01*
X142839639Y-69257270D01*
X142724530Y-68979374D01*
X142557419Y-68729274D01*
X142344726Y-68516581D01*
X142094626Y-68349470D01*
X141816730Y-68234361D01*
X141638056Y-68198821D01*
X139925408Y-66486173D01*
X140097360Y-66486173D01*
X140197360Y-66476324D01*
X140297360Y-66486173D01*
X140747360Y-66486173D01*
X140847360Y-66476324D01*
X140947360Y-66486173D01*
X141397360Y-66486173D01*
X141497360Y-66476324D01*
X141597360Y-66486173D01*
X142047360Y-66486173D01*
X142147360Y-66476324D01*
X142247360Y-66486173D01*
X142697360Y-66486173D01*
X142797360Y-66476324D01*
X142897360Y-66486173D01*
X143347360Y-66486173D01*
X143568291Y-66464413D01*
X143780731Y-66399970D01*
X143976517Y-66295320D01*
X144148125Y-66154485D01*
X144288960Y-65982877D01*
X144393610Y-65787091D01*
X144458053Y-65574651D01*
X144479813Y-65353720D01*
X144479813Y-63603720D01*
X144458053Y-63382789D01*
X144393610Y-63170349D01*
X144288960Y-62974563D01*
X144148125Y-62802955D01*
X143976517Y-62662120D01*
X143780731Y-62557470D01*
X143568291Y-62493027D01*
X143347360Y-62471267D01*
X142897360Y-62471267D01*
X142797360Y-62481116D01*
X142697360Y-62471267D01*
X142247360Y-62471267D01*
X142147360Y-62481116D01*
X142047360Y-62471267D01*
X141597360Y-62471267D01*
X141497360Y-62481116D01*
X141397360Y-62471267D01*
X140947360Y-62471267D01*
X140847360Y-62481116D01*
X140747360Y-62471267D01*
X140297360Y-62471267D01*
X140197360Y-62481116D01*
X140097360Y-62471267D01*
X139647360Y-62471267D01*
X139547360Y-62481116D01*
X139447360Y-62471267D01*
X138997360Y-62471267D01*
X138776429Y-62493027D01*
X138572360Y-62554931D01*
X138368291Y-62493027D01*
X138149360Y-62471464D01*
X138149360Y-62332764D01*
X138090679Y-62037750D01*
X137975570Y-61759854D01*
X137808459Y-61509754D01*
X137595766Y-61297061D01*
X137345666Y-61129950D01*
X137067770Y-61014841D01*
X136772756Y-60956160D01*
X136471964Y-60956160D01*
X136176950Y-61014841D01*
X135899054Y-61129950D01*
X135648954Y-61297061D01*
X135436261Y-61509754D01*
X135269150Y-61759854D01*
X135154041Y-62037750D01*
X135095360Y-62332764D01*
X135095360Y-62471464D01*
X134997360Y-62481116D01*
X134897360Y-62471267D01*
X134447360Y-62471267D01*
X134226429Y-62493027D01*
X134013989Y-62557470D01*
X133818203Y-62662120D01*
X133646595Y-62802955D01*
X133505760Y-62974563D01*
X133401110Y-63170349D01*
X133336667Y-63382789D01*
X133317096Y-63581493D01*
X133307779Y-63589139D01*
X133268577Y-63636907D01*
X131160067Y-65745418D01*
X131160067Y-64912700D01*
X131293136Y-64912700D01*
X131588150Y-64854019D01*
X131866046Y-64738910D01*
X132116146Y-64571799D01*
X132328839Y-64359106D01*
X132495950Y-64109006D01*
X132611059Y-63831110D01*
X132669740Y-63536096D01*
X132669740Y-63235304D01*
X132611059Y-62940290D01*
X132594590Y-62900531D01*
X132631100Y-62889456D01*
X132869027Y-62762281D01*
X133077572Y-62591132D01*
X133248721Y-62382587D01*
X133375896Y-62144660D01*
X133454210Y-61886494D01*
X133480653Y-61618010D01*
X133480653Y-61130510D01*
X133454210Y-60862026D01*
X133435371Y-60799920D01*
X145793968Y-60799920D01*
X145797040Y-61001670D01*
X145955790Y-61160420D01*
X147005040Y-61160420D01*
X147005040Y-60323670D01*
X147259040Y-60323670D01*
X147259040Y-61160420D01*
X148308290Y-61160420D01*
X148467040Y-61001670D01*
X148470112Y-60799920D01*
X148457852Y-60675438D01*
X148421542Y-60555740D01*
X148362577Y-60445426D01*
X148283225Y-60348735D01*
X148186534Y-60269383D01*
X148076220Y-60210418D01*
X147956522Y-60174108D01*
X147832040Y-60161848D01*
X147417790Y-60164920D01*
X147259040Y-60323670D01*
X147005040Y-60323670D01*
X146846290Y-60164920D01*
X146432040Y-60161848D01*
X146307558Y-60174108D01*
X146187860Y-60210418D01*
X146077546Y-60269383D01*
X145980855Y-60348735D01*
X145901503Y-60445426D01*
X145842538Y-60555740D01*
X145806228Y-60675438D01*
X145793968Y-60799920D01*
X133435371Y-60799920D01*
X133375896Y-60603860D01*
X133248721Y-60365933D01*
X133077572Y-60157388D01*
X132977552Y-60075303D01*
X132986272Y-59986760D01*
X132983200Y-59785010D01*
X132824450Y-59626260D01*
X131775200Y-59626260D01*
X131775200Y-59646260D01*
X131521200Y-59646260D01*
X131521200Y-59626260D01*
X130471950Y-59626260D01*
X130313200Y-59785010D01*
X130310128Y-59986760D01*
X130318848Y-60075303D01*
X130218828Y-60157388D01*
X130047679Y-60365933D01*
X129920504Y-60603860D01*
X129842190Y-60862026D01*
X129815747Y-61130510D01*
X129815747Y-61556391D01*
X129805598Y-61589848D01*
X129779011Y-61859787D01*
X129785673Y-61927427D01*
X129785673Y-62039622D01*
X129783067Y-62039365D01*
X129715427Y-62046027D01*
X127433144Y-62046027D01*
X127474400Y-61995757D01*
X127579050Y-61799971D01*
X127643493Y-61587531D01*
X127650591Y-61515463D01*
X127660914Y-61478887D01*
X127670751Y-61354190D01*
X127667800Y-61102350D01*
X127665253Y-61099803D01*
X127665253Y-60533397D01*
X127667800Y-60530850D01*
X127670751Y-60279010D01*
X127660914Y-60154313D01*
X127650591Y-60117737D01*
X127643493Y-60045669D01*
X127579050Y-59833229D01*
X127503364Y-59691631D01*
X128183235Y-59011760D01*
X130310128Y-59011760D01*
X130313200Y-59213510D01*
X130471950Y-59372260D01*
X131521200Y-59372260D01*
X131521200Y-58535510D01*
X131775200Y-58535510D01*
X131775200Y-59372260D01*
X132824450Y-59372260D01*
X132983200Y-59213510D01*
X132986272Y-59011760D01*
X132974012Y-58887278D01*
X132937702Y-58767580D01*
X132878737Y-58657266D01*
X132799385Y-58560575D01*
X132702694Y-58481223D01*
X132592380Y-58422258D01*
X132472682Y-58385948D01*
X132348200Y-58373688D01*
X131933950Y-58376760D01*
X131775200Y-58535510D01*
X131521200Y-58535510D01*
X131362450Y-58376760D01*
X130948200Y-58373688D01*
X130823718Y-58385948D01*
X130704020Y-58422258D01*
X130593706Y-58481223D01*
X130497015Y-58560575D01*
X130417663Y-58657266D01*
X130358698Y-58767580D01*
X130322388Y-58887278D01*
X130310128Y-59011760D01*
X128183235Y-59011760D01*
X129482654Y-57712342D01*
X129530421Y-57673141D01*
X129569623Y-57625373D01*
X129686876Y-57482500D01*
X129803133Y-57264998D01*
X129836379Y-57155400D01*
X129874724Y-57028995D01*
X129892840Y-56845058D01*
X129892840Y-56845057D01*
X129898897Y-56783561D01*
X129892840Y-56722065D01*
X129892840Y-50582095D01*
X129898897Y-50520599D01*
X129890460Y-50434939D01*
X129874724Y-50275165D01*
X129803133Y-50039162D01*
X129790660Y-50015827D01*
X129686876Y-49821660D01*
X129603109Y-49719590D01*
X129530421Y-49631019D01*
X129482648Y-49591813D01*
X128747307Y-48856472D01*
X128708101Y-48808699D01*
X128517459Y-48652244D01*
X128299958Y-48535987D01*
X128278378Y-48529441D01*
X128273970Y-48514909D01*
X128252833Y-48475364D01*
X131990640Y-48475364D01*
X131990640Y-48776156D01*
X132049321Y-49071170D01*
X132164430Y-49349066D01*
X132265641Y-49500539D01*
X132265640Y-53110864D01*
X132259583Y-53172360D01*
X132265640Y-53233856D01*
X132265640Y-53233857D01*
X132283756Y-53417794D01*
X132355347Y-53653797D01*
X132471604Y-53871298D01*
X132628059Y-54061941D01*
X132675832Y-54101147D01*
X133698446Y-55123761D01*
X133760899Y-55199861D01*
X133951541Y-55356316D01*
X133983844Y-55373583D01*
X133818203Y-55462120D01*
X133646595Y-55602955D01*
X133505760Y-55774563D01*
X133401110Y-55970349D01*
X133336667Y-56182789D01*
X133314907Y-56403720D01*
X133314907Y-58153720D01*
X133336667Y-58374651D01*
X133401110Y-58587091D01*
X133505760Y-58782877D01*
X133646595Y-58954485D01*
X133818203Y-59095320D01*
X134013989Y-59199970D01*
X134226429Y-59264413D01*
X134447360Y-59286173D01*
X134897360Y-59286173D01*
X134997360Y-59276324D01*
X135097360Y-59286173D01*
X135547360Y-59286173D01*
X135768291Y-59264413D01*
X135980731Y-59199970D01*
X136176517Y-59095320D01*
X136297360Y-58996147D01*
X136418203Y-59095320D01*
X136613989Y-59199970D01*
X136826429Y-59264413D01*
X137047360Y-59286173D01*
X137497360Y-59286173D01*
X137597360Y-59276324D01*
X137697360Y-59286173D01*
X138147360Y-59286173D01*
X138247360Y-59276324D01*
X138347360Y-59286173D01*
X138797360Y-59286173D01*
X139018291Y-59264413D01*
X139222360Y-59202509D01*
X139426429Y-59264413D01*
X139647360Y-59286173D01*
X140097360Y-59286173D01*
X140197360Y-59276324D01*
X140297360Y-59286173D01*
X140747360Y-59286173D01*
X140968291Y-59264413D01*
X141172360Y-59202509D01*
X141376429Y-59264413D01*
X141597360Y-59286173D01*
X142047360Y-59286173D01*
X142147360Y-59276324D01*
X142247360Y-59286173D01*
X142697360Y-59286173D01*
X142797360Y-59276324D01*
X142897360Y-59286173D01*
X143347360Y-59286173D01*
X143568291Y-59264413D01*
X143780731Y-59199970D01*
X143976517Y-59095320D01*
X144148125Y-58954485D01*
X144288960Y-58782877D01*
X144393610Y-58587091D01*
X144458053Y-58374651D01*
X144479813Y-58153720D01*
X144479813Y-56403720D01*
X144458053Y-56182789D01*
X144393610Y-55970349D01*
X144374360Y-55934335D01*
X144374360Y-53638695D01*
X144380417Y-53577199D01*
X144373577Y-53507750D01*
X144356244Y-53331765D01*
X144284653Y-53095762D01*
X144242834Y-53017524D01*
X144349470Y-53124160D01*
X144763720Y-53127232D01*
X144888202Y-53114972D01*
X145007900Y-53078662D01*
X145118214Y-53019697D01*
X145214905Y-52940345D01*
X145294257Y-52843654D01*
X145353222Y-52733340D01*
X145389532Y-52613642D01*
X145401792Y-52489160D01*
X145398720Y-52287410D01*
X145239970Y-52128660D01*
X144190720Y-52128660D01*
X144190720Y-52148660D01*
X143936720Y-52148660D01*
X143936720Y-52128660D01*
X143916720Y-52128660D01*
X143916720Y-51874660D01*
X143936720Y-51874660D01*
X143936720Y-51854660D01*
X144190720Y-51854660D01*
X144190720Y-51874660D01*
X145239970Y-51874660D01*
X145398720Y-51715910D01*
X145401792Y-51514160D01*
X145393072Y-51425617D01*
X145493092Y-51343532D01*
X145664241Y-51134987D01*
X145791416Y-50897060D01*
X145869730Y-50638894D01*
X145896173Y-50370410D01*
X145896173Y-49963596D01*
X146006226Y-49918010D01*
X146256326Y-49750899D01*
X146469019Y-49538206D01*
X146636130Y-49288106D01*
X146751239Y-49010210D01*
X146809920Y-48715196D01*
X146809920Y-48414404D01*
X146778338Y-48255627D01*
X146820305Y-48221185D01*
X146899657Y-48124494D01*
X146958622Y-48014180D01*
X146994932Y-47894482D01*
X147007192Y-47770000D01*
X147006367Y-47652104D01*
X147012120Y-47647954D01*
X147012120Y-46257000D01*
X147008616Y-46257000D01*
X147105321Y-46023533D01*
X147161120Y-45743010D01*
X147161120Y-45456990D01*
X147105321Y-45176467D01*
X147012120Y-44951461D01*
X147012120Y-44612046D01*
X146837246Y-44485881D01*
X146698200Y-44535642D01*
X146634716Y-44472158D01*
X146396900Y-44313254D01*
X146132653Y-44203799D01*
X145852130Y-44148000D01*
X145566110Y-44148000D01*
X145447800Y-44171533D01*
X145447800Y-44018736D01*
X145453857Y-43957240D01*
X145444265Y-43859854D01*
X145429684Y-43711805D01*
X145358093Y-43475802D01*
X145241836Y-43258301D01*
X145085381Y-43067659D01*
X145037609Y-43028454D01*
X144530227Y-42521072D01*
X144491021Y-42473299D01*
X144300379Y-42316844D01*
X144082878Y-42200587D01*
X143846875Y-42128996D01*
X143662938Y-42110880D01*
X143662936Y-42110880D01*
X143601440Y-42104823D01*
X143539944Y-42110880D01*
X142799335Y-42110880D01*
X142737839Y-42104823D01*
X142676343Y-42110880D01*
X142676342Y-42110880D01*
X142492405Y-42128996D01*
X142256402Y-42200587D01*
X142038901Y-42316844D01*
X141848259Y-42473299D01*
X141809049Y-42521077D01*
X141388029Y-42942096D01*
X141340260Y-42981299D01*
X141301058Y-43029067D01*
X141301057Y-43029068D01*
X141292217Y-43039840D01*
X141180284Y-43039840D01*
X140885270Y-43098521D01*
X140607374Y-43213630D01*
X140357274Y-43380741D01*
X140144581Y-43593434D01*
X139977470Y-43843534D01*
X139862361Y-44121430D01*
X139857076Y-44148000D01*
X139786110Y-44148000D01*
X139505587Y-44203799D01*
X139241340Y-44313254D01*
X139003524Y-44472158D01*
X138940040Y-44535642D01*
X138800994Y-44485881D01*
X138626120Y-44612046D01*
X138626120Y-44951461D01*
X138532919Y-45176467D01*
X138477120Y-45456990D01*
X138477120Y-45743010D01*
X138532919Y-46023533D01*
X138629624Y-46257000D01*
X138626120Y-46257000D01*
X138626120Y-46277000D01*
X138372120Y-46277000D01*
X138372120Y-46257000D01*
X137364120Y-46257000D01*
X137364120Y-46807000D01*
X137410705Y-47025987D01*
X137499117Y-47231678D01*
X137625959Y-47416169D01*
X137786356Y-47572369D01*
X137974144Y-47694276D01*
X138197246Y-47774119D01*
X138372118Y-47647955D01*
X138372118Y-47815000D01*
X138468585Y-47815000D01*
X138410150Y-47902454D01*
X138295041Y-48180350D01*
X138236360Y-48475364D01*
X138236360Y-48663941D01*
X138093093Y-48740519D01*
X137884548Y-48911668D01*
X137713399Y-49120213D01*
X137586224Y-49358140D01*
X137507910Y-49616306D01*
X137481467Y-49884790D01*
X137481467Y-50372290D01*
X137507910Y-50640774D01*
X137586224Y-50898940D01*
X137713399Y-51136867D01*
X137884548Y-51345412D01*
X137984568Y-51427497D01*
X137975848Y-51516040D01*
X137978920Y-51717790D01*
X138137668Y-51876538D01*
X138025024Y-51876538D01*
X138013476Y-51874241D01*
X137354967Y-51215732D01*
X137315761Y-51167959D01*
X137242421Y-51107771D01*
X137211121Y-51049213D01*
X137039972Y-50840668D01*
X136939952Y-50758583D01*
X136948672Y-50670040D01*
X136945600Y-50468290D01*
X136786850Y-50309540D01*
X135737600Y-50309540D01*
X135737600Y-50329540D01*
X135483600Y-50329540D01*
X135483600Y-50309540D01*
X135463600Y-50309540D01*
X135463600Y-50055540D01*
X135483600Y-50055540D01*
X135483600Y-49218790D01*
X135737600Y-49218790D01*
X135737600Y-50055540D01*
X136786850Y-50055540D01*
X136945600Y-49896790D01*
X136948672Y-49695040D01*
X136936412Y-49570558D01*
X136900102Y-49450860D01*
X136841137Y-49340546D01*
X136761785Y-49243855D01*
X136665094Y-49164503D01*
X136554780Y-49105538D01*
X136435082Y-49069228D01*
X136310600Y-49056968D01*
X135896350Y-49060040D01*
X135737600Y-49218790D01*
X135483600Y-49218790D01*
X135324850Y-49060040D01*
X134988669Y-49057547D01*
X135044640Y-48776156D01*
X135044640Y-48475364D01*
X134985959Y-48180350D01*
X134870850Y-47902454D01*
X134703739Y-47652354D01*
X134491046Y-47439661D01*
X134240946Y-47272550D01*
X133963050Y-47157441D01*
X133668036Y-47098760D01*
X133367244Y-47098760D01*
X133072230Y-47157441D01*
X132794334Y-47272550D01*
X132544234Y-47439661D01*
X132331541Y-47652354D01*
X132164430Y-47902454D01*
X132049321Y-48180350D01*
X131990640Y-48475364D01*
X128252833Y-48475364D01*
X128169320Y-48319123D01*
X128028485Y-48147515D01*
X127856877Y-48006680D01*
X127661091Y-47902030D01*
X127448651Y-47837587D01*
X127227720Y-47815827D01*
X125280200Y-47815827D01*
X125280200Y-45453000D01*
X137364120Y-45453000D01*
X137364120Y-46003000D01*
X138372120Y-46003000D01*
X138372120Y-44612046D01*
X138197246Y-44485881D01*
X137974144Y-44565724D01*
X137786356Y-44687631D01*
X137625959Y-44843831D01*
X137499117Y-45028322D01*
X137410705Y-45234013D01*
X137364120Y-45453000D01*
X125280200Y-45453000D01*
X125280200Y-44380733D01*
X127227720Y-44380733D01*
X127448651Y-44358973D01*
X127661091Y-44294530D01*
X127856877Y-44189880D01*
X128028485Y-44049045D01*
X128169320Y-43877437D01*
X128273970Y-43681651D01*
X128338413Y-43469211D01*
X128360173Y-43248280D01*
X128360173Y-42077000D01*
X137364120Y-42077000D01*
X137364120Y-42377000D01*
X137410705Y-42595987D01*
X137499117Y-42801678D01*
X137625959Y-42986169D01*
X137786356Y-43142369D01*
X137974144Y-43264276D01*
X138197246Y-43344119D01*
X138372120Y-43217954D01*
X138372120Y-42077000D01*
X138626120Y-42077000D01*
X138626120Y-43217954D01*
X138800994Y-43344119D01*
X139024096Y-43264276D01*
X139211884Y-43142369D01*
X139372281Y-42986169D01*
X139499123Y-42801678D01*
X139587535Y-42595987D01*
X139634120Y-42377000D01*
X139634120Y-42077000D01*
X146004120Y-42077000D01*
X146004120Y-42377000D01*
X146050705Y-42595987D01*
X146139117Y-42801678D01*
X146265959Y-42986169D01*
X146426356Y-43142369D01*
X146614144Y-43264276D01*
X146837246Y-43344119D01*
X147012120Y-43217954D01*
X147012120Y-42077000D01*
X146004120Y-42077000D01*
X139634120Y-42077000D01*
X138626120Y-42077000D01*
X138372120Y-42077000D01*
X137364120Y-42077000D01*
X128360173Y-42077000D01*
X128360173Y-41748280D01*
X128338413Y-41527349D01*
X128273970Y-41314909D01*
X128169320Y-41119123D01*
X128028485Y-40947515D01*
X127856877Y-40806680D01*
X127661091Y-40702030D01*
X127448651Y-40637587D01*
X127227720Y-40615827D01*
X125227720Y-40615827D01*
X125006789Y-40637587D01*
X124794349Y-40702030D01*
X124598563Y-40806680D01*
X124426955Y-40947515D01*
X124286120Y-41119123D01*
X124181470Y-41314909D01*
X124117027Y-41527349D01*
X124110850Y-41590060D01*
X124090599Y-41606680D01*
X123924238Y-41440319D01*
X123616813Y-41234904D01*
X123275221Y-41093412D01*
X122912588Y-41021280D01*
X122542852Y-41021280D01*
X122180219Y-41093412D01*
X121838627Y-41234904D01*
X121531202Y-41440319D01*
X121347895Y-41623626D01*
X121338413Y-41527349D01*
X121273970Y-41314909D01*
X121169320Y-41119123D01*
X121028485Y-40947515D01*
X120856877Y-40806680D01*
X120661091Y-40702030D01*
X120448651Y-40637587D01*
X120227720Y-40615827D01*
X118227720Y-40615827D01*
X118006789Y-40637587D01*
X117794349Y-40702030D01*
X117598563Y-40806680D01*
X117426955Y-40947515D01*
X117286120Y-41119123D01*
X117181470Y-41314909D01*
X117117027Y-41527349D01*
X117095267Y-41748280D01*
X117095267Y-43248280D01*
X117117027Y-43469211D01*
X117181470Y-43681651D01*
X117286120Y-43877437D01*
X117426955Y-44049045D01*
X117598563Y-44189880D01*
X117614278Y-44198280D01*
X117598563Y-44206680D01*
X117426955Y-44347515D01*
X117286120Y-44519123D01*
X117181470Y-44714909D01*
X117117027Y-44927349D01*
X117095267Y-45148280D01*
X117095267Y-46648280D01*
X117117027Y-46869211D01*
X117181470Y-47081651D01*
X117286120Y-47277437D01*
X117426955Y-47449045D01*
X117598563Y-47589880D01*
X117794349Y-47694530D01*
X118006789Y-47758973D01*
X118227720Y-47780733D01*
X120227720Y-47780733D01*
X120448651Y-47758973D01*
X120661091Y-47694530D01*
X120856877Y-47589880D01*
X121028485Y-47449045D01*
X121169320Y-47277437D01*
X121273970Y-47081651D01*
X121338413Y-46869211D01*
X121360173Y-46648280D01*
X121360173Y-45148280D01*
X121338413Y-44927349D01*
X121273970Y-44714909D01*
X121169320Y-44519123D01*
X121028485Y-44347515D01*
X120856877Y-44206680D01*
X120841162Y-44198280D01*
X120856877Y-44189880D01*
X121028485Y-44049045D01*
X121144627Y-43907525D01*
X121269759Y-44094798D01*
X121531202Y-44356241D01*
X121838627Y-44561656D01*
X122180219Y-44703148D01*
X122542852Y-44775280D01*
X122776200Y-44775280D01*
X122776200Y-48021280D01*
X122542852Y-48021280D01*
X122180219Y-48093412D01*
X121838627Y-48234904D01*
X121531202Y-48440319D01*
X121269759Y-48701762D01*
X121064344Y-49009187D01*
X120922852Y-49350779D01*
X120852522Y-49704352D01*
X120661091Y-49602030D01*
X120448651Y-49537587D01*
X120227720Y-49515827D01*
X118227720Y-49515827D01*
X118006789Y-49537587D01*
X117794349Y-49602030D01*
X117598563Y-49706680D01*
X117426955Y-49847515D01*
X117286120Y-50019123D01*
X117181470Y-50214909D01*
X117117027Y-50427349D01*
X117095267Y-50648280D01*
X117095267Y-52148280D01*
X117117027Y-52369211D01*
X117181470Y-52581651D01*
X117286120Y-52777437D01*
X117426955Y-52949045D01*
X117598563Y-53089880D01*
X117794349Y-53194530D01*
X118006789Y-53258973D01*
X118227720Y-53280733D01*
X120227720Y-53280733D01*
X120448651Y-53258973D01*
X120661091Y-53194530D01*
X120856877Y-53089880D01*
X121028485Y-52949045D01*
X121169320Y-52777437D01*
X121273970Y-52581651D01*
X121338413Y-52369211D01*
X121360173Y-52148280D01*
X121360173Y-51185212D01*
X121531202Y-51356241D01*
X121838627Y-51561656D01*
X122180219Y-51703148D01*
X122542852Y-51775280D01*
X122776201Y-51775280D01*
X122776201Y-55508813D01*
X122757250Y-55506947D01*
X122112559Y-55506947D01*
X121510330Y-54904719D01*
X121419010Y-54684254D01*
X121251899Y-54434154D01*
X121039206Y-54221461D01*
X120789106Y-54054350D01*
X120511210Y-53939241D01*
X120216196Y-53880560D01*
X119915404Y-53880560D01*
X119620390Y-53939241D01*
X119342494Y-54054350D01*
X119092394Y-54221461D01*
X118879701Y-54434154D01*
X118712590Y-54684254D01*
X118597481Y-54962150D01*
X118538800Y-55257164D01*
X118538800Y-55557956D01*
X118597481Y-55852970D01*
X118712590Y-56130866D01*
X118879701Y-56380966D01*
X119092394Y-56593659D01*
X119342494Y-56760770D01*
X119562959Y-56852090D01*
X120558123Y-57847255D01*
X120573304Y-57897300D01*
X120700479Y-58135227D01*
X120871628Y-58343772D01*
X120971648Y-58425857D01*
X120962928Y-58514400D01*
X120966000Y-58716150D01*
X121124750Y-58874900D01*
X122174000Y-58874900D01*
X122174000Y-58854900D01*
X122428000Y-58854900D01*
X122428000Y-58874900D01*
X122448000Y-58874900D01*
X122448000Y-59128900D01*
X122428000Y-59128900D01*
X122428000Y-59965650D01*
X122494550Y-60032200D01*
X122428000Y-60098750D01*
X122428000Y-60935500D01*
X123477250Y-60935500D01*
X123636000Y-60776750D01*
X123639072Y-60575000D01*
X123626812Y-60450518D01*
X123590502Y-60330820D01*
X123574377Y-60300652D01*
X123650347Y-60376623D01*
X123650347Y-61366600D01*
X123672107Y-61587531D01*
X123706551Y-61701079D01*
X123630352Y-61638543D01*
X123639072Y-61550000D01*
X123636000Y-61348250D01*
X123477250Y-61189500D01*
X122428000Y-61189500D01*
X122428000Y-61209500D01*
X122174000Y-61209500D01*
X122174000Y-61189500D01*
X121124750Y-61189500D01*
X120966000Y-61348250D01*
X120963326Y-61523846D01*
X120820716Y-61495480D01*
X120519924Y-61495480D01*
X120224910Y-61554161D01*
X120140356Y-61589185D01*
X120130237Y-61580880D01*
X119934451Y-61476230D01*
X119722011Y-61411787D01*
X119501080Y-61390027D01*
X116991080Y-61390027D01*
X116770149Y-61411787D01*
X116609568Y-61460499D01*
X116642265Y-61433665D01*
X116721617Y-61336974D01*
X116780582Y-61226660D01*
X116816892Y-61106962D01*
X116829152Y-60982480D01*
X116826080Y-60768230D01*
X116667330Y-60609480D01*
X115063080Y-60609480D01*
X115063080Y-61458730D01*
X115221830Y-61617480D01*
X116191080Y-61620552D01*
X116315562Y-61608292D01*
X116336120Y-61602056D01*
X116190315Y-61721715D01*
X116049480Y-61893323D01*
X115944830Y-62089109D01*
X115880387Y-62301549D01*
X115858627Y-62522480D01*
X115858627Y-63522480D01*
X115880387Y-63743411D01*
X115936996Y-63930027D01*
X113681080Y-63930027D01*
X113460149Y-63951787D01*
X113247709Y-64016230D01*
X113051923Y-64120880D01*
X112880315Y-64261715D01*
X112739480Y-64433323D01*
X112634830Y-64629109D01*
X112570387Y-64841549D01*
X112548627Y-65062480D01*
X112548627Y-66062480D01*
X112570387Y-66283411D01*
X112634830Y-66495851D01*
X112739480Y-66691637D01*
X112880315Y-66863245D01*
X113051923Y-67004080D01*
X113247709Y-67108730D01*
X113460149Y-67173173D01*
X113681080Y-67194933D01*
X115936996Y-67194933D01*
X115880387Y-67381549D01*
X115858627Y-67602480D01*
X115858627Y-68602480D01*
X115880387Y-68823411D01*
X115944830Y-69035851D01*
X116049480Y-69231637D01*
X116190315Y-69403245D01*
X116361923Y-69544080D01*
X116557709Y-69648730D01*
X116770149Y-69713173D01*
X116991080Y-69734933D01*
X119501080Y-69734933D01*
X119722011Y-69713173D01*
X119934451Y-69648730D01*
X119968466Y-69630549D01*
X120079110Y-69897666D01*
X120246221Y-70147766D01*
X120458914Y-70360459D01*
X120709014Y-70527570D01*
X120986910Y-70642679D01*
X121281924Y-70701360D01*
X121372847Y-70701360D01*
X121362627Y-70805130D01*
X121362627Y-71292630D01*
X121389070Y-71561114D01*
X121467384Y-71819280D01*
X121568080Y-72007669D01*
X121568081Y-81486589D01*
X121474068Y-81525530D01*
X121084751Y-81785664D01*
X120753664Y-82116751D01*
X120493530Y-82506068D01*
X120314347Y-82938655D01*
X120223000Y-83397886D01*
X120223000Y-83642830D01*
X112318800Y-83632210D01*
X112318800Y-60982480D01*
X113043008Y-60982480D01*
X113055268Y-61106962D01*
X113091578Y-61226660D01*
X113150543Y-61336974D01*
X113229895Y-61433665D01*
X113326586Y-61513017D01*
X113436900Y-61571982D01*
X113556598Y-61608292D01*
X113681080Y-61620552D01*
X114650330Y-61617480D01*
X114809080Y-61458730D01*
X114809080Y-60609480D01*
X113204830Y-60609480D01*
X113046080Y-60768230D01*
X113043008Y-60982480D01*
X112318800Y-60982480D01*
X112318800Y-59982480D01*
X113043008Y-59982480D01*
X113046080Y-60196730D01*
X113204830Y-60355480D01*
X114809080Y-60355480D01*
X114809080Y-59506230D01*
X115063080Y-59506230D01*
X115063080Y-60355480D01*
X116667330Y-60355480D01*
X116826080Y-60196730D01*
X116829152Y-59982480D01*
X116816892Y-59857998D01*
X116780582Y-59738300D01*
X116721617Y-59627986D01*
X116642265Y-59531295D01*
X116591216Y-59489400D01*
X120962928Y-59489400D01*
X120975188Y-59613882D01*
X121011498Y-59733580D01*
X121070463Y-59843894D01*
X121149815Y-59940585D01*
X121246506Y-60019937D01*
X121269448Y-60032200D01*
X121246506Y-60044463D01*
X121149815Y-60123815D01*
X121070463Y-60220506D01*
X121011498Y-60330820D01*
X120975188Y-60450518D01*
X120962928Y-60575000D01*
X120966000Y-60776750D01*
X121124750Y-60935500D01*
X122174000Y-60935500D01*
X122174000Y-60098750D01*
X122107450Y-60032200D01*
X122174000Y-59965650D01*
X122174000Y-59128900D01*
X121124750Y-59128900D01*
X120966000Y-59287650D01*
X120962928Y-59489400D01*
X116591216Y-59489400D01*
X116545574Y-59451943D01*
X116435260Y-59392978D01*
X116315562Y-59356668D01*
X116191080Y-59344408D01*
X115221830Y-59347480D01*
X115063080Y-59506230D01*
X114809080Y-59506230D01*
X114650330Y-59347480D01*
X113681080Y-59344408D01*
X113556598Y-59356668D01*
X113436900Y-59392978D01*
X113326586Y-59451943D01*
X113229895Y-59531295D01*
X113150543Y-59627986D01*
X113091578Y-59738300D01*
X113055268Y-59857998D01*
X113043008Y-59982480D01*
X112318800Y-59982480D01*
X112318800Y-40597000D01*
X138082349Y-40597000D01*
X137974144Y-40635724D01*
G37*
X137974144Y-40635724D02*
X137786356Y-40757631D01*
X137625959Y-40913831D01*
X137499117Y-41098322D01*
X137410705Y-41304013D01*
X137364120Y-41523000D01*
X137364120Y-41823000D01*
X138372120Y-41823000D01*
X138372120Y-41803000D01*
X138626120Y-41803000D01*
X138626120Y-41823000D01*
X139634120Y-41823000D01*
X139634120Y-41523000D01*
X139587535Y-41304013D01*
X139499123Y-41098322D01*
X139372281Y-40913831D01*
X139211884Y-40757631D01*
X139024096Y-40635724D01*
X138915891Y-40597000D01*
X146722349Y-40597000D01*
X146614144Y-40635724D01*
X146426356Y-40757631D01*
X146265959Y-40913831D01*
X146139117Y-41098322D01*
X146050705Y-41304013D01*
X146004120Y-41523000D01*
X146004120Y-41823000D01*
X147012120Y-41823000D01*
X147012120Y-41803000D01*
X147266120Y-41803000D01*
X147266120Y-41823000D01*
X148274120Y-41823000D01*
X148274120Y-41523000D01*
X148227535Y-41304013D01*
X148139123Y-41098322D01*
X148012281Y-40913831D01*
X147851884Y-40757631D01*
X147664096Y-40635724D01*
X147555891Y-40597000D01*
X151914590Y-40597000D01*
X151733336Y-40651983D01*
X151494120Y-40779848D01*
X151336983Y-40908805D01*
X151297077Y-40948711D01*
X151269183Y-40971603D01*
X151246291Y-40999497D01*
X150803242Y-41442547D01*
X150678830Y-41442547D01*
X150410346Y-41468990D01*
X150152180Y-41547304D01*
X149914253Y-41674479D01*
X149900020Y-41686160D01*
X149749836Y-41686160D01*
X149682199Y-41679498D01*
X149614562Y-41686160D01*
X149614560Y-41686160D01*
X149412261Y-41706085D01*
X149152695Y-41784823D01*
X148913479Y-41912687D01*
X148703803Y-42084763D01*
X148660679Y-42137310D01*
X148253426Y-42544563D01*
X148235312Y-42559429D01*
X148274120Y-42377000D01*
X148274120Y-42077000D01*
X147266120Y-42077000D01*
X147266120Y-43217954D01*
X147440994Y-43344119D01*
X147664096Y-43264276D01*
X147851884Y-43142369D01*
X147875965Y-43118918D01*
X147822205Y-43296141D01*
X147795618Y-43566080D01*
X147802280Y-43633720D01*
X147802280Y-44655430D01*
X147664096Y-44565724D01*
X147440994Y-44485881D01*
X147266120Y-44612046D01*
X147266120Y-46003000D01*
X147286120Y-46003000D01*
X147286120Y-46257000D01*
X147266120Y-46257000D01*
X147266120Y-47647954D01*
X147440994Y-47774119D01*
X147664096Y-47694276D01*
X147802281Y-47604570D01*
X147802281Y-48639391D01*
X147795618Y-48707040D01*
X147822205Y-48976979D01*
X147900943Y-49236544D01*
X147964933Y-49356260D01*
X148028808Y-49475761D01*
X148200884Y-49685437D01*
X148253425Y-49728556D01*
X149615723Y-51090855D01*
X149658843Y-51143397D01*
X149868519Y-51315473D01*
X150010864Y-51391558D01*
X150107735Y-51443337D01*
X150367300Y-51522075D01*
X150637240Y-51548662D01*
X150704880Y-51542000D01*
X152101686Y-51542000D01*
X152059960Y-51592843D01*
X151955310Y-51788629D01*
X151890867Y-52001069D01*
X151869107Y-52222000D01*
X151869107Y-54222000D01*
X151890867Y-54442931D01*
X151955310Y-54655371D01*
X152059960Y-54851157D01*
X152117930Y-54921794D01*
X151451560Y-54918928D01*
X151327078Y-54931188D01*
X151207380Y-54967498D01*
X151097066Y-55026463D01*
X151000375Y-55105815D01*
X150921023Y-55202506D01*
X150862058Y-55312820D01*
X150825748Y-55432518D01*
X150813488Y-55557000D01*
X150816560Y-55721250D01*
X150925567Y-55830257D01*
X150832509Y-55879998D01*
X150816560Y-55879998D01*
X150816560Y-55890195D01*
X150650795Y-56026235D01*
X150509960Y-56197843D01*
X150405310Y-56393629D01*
X150340867Y-56606069D01*
X150319107Y-56827000D01*
X150319107Y-57727000D01*
X150337328Y-57912000D01*
X150319107Y-58097000D01*
X150319107Y-58997000D01*
X150337328Y-59182000D01*
X150319107Y-59367000D01*
X150319107Y-60267000D01*
X150337328Y-60452000D01*
X150319107Y-60637000D01*
X150319107Y-61537000D01*
X150337328Y-61722000D01*
X150319107Y-61907000D01*
X150319107Y-62807000D01*
X150337328Y-62992000D01*
X150319107Y-63177000D01*
X150319107Y-64077000D01*
X150337328Y-64262000D01*
X150319107Y-64447000D01*
X150319107Y-65347000D01*
X150337328Y-65532000D01*
X150319107Y-65717000D01*
X150319107Y-66060000D01*
X148809372Y-66060000D01*
X148509040Y-65759669D01*
X148509040Y-64422273D01*
X148561412Y-64379292D01*
X148732561Y-64170747D01*
X148859736Y-63932820D01*
X148938050Y-63674654D01*
X148964493Y-63406170D01*
X148964493Y-62918670D01*
X148938050Y-62650186D01*
X148859736Y-62392020D01*
X148732561Y-62154093D01*
X148561412Y-61945548D01*
X148461392Y-61863463D01*
X148470112Y-61774920D01*
X148467040Y-61573170D01*
X148308290Y-61414420D01*
X147259040Y-61414420D01*
X147259040Y-61434420D01*
X147005040Y-61434420D01*
X147005040Y-61414420D01*
X145955790Y-61414420D01*
X145797040Y-61573170D01*
X145793968Y-61774920D01*
X145802688Y-61863463D01*
X145702668Y-61945548D01*
X145531519Y-62154093D01*
X145404344Y-62392020D01*
X145326030Y-62650186D01*
X145299587Y-62918670D01*
X145299587Y-63406170D01*
X145326030Y-63674654D01*
X145404344Y-63932820D01*
X145531519Y-64170747D01*
X145702668Y-64379292D01*
X145755040Y-64422273D01*
X145755041Y-66262391D01*
X145748378Y-66330040D01*
X145774965Y-66599979D01*
X145853703Y-66859544D01*
X145912925Y-66970339D01*
X145981568Y-67098761D01*
X146153644Y-67308437D01*
X146206185Y-67351556D01*
X147217483Y-68362855D01*
X147260603Y-68415397D01*
X147470279Y-68587473D01*
X147700255Y-68710398D01*
X147709495Y-68715337D01*
X147969060Y-68794075D01*
X148239000Y-68820662D01*
X148306640Y-68814000D01*
X150804613Y-68814000D01*
X150822403Y-68828600D01*
X151018189Y-68933250D01*
X151230629Y-68997693D01*
X151451560Y-69019453D01*
X151830262Y-69019453D01*
X151732839Y-69071527D01*
X151523163Y-69243603D01*
X151480039Y-69296150D01*
X151261029Y-69515160D01*
X150988755Y-69515160D01*
X150803250Y-69438321D01*
X150508236Y-69379640D01*
X150207444Y-69379640D01*
X149912430Y-69438321D01*
X149726925Y-69515160D01*
X142890936Y-69515160D01*
X142839639Y-69257270D01*
X142724530Y-68979374D01*
X142557419Y-68729274D01*
X142344726Y-68516581D01*
X142094626Y-68349470D01*
X141816730Y-68234361D01*
X141638056Y-68198821D01*
X139925408Y-66486173D01*
X140097360Y-66486173D01*
X140197360Y-66476324D01*
X140297360Y-66486173D01*
X140747360Y-66486173D01*
X140847360Y-66476324D01*
X140947360Y-66486173D01*
X141397360Y-66486173D01*
X141497360Y-66476324D01*
X141597360Y-66486173D01*
X142047360Y-66486173D01*
X142147360Y-66476324D01*
X142247360Y-66486173D01*
X142697360Y-66486173D01*
X142797360Y-66476324D01*
X142897360Y-66486173D01*
X143347360Y-66486173D01*
X143568291Y-66464413D01*
X143780731Y-66399970D01*
X143976517Y-66295320D01*
X144148125Y-66154485D01*
X144288960Y-65982877D01*
X144393610Y-65787091D01*
X144458053Y-65574651D01*
X144479813Y-65353720D01*
X144479813Y-63603720D01*
X144458053Y-63382789D01*
X144393610Y-63170349D01*
X144288960Y-62974563D01*
X144148125Y-62802955D01*
X143976517Y-62662120D01*
X143780731Y-62557470D01*
X143568291Y-62493027D01*
X143347360Y-62471267D01*
X142897360Y-62471267D01*
X142797360Y-62481116D01*
X142697360Y-62471267D01*
X142247360Y-62471267D01*
X142147360Y-62481116D01*
X142047360Y-62471267D01*
X141597360Y-62471267D01*
X141497360Y-62481116D01*
X141397360Y-62471267D01*
X140947360Y-62471267D01*
X140847360Y-62481116D01*
X140747360Y-62471267D01*
X140297360Y-62471267D01*
X140197360Y-62481116D01*
X140097360Y-62471267D01*
X139647360Y-62471267D01*
X139547360Y-62481116D01*
X139447360Y-62471267D01*
X138997360Y-62471267D01*
X138776429Y-62493027D01*
X138572360Y-62554931D01*
X138368291Y-62493027D01*
X138149360Y-62471464D01*
X138149360Y-62332764D01*
X138090679Y-62037750D01*
X137975570Y-61759854D01*
X137808459Y-61509754D01*
X137595766Y-61297061D01*
X137345666Y-61129950D01*
X137067770Y-61014841D01*
X136772756Y-60956160D01*
X136471964Y-60956160D01*
X136176950Y-61014841D01*
X135899054Y-61129950D01*
X135648954Y-61297061D01*
X135436261Y-61509754D01*
X135269150Y-61759854D01*
X135154041Y-62037750D01*
X135095360Y-62332764D01*
X135095360Y-62471464D01*
X134997360Y-62481116D01*
X134897360Y-62471267D01*
X134447360Y-62471267D01*
X134226429Y-62493027D01*
X134013989Y-62557470D01*
X133818203Y-62662120D01*
X133646595Y-62802955D01*
X133505760Y-62974563D01*
X133401110Y-63170349D01*
X133336667Y-63382789D01*
X133317096Y-63581493D01*
X133307779Y-63589139D01*
X133268577Y-63636907D01*
X131160067Y-65745418D01*
X131160067Y-64912700D01*
X131293136Y-64912700D01*
X131588150Y-64854019D01*
X131866046Y-64738910D01*
X132116146Y-64571799D01*
X132328839Y-64359106D01*
X132495950Y-64109006D01*
X132611059Y-63831110D01*
X132669740Y-63536096D01*
X132669740Y-63235304D01*
X132611059Y-62940290D01*
X132594590Y-62900531D01*
X132631100Y-62889456D01*
X132869027Y-62762281D01*
X133077572Y-62591132D01*
X133248721Y-62382587D01*
X133375896Y-62144660D01*
X133454210Y-61886494D01*
X133480653Y-61618010D01*
X133480653Y-61130510D01*
X133454210Y-60862026D01*
X133435371Y-60799920D01*
X145793968Y-60799920D01*
X145797040Y-61001670D01*
X145955790Y-61160420D01*
X147005040Y-61160420D01*
X147005040Y-60323670D01*
X147259040Y-60323670D01*
X147259040Y-61160420D01*
X148308290Y-61160420D01*
X148467040Y-61001670D01*
X148470112Y-60799920D01*
X148457852Y-60675438D01*
X148421542Y-60555740D01*
X148362577Y-60445426D01*
X148283225Y-60348735D01*
X148186534Y-60269383D01*
X148076220Y-60210418D01*
X147956522Y-60174108D01*
X147832040Y-60161848D01*
X147417790Y-60164920D01*
X147259040Y-60323670D01*
X147005040Y-60323670D01*
X146846290Y-60164920D01*
X146432040Y-60161848D01*
X146307558Y-60174108D01*
X146187860Y-60210418D01*
X146077546Y-60269383D01*
X145980855Y-60348735D01*
X145901503Y-60445426D01*
X145842538Y-60555740D01*
X145806228Y-60675438D01*
X145793968Y-60799920D01*
X133435371Y-60799920D01*
X133375896Y-60603860D01*
X133248721Y-60365933D01*
X133077572Y-60157388D01*
X132977552Y-60075303D01*
X132986272Y-59986760D01*
X132983200Y-59785010D01*
X132824450Y-59626260D01*
X131775200Y-59626260D01*
X131775200Y-59646260D01*
X131521200Y-59646260D01*
X131521200Y-59626260D01*
X130471950Y-59626260D01*
X130313200Y-59785010D01*
X130310128Y-59986760D01*
X130318848Y-60075303D01*
X130218828Y-60157388D01*
X130047679Y-60365933D01*
X129920504Y-60603860D01*
X129842190Y-60862026D01*
X129815747Y-61130510D01*
X129815747Y-61556391D01*
X129805598Y-61589848D01*
X129779011Y-61859787D01*
X129785673Y-61927427D01*
X129785673Y-62039622D01*
X129783067Y-62039365D01*
X129715427Y-62046027D01*
X127433144Y-62046027D01*
X127474400Y-61995757D01*
X127579050Y-61799971D01*
X127643493Y-61587531D01*
X127650591Y-61515463D01*
X127660914Y-61478887D01*
X127670751Y-61354190D01*
X127667800Y-61102350D01*
X127665253Y-61099803D01*
X127665253Y-60533397D01*
X127667800Y-60530850D01*
X127670751Y-60279010D01*
X127660914Y-60154313D01*
X127650591Y-60117737D01*
X127643493Y-60045669D01*
X127579050Y-59833229D01*
X127503364Y-59691631D01*
X128183235Y-59011760D01*
X130310128Y-59011760D01*
X130313200Y-59213510D01*
X130471950Y-59372260D01*
X131521200Y-59372260D01*
X131521200Y-58535510D01*
X131775200Y-58535510D01*
X131775200Y-59372260D01*
X132824450Y-59372260D01*
X132983200Y-59213510D01*
X132986272Y-59011760D01*
X132974012Y-58887278D01*
X132937702Y-58767580D01*
X132878737Y-58657266D01*
X132799385Y-58560575D01*
X132702694Y-58481223D01*
X132592380Y-58422258D01*
X132472682Y-58385948D01*
X132348200Y-58373688D01*
X131933950Y-58376760D01*
X131775200Y-58535510D01*
X131521200Y-58535510D01*
X131362450Y-58376760D01*
X130948200Y-58373688D01*
X130823718Y-58385948D01*
X130704020Y-58422258D01*
X130593706Y-58481223D01*
X130497015Y-58560575D01*
X130417663Y-58657266D01*
X130358698Y-58767580D01*
X130322388Y-58887278D01*
X130310128Y-59011760D01*
X128183235Y-59011760D01*
X129482654Y-57712342D01*
X129530421Y-57673141D01*
X129569623Y-57625373D01*
X129686876Y-57482500D01*
X129803133Y-57264998D01*
X129836379Y-57155400D01*
X129874724Y-57028995D01*
X129892840Y-56845058D01*
X129892840Y-56845057D01*
X129898897Y-56783561D01*
X129892840Y-56722065D01*
X129892840Y-50582095D01*
X129898897Y-50520599D01*
X129890460Y-50434939D01*
X129874724Y-50275165D01*
X129803133Y-50039162D01*
X129790660Y-50015827D01*
X129686876Y-49821660D01*
X129603109Y-49719590D01*
X129530421Y-49631019D01*
X129482648Y-49591813D01*
X128747307Y-48856472D01*
X128708101Y-48808699D01*
X128517459Y-48652244D01*
X128299958Y-48535987D01*
X128278378Y-48529441D01*
X128273970Y-48514909D01*
X128252833Y-48475364D01*
X131990640Y-48475364D01*
X131990640Y-48776156D01*
X132049321Y-49071170D01*
X132164430Y-49349066D01*
X132265641Y-49500539D01*
X132265640Y-53110864D01*
X132259583Y-53172360D01*
X132265640Y-53233856D01*
X132265640Y-53233857D01*
X132283756Y-53417794D01*
X132355347Y-53653797D01*
X132471604Y-53871298D01*
X132628059Y-54061941D01*
X132675832Y-54101147D01*
X133698446Y-55123761D01*
X133760899Y-55199861D01*
X133951541Y-55356316D01*
X133983844Y-55373583D01*
X133818203Y-55462120D01*
X133646595Y-55602955D01*
X133505760Y-55774563D01*
X133401110Y-55970349D01*
X133336667Y-56182789D01*
X133314907Y-56403720D01*
X133314907Y-58153720D01*
X133336667Y-58374651D01*
X133401110Y-58587091D01*
X133505760Y-58782877D01*
X133646595Y-58954485D01*
X133818203Y-59095320D01*
X134013989Y-59199970D01*
X134226429Y-59264413D01*
X134447360Y-59286173D01*
X134897360Y-59286173D01*
X134997360Y-59276324D01*
X135097360Y-59286173D01*
X135547360Y-59286173D01*
X135768291Y-59264413D01*
X135980731Y-59199970D01*
X136176517Y-59095320D01*
X136297360Y-58996147D01*
X136418203Y-59095320D01*
X136613989Y-59199970D01*
X136826429Y-59264413D01*
X137047360Y-59286173D01*
X137497360Y-59286173D01*
X137597360Y-59276324D01*
X137697360Y-59286173D01*
X138147360Y-59286173D01*
X138247360Y-59276324D01*
X138347360Y-59286173D01*
X138797360Y-59286173D01*
X139018291Y-59264413D01*
X139222360Y-59202509D01*
X139426429Y-59264413D01*
X139647360Y-59286173D01*
X140097360Y-59286173D01*
X140197360Y-59276324D01*
X140297360Y-59286173D01*
X140747360Y-59286173D01*
X140968291Y-59264413D01*
X141172360Y-59202509D01*
X141376429Y-59264413D01*
X141597360Y-59286173D01*
X142047360Y-59286173D01*
X142147360Y-59276324D01*
X142247360Y-59286173D01*
X142697360Y-59286173D01*
X142797360Y-59276324D01*
X142897360Y-59286173D01*
X143347360Y-59286173D01*
X143568291Y-59264413D01*
X143780731Y-59199970D01*
X143976517Y-59095320D01*
X144148125Y-58954485D01*
X144288960Y-58782877D01*
X144393610Y-58587091D01*
X144458053Y-58374651D01*
X144479813Y-58153720D01*
X144479813Y-56403720D01*
X144458053Y-56182789D01*
X144393610Y-55970349D01*
X144374360Y-55934335D01*
X144374360Y-53638695D01*
X144380417Y-53577199D01*
X144373577Y-53507750D01*
X144356244Y-53331765D01*
X144284653Y-53095762D01*
X144242834Y-53017524D01*
X144349470Y-53124160D01*
X144763720Y-53127232D01*
X144888202Y-53114972D01*
X145007900Y-53078662D01*
X145118214Y-53019697D01*
X145214905Y-52940345D01*
X145294257Y-52843654D01*
X145353222Y-52733340D01*
X145389532Y-52613642D01*
X145401792Y-52489160D01*
X145398720Y-52287410D01*
X145239970Y-52128660D01*
X144190720Y-52128660D01*
X144190720Y-52148660D01*
X143936720Y-52148660D01*
X143936720Y-52128660D01*
X143916720Y-52128660D01*
X143916720Y-51874660D01*
X143936720Y-51874660D01*
X143936720Y-51854660D01*
X144190720Y-51854660D01*
X144190720Y-51874660D01*
X145239970Y-51874660D01*
X145398720Y-51715910D01*
X145401792Y-51514160D01*
X145393072Y-51425617D01*
X145493092Y-51343532D01*
X145664241Y-51134987D01*
X145791416Y-50897060D01*
X145869730Y-50638894D01*
X145896173Y-50370410D01*
X145896173Y-49963596D01*
X146006226Y-49918010D01*
X146256326Y-49750899D01*
X146469019Y-49538206D01*
X146636130Y-49288106D01*
X146751239Y-49010210D01*
X146809920Y-48715196D01*
X146809920Y-48414404D01*
X146778338Y-48255627D01*
X146820305Y-48221185D01*
X146899657Y-48124494D01*
X146958622Y-48014180D01*
X146994932Y-47894482D01*
X147007192Y-47770000D01*
X147006367Y-47652104D01*
X147012120Y-47647954D01*
X147012120Y-46257000D01*
X147008616Y-46257000D01*
X147105321Y-46023533D01*
X147161120Y-45743010D01*
X147161120Y-45456990D01*
X147105321Y-45176467D01*
X147012120Y-44951461D01*
X147012120Y-44612046D01*
X146837246Y-44485881D01*
X146698200Y-44535642D01*
X146634716Y-44472158D01*
X146396900Y-44313254D01*
X146132653Y-44203799D01*
X145852130Y-44148000D01*
X145566110Y-44148000D01*
X145447800Y-44171533D01*
X145447800Y-44018736D01*
X145453857Y-43957240D01*
X145444265Y-43859854D01*
X145429684Y-43711805D01*
X145358093Y-43475802D01*
X145241836Y-43258301D01*
X145085381Y-43067659D01*
X145037609Y-43028454D01*
X144530227Y-42521072D01*
X144491021Y-42473299D01*
X144300379Y-42316844D01*
X144082878Y-42200587D01*
X143846875Y-42128996D01*
X143662938Y-42110880D01*
X143662936Y-42110880D01*
X143601440Y-42104823D01*
X143539944Y-42110880D01*
X142799335Y-42110880D01*
X142737839Y-42104823D01*
X142676343Y-42110880D01*
X142676342Y-42110880D01*
X142492405Y-42128996D01*
X142256402Y-42200587D01*
X142038901Y-42316844D01*
X141848259Y-42473299D01*
X141809049Y-42521077D01*
X141388029Y-42942096D01*
X141340260Y-42981299D01*
X141301058Y-43029067D01*
X141301057Y-43029068D01*
X141292217Y-43039840D01*
X141180284Y-43039840D01*
X140885270Y-43098521D01*
X140607374Y-43213630D01*
X140357274Y-43380741D01*
X140144581Y-43593434D01*
X139977470Y-43843534D01*
X139862361Y-44121430D01*
X139857076Y-44148000D01*
X139786110Y-44148000D01*
X139505587Y-44203799D01*
X139241340Y-44313254D01*
X139003524Y-44472158D01*
X138940040Y-44535642D01*
X138800994Y-44485881D01*
X138626120Y-44612046D01*
X138626120Y-44951461D01*
X138532919Y-45176467D01*
X138477120Y-45456990D01*
X138477120Y-45743010D01*
X138532919Y-46023533D01*
X138629624Y-46257000D01*
X138626120Y-46257000D01*
X138626120Y-46277000D01*
X138372120Y-46277000D01*
X138372120Y-46257000D01*
X137364120Y-46257000D01*
X137364120Y-46807000D01*
X137410705Y-47025987D01*
X137499117Y-47231678D01*
X137625959Y-47416169D01*
X137786356Y-47572369D01*
X137974144Y-47694276D01*
X138197246Y-47774119D01*
X138372118Y-47647955D01*
X138372118Y-47815000D01*
X138468585Y-47815000D01*
X138410150Y-47902454D01*
X138295041Y-48180350D01*
X138236360Y-48475364D01*
X138236360Y-48663941D01*
X138093093Y-48740519D01*
X137884548Y-48911668D01*
X137713399Y-49120213D01*
X137586224Y-49358140D01*
X137507910Y-49616306D01*
X137481467Y-49884790D01*
X137481467Y-50372290D01*
X137507910Y-50640774D01*
X137586224Y-50898940D01*
X137713399Y-51136867D01*
X137884548Y-51345412D01*
X137984568Y-51427497D01*
X137975848Y-51516040D01*
X137978920Y-51717790D01*
X138137668Y-51876538D01*
X138025024Y-51876538D01*
X138013476Y-51874241D01*
X137354967Y-51215732D01*
X137315761Y-51167959D01*
X137242421Y-51107771D01*
X137211121Y-51049213D01*
X137039972Y-50840668D01*
X136939952Y-50758583D01*
X136948672Y-50670040D01*
X136945600Y-50468290D01*
X136786850Y-50309540D01*
X135737600Y-50309540D01*
X135737600Y-50329540D01*
X135483600Y-50329540D01*
X135483600Y-50309540D01*
X135463600Y-50309540D01*
X135463600Y-50055540D01*
X135483600Y-50055540D01*
X135483600Y-49218790D01*
X135737600Y-49218790D01*
X135737600Y-50055540D01*
X136786850Y-50055540D01*
X136945600Y-49896790D01*
X136948672Y-49695040D01*
X136936412Y-49570558D01*
X136900102Y-49450860D01*
X136841137Y-49340546D01*
X136761785Y-49243855D01*
X136665094Y-49164503D01*
X136554780Y-49105538D01*
X136435082Y-49069228D01*
X136310600Y-49056968D01*
X135896350Y-49060040D01*
X135737600Y-49218790D01*
X135483600Y-49218790D01*
X135324850Y-49060040D01*
X134988669Y-49057547D01*
X135044640Y-48776156D01*
X135044640Y-48475364D01*
X134985959Y-48180350D01*
X134870850Y-47902454D01*
X134703739Y-47652354D01*
X134491046Y-47439661D01*
X134240946Y-47272550D01*
X133963050Y-47157441D01*
X133668036Y-47098760D01*
X133367244Y-47098760D01*
X133072230Y-47157441D01*
X132794334Y-47272550D01*
X132544234Y-47439661D01*
X132331541Y-47652354D01*
X132164430Y-47902454D01*
X132049321Y-48180350D01*
X131990640Y-48475364D01*
X128252833Y-48475364D01*
X128169320Y-48319123D01*
X128028485Y-48147515D01*
X127856877Y-48006680D01*
X127661091Y-47902030D01*
X127448651Y-47837587D01*
X127227720Y-47815827D01*
X125280200Y-47815827D01*
X125280200Y-45453000D01*
X137364120Y-45453000D01*
X137364120Y-46003000D01*
X138372120Y-46003000D01*
X138372120Y-44612046D01*
X138197246Y-44485881D01*
X137974144Y-44565724D01*
X137786356Y-44687631D01*
X137625959Y-44843831D01*
X137499117Y-45028322D01*
X137410705Y-45234013D01*
X137364120Y-45453000D01*
X125280200Y-45453000D01*
X125280200Y-44380733D01*
X127227720Y-44380733D01*
X127448651Y-44358973D01*
X127661091Y-44294530D01*
X127856877Y-44189880D01*
X128028485Y-44049045D01*
X128169320Y-43877437D01*
X128273970Y-43681651D01*
X128338413Y-43469211D01*
X128360173Y-43248280D01*
X128360173Y-42077000D01*
X137364120Y-42077000D01*
X137364120Y-42377000D01*
X137410705Y-42595987D01*
X137499117Y-42801678D01*
X137625959Y-42986169D01*
X137786356Y-43142369D01*
X137974144Y-43264276D01*
X138197246Y-43344119D01*
X138372120Y-43217954D01*
X138372120Y-42077000D01*
X138626120Y-42077000D01*
X138626120Y-43217954D01*
X138800994Y-43344119D01*
X139024096Y-43264276D01*
X139211884Y-43142369D01*
X139372281Y-42986169D01*
X139499123Y-42801678D01*
X139587535Y-42595987D01*
X139634120Y-42377000D01*
X139634120Y-42077000D01*
X146004120Y-42077000D01*
X146004120Y-42377000D01*
X146050705Y-42595987D01*
X146139117Y-42801678D01*
X146265959Y-42986169D01*
X146426356Y-43142369D01*
X146614144Y-43264276D01*
X146837246Y-43344119D01*
X147012120Y-43217954D01*
X147012120Y-42077000D01*
X146004120Y-42077000D01*
X139634120Y-42077000D01*
X138626120Y-42077000D01*
X138372120Y-42077000D01*
X137364120Y-42077000D01*
X128360173Y-42077000D01*
X128360173Y-41748280D01*
X128338413Y-41527349D01*
X128273970Y-41314909D01*
X128169320Y-41119123D01*
X128028485Y-40947515D01*
X127856877Y-40806680D01*
X127661091Y-40702030D01*
X127448651Y-40637587D01*
X127227720Y-40615827D01*
X125227720Y-40615827D01*
X125006789Y-40637587D01*
X124794349Y-40702030D01*
X124598563Y-40806680D01*
X124426955Y-40947515D01*
X124286120Y-41119123D01*
X124181470Y-41314909D01*
X124117027Y-41527349D01*
X124110850Y-41590060D01*
X124090599Y-41606680D01*
X123924238Y-41440319D01*
X123616813Y-41234904D01*
X123275221Y-41093412D01*
X122912588Y-41021280D01*
X122542852Y-41021280D01*
X122180219Y-41093412D01*
X121838627Y-41234904D01*
X121531202Y-41440319D01*
X121347895Y-41623626D01*
X121338413Y-41527349D01*
X121273970Y-41314909D01*
X121169320Y-41119123D01*
X121028485Y-40947515D01*
X120856877Y-40806680D01*
X120661091Y-40702030D01*
X120448651Y-40637587D01*
X120227720Y-40615827D01*
X118227720Y-40615827D01*
X118006789Y-40637587D01*
X117794349Y-40702030D01*
X117598563Y-40806680D01*
X117426955Y-40947515D01*
X117286120Y-41119123D01*
X117181470Y-41314909D01*
X117117027Y-41527349D01*
X117095267Y-41748280D01*
X117095267Y-43248280D01*
X117117027Y-43469211D01*
X117181470Y-43681651D01*
X117286120Y-43877437D01*
X117426955Y-44049045D01*
X117598563Y-44189880D01*
X117614278Y-44198280D01*
X117598563Y-44206680D01*
X117426955Y-44347515D01*
X117286120Y-44519123D01*
X117181470Y-44714909D01*
X117117027Y-44927349D01*
X117095267Y-45148280D01*
X117095267Y-46648280D01*
X117117027Y-46869211D01*
X117181470Y-47081651D01*
X117286120Y-47277437D01*
X117426955Y-47449045D01*
X117598563Y-47589880D01*
X117794349Y-47694530D01*
X118006789Y-47758973D01*
X118227720Y-47780733D01*
X120227720Y-47780733D01*
X120448651Y-47758973D01*
X120661091Y-47694530D01*
X120856877Y-47589880D01*
X121028485Y-47449045D01*
X121169320Y-47277437D01*
X121273970Y-47081651D01*
X121338413Y-46869211D01*
X121360173Y-46648280D01*
X121360173Y-45148280D01*
X121338413Y-44927349D01*
X121273970Y-44714909D01*
X121169320Y-44519123D01*
X121028485Y-44347515D01*
X120856877Y-44206680D01*
X120841162Y-44198280D01*
X120856877Y-44189880D01*
X121028485Y-44049045D01*
X121144627Y-43907525D01*
X121269759Y-44094798D01*
X121531202Y-44356241D01*
X121838627Y-44561656D01*
X122180219Y-44703148D01*
X122542852Y-44775280D01*
X122776200Y-44775280D01*
X122776200Y-48021280D01*
X122542852Y-48021280D01*
X122180219Y-48093412D01*
X121838627Y-48234904D01*
X121531202Y-48440319D01*
X121269759Y-48701762D01*
X121064344Y-49009187D01*
X120922852Y-49350779D01*
X120852522Y-49704352D01*
X120661091Y-49602030D01*
X120448651Y-49537587D01*
X120227720Y-49515827D01*
X118227720Y-49515827D01*
X118006789Y-49537587D01*
X117794349Y-49602030D01*
X117598563Y-49706680D01*
X117426955Y-49847515D01*
X117286120Y-50019123D01*
X117181470Y-50214909D01*
X117117027Y-50427349D01*
X117095267Y-50648280D01*
X117095267Y-52148280D01*
X117117027Y-52369211D01*
X117181470Y-52581651D01*
X117286120Y-52777437D01*
X117426955Y-52949045D01*
X117598563Y-53089880D01*
X117794349Y-53194530D01*
X118006789Y-53258973D01*
X118227720Y-53280733D01*
X120227720Y-53280733D01*
X120448651Y-53258973D01*
X120661091Y-53194530D01*
X120856877Y-53089880D01*
X121028485Y-52949045D01*
X121169320Y-52777437D01*
X121273970Y-52581651D01*
X121338413Y-52369211D01*
X121360173Y-52148280D01*
X121360173Y-51185212D01*
X121531202Y-51356241D01*
X121838627Y-51561656D01*
X122180219Y-51703148D01*
X122542852Y-51775280D01*
X122776201Y-51775280D01*
X122776201Y-55508813D01*
X122757250Y-55506947D01*
X122112559Y-55506947D01*
X121510330Y-54904719D01*
X121419010Y-54684254D01*
X121251899Y-54434154D01*
X121039206Y-54221461D01*
X120789106Y-54054350D01*
X120511210Y-53939241D01*
X120216196Y-53880560D01*
X119915404Y-53880560D01*
X119620390Y-53939241D01*
X119342494Y-54054350D01*
X119092394Y-54221461D01*
X118879701Y-54434154D01*
X118712590Y-54684254D01*
X118597481Y-54962150D01*
X118538800Y-55257164D01*
X118538800Y-55557956D01*
X118597481Y-55852970D01*
X118712590Y-56130866D01*
X118879701Y-56380966D01*
X119092394Y-56593659D01*
X119342494Y-56760770D01*
X119562959Y-56852090D01*
X120558123Y-57847255D01*
X120573304Y-57897300D01*
X120700479Y-58135227D01*
X120871628Y-58343772D01*
X120971648Y-58425857D01*
X120962928Y-58514400D01*
X120966000Y-58716150D01*
X121124750Y-58874900D01*
X122174000Y-58874900D01*
X122174000Y-58854900D01*
X122428000Y-58854900D01*
X122428000Y-58874900D01*
X122448000Y-58874900D01*
X122448000Y-59128900D01*
X122428000Y-59128900D01*
X122428000Y-59965650D01*
X122494550Y-60032200D01*
X122428000Y-60098750D01*
X122428000Y-60935500D01*
X123477250Y-60935500D01*
X123636000Y-60776750D01*
X123639072Y-60575000D01*
X123626812Y-60450518D01*
X123590502Y-60330820D01*
X123574377Y-60300652D01*
X123650347Y-60376623D01*
X123650347Y-61366600D01*
X123672107Y-61587531D01*
X123706551Y-61701079D01*
X123630352Y-61638543D01*
X123639072Y-61550000D01*
X123636000Y-61348250D01*
X123477250Y-61189500D01*
X122428000Y-61189500D01*
X122428000Y-61209500D01*
X122174000Y-61209500D01*
X122174000Y-61189500D01*
X121124750Y-61189500D01*
X120966000Y-61348250D01*
X120963326Y-61523846D01*
X120820716Y-61495480D01*
X120519924Y-61495480D01*
X120224910Y-61554161D01*
X120140356Y-61589185D01*
X120130237Y-61580880D01*
X119934451Y-61476230D01*
X119722011Y-61411787D01*
X119501080Y-61390027D01*
X116991080Y-61390027D01*
X116770149Y-61411787D01*
X116609568Y-61460499D01*
X116642265Y-61433665D01*
X116721617Y-61336974D01*
X116780582Y-61226660D01*
X116816892Y-61106962D01*
X116829152Y-60982480D01*
X116826080Y-60768230D01*
X116667330Y-60609480D01*
X115063080Y-60609480D01*
X115063080Y-61458730D01*
X115221830Y-61617480D01*
X116191080Y-61620552D01*
X116315562Y-61608292D01*
X116336120Y-61602056D01*
X116190315Y-61721715D01*
X116049480Y-61893323D01*
X115944830Y-62089109D01*
X115880387Y-62301549D01*
X115858627Y-62522480D01*
X115858627Y-63522480D01*
X115880387Y-63743411D01*
X115936996Y-63930027D01*
X113681080Y-63930027D01*
X113460149Y-63951787D01*
X113247709Y-64016230D01*
X113051923Y-64120880D01*
X112880315Y-64261715D01*
X112739480Y-64433323D01*
X112634830Y-64629109D01*
X112570387Y-64841549D01*
X112548627Y-65062480D01*
X112548627Y-66062480D01*
X112570387Y-66283411D01*
X112634830Y-66495851D01*
X112739480Y-66691637D01*
X112880315Y-66863245D01*
X113051923Y-67004080D01*
X113247709Y-67108730D01*
X113460149Y-67173173D01*
X113681080Y-67194933D01*
X115936996Y-67194933D01*
X115880387Y-67381549D01*
X115858627Y-67602480D01*
X115858627Y-68602480D01*
X115880387Y-68823411D01*
X115944830Y-69035851D01*
X116049480Y-69231637D01*
X116190315Y-69403245D01*
X116361923Y-69544080D01*
X116557709Y-69648730D01*
X116770149Y-69713173D01*
X116991080Y-69734933D01*
X119501080Y-69734933D01*
X119722011Y-69713173D01*
X119934451Y-69648730D01*
X119968466Y-69630549D01*
X120079110Y-69897666D01*
X120246221Y-70147766D01*
X120458914Y-70360459D01*
X120709014Y-70527570D01*
X120986910Y-70642679D01*
X121281924Y-70701360D01*
X121372847Y-70701360D01*
X121362627Y-70805130D01*
X121362627Y-71292630D01*
X121389070Y-71561114D01*
X121467384Y-71819280D01*
X121568080Y-72007669D01*
X121568081Y-81486589D01*
X121474068Y-81525530D01*
X121084751Y-81785664D01*
X120753664Y-82116751D01*
X120493530Y-82506068D01*
X120314347Y-82938655D01*
X120223000Y-83397886D01*
X120223000Y-83642830D01*
X112318800Y-83632210D01*
X112318800Y-60982480D01*
X113043008Y-60982480D01*
X113055268Y-61106962D01*
X113091578Y-61226660D01*
X113150543Y-61336974D01*
X113229895Y-61433665D01*
X113326586Y-61513017D01*
X113436900Y-61571982D01*
X113556598Y-61608292D01*
X113681080Y-61620552D01*
X114650330Y-61617480D01*
X114809080Y-61458730D01*
X114809080Y-60609480D01*
X113204830Y-60609480D01*
X113046080Y-60768230D01*
X113043008Y-60982480D01*
X112318800Y-60982480D01*
X112318800Y-59982480D01*
X113043008Y-59982480D01*
X113046080Y-60196730D01*
X113204830Y-60355480D01*
X114809080Y-60355480D01*
X114809080Y-59506230D01*
X115063080Y-59506230D01*
X115063080Y-60355480D01*
X116667330Y-60355480D01*
X116826080Y-60196730D01*
X116829152Y-59982480D01*
X116816892Y-59857998D01*
X116780582Y-59738300D01*
X116721617Y-59627986D01*
X116642265Y-59531295D01*
X116591216Y-59489400D01*
X120962928Y-59489400D01*
X120975188Y-59613882D01*
X121011498Y-59733580D01*
X121070463Y-59843894D01*
X121149815Y-59940585D01*
X121246506Y-60019937D01*
X121269448Y-60032200D01*
X121246506Y-60044463D01*
X121149815Y-60123815D01*
X121070463Y-60220506D01*
X121011498Y-60330820D01*
X120975188Y-60450518D01*
X120962928Y-60575000D01*
X120966000Y-60776750D01*
X121124750Y-60935500D01*
X122174000Y-60935500D01*
X122174000Y-60098750D01*
X122107450Y-60032200D01*
X122174000Y-59965650D01*
X122174000Y-59128900D01*
X121124750Y-59128900D01*
X120966000Y-59287650D01*
X120962928Y-59489400D01*
X116591216Y-59489400D01*
X116545574Y-59451943D01*
X116435260Y-59392978D01*
X116315562Y-59356668D01*
X116191080Y-59344408D01*
X115221830Y-59347480D01*
X115063080Y-59506230D01*
X114809080Y-59506230D01*
X114650330Y-59347480D01*
X113681080Y-59344408D01*
X113556598Y-59356668D01*
X113436900Y-59392978D01*
X113326586Y-59451943D01*
X113229895Y-59531295D01*
X113150543Y-59627986D01*
X113091578Y-59738300D01*
X113055268Y-59857998D01*
X113043008Y-59982480D01*
X112318800Y-59982480D01*
X112318800Y-40597000D01*
X138082349Y-40597000D01*
X137974144Y-40635724D01*
G36*
X139440920Y-51876540D02*
G01*
X139460920Y-51876540D01*
X139460920Y-52130540D01*
X139440920Y-52130540D01*
X139440920Y-52150540D01*
X139186920Y-52150540D01*
X139186920Y-52130540D01*
X139166920Y-52130540D01*
X139166920Y-51876540D01*
X139186920Y-51876540D01*
X139186920Y-51856540D01*
X139440920Y-51856540D01*
X139440920Y-51876540D01*
G37*
X139440920Y-51876540D02*
X139460920Y-51876540D01*
X139460920Y-52130540D01*
X139440920Y-52130540D01*
X139440920Y-52150540D01*
X139186920Y-52150540D01*
X139186920Y-52130540D01*
X139166920Y-52130540D01*
X139166920Y-51876540D01*
X139186920Y-51876540D01*
X139186920Y-51856540D01*
X139440920Y-51856540D01*
X139440920Y-51876540D01*
G36*
X169773001Y-68282274D02*
G01*
X169770717Y-68280400D01*
X169574931Y-68175750D01*
X169362491Y-68111307D01*
X169141560Y-68089547D01*
X168241560Y-68089547D01*
X168056560Y-68107768D01*
X167871560Y-68089547D01*
X166971560Y-68089547D01*
X166786560Y-68107768D01*
X166601560Y-68089547D01*
X165701560Y-68089547D01*
X165516560Y-68107768D01*
X165331560Y-68089547D01*
X164431560Y-68089547D01*
X164246560Y-68107768D01*
X164061560Y-68089547D01*
X163161560Y-68089547D01*
X162976560Y-68107768D01*
X162791560Y-68089547D01*
X161891560Y-68089547D01*
X161706560Y-68107768D01*
X161521560Y-68089547D01*
X160621560Y-68089547D01*
X160436560Y-68107768D01*
X160251560Y-68089547D01*
X159351560Y-68089547D01*
X159166560Y-68107768D01*
X158981560Y-68089547D01*
X158081560Y-68089547D01*
X157896560Y-68107768D01*
X157711560Y-68089547D01*
X156811560Y-68089547D01*
X156626560Y-68107768D01*
X156441560Y-68089547D01*
X155541560Y-68089547D01*
X155356560Y-68107768D01*
X155171560Y-68089547D01*
X154564064Y-68089547D01*
X154584013Y-67887000D01*
X154584013Y-66987000D01*
X154565792Y-66802000D01*
X154584013Y-66617000D01*
X154584013Y-65717000D01*
X154565792Y-65532000D01*
X154584013Y-65347000D01*
X154584013Y-64447000D01*
X154565792Y-64262000D01*
X154584013Y-64077000D01*
X154584013Y-63222000D01*
X159323488Y-63222000D01*
X159335748Y-63346482D01*
X159372058Y-63466180D01*
X159431023Y-63576494D01*
X159510375Y-63673185D01*
X159607066Y-63752537D01*
X159717380Y-63811502D01*
X159837078Y-63847812D01*
X159961560Y-63860072D01*
X162175810Y-63857000D01*
X162334560Y-63698250D01*
X162334560Y-60849000D01*
X162588560Y-60849000D01*
X162588560Y-63698250D01*
X162747310Y-63857000D01*
X164961560Y-63860072D01*
X165086042Y-63847812D01*
X165205740Y-63811502D01*
X165316054Y-63752537D01*
X165412745Y-63673185D01*
X165492097Y-63576494D01*
X165551062Y-63466180D01*
X165587372Y-63346482D01*
X165599632Y-63222000D01*
X165596560Y-61007750D01*
X165437810Y-60849000D01*
X162588560Y-60849000D01*
X162334560Y-60849000D01*
X159485310Y-60849000D01*
X159326560Y-61007750D01*
X159323488Y-63222000D01*
X154584013Y-63222000D01*
X154584013Y-63177000D01*
X154565792Y-62992000D01*
X154584013Y-62807000D01*
X154584013Y-61907000D01*
X154565792Y-61722000D01*
X154584013Y-61537000D01*
X154584013Y-60637000D01*
X154565792Y-60452000D01*
X154584013Y-60267000D01*
X154584013Y-59367000D01*
X154565792Y-59182000D01*
X154584013Y-58997000D01*
X154584013Y-58222000D01*
X159323488Y-58222000D01*
X159326560Y-60436250D01*
X159485310Y-60595000D01*
X162334560Y-60595000D01*
X162334560Y-57745750D01*
X162588560Y-57745750D01*
X162588560Y-60595000D01*
X165437810Y-60595000D01*
X165596560Y-60436250D01*
X165599632Y-58222000D01*
X165587372Y-58097518D01*
X165551062Y-57977820D01*
X165492097Y-57867506D01*
X165412745Y-57770815D01*
X165316054Y-57691463D01*
X165205740Y-57632498D01*
X165086042Y-57596188D01*
X164961560Y-57583928D01*
X162747310Y-57587000D01*
X162588560Y-57745750D01*
X162334560Y-57745750D01*
X162175810Y-57587000D01*
X159961560Y-57583928D01*
X159837078Y-57596188D01*
X159717380Y-57632498D01*
X159607066Y-57691463D01*
X159510375Y-57770815D01*
X159431023Y-57867506D01*
X159372058Y-57977820D01*
X159335748Y-58097518D01*
X159323488Y-58222000D01*
X154584013Y-58222000D01*
X154584013Y-58097000D01*
X154565792Y-57912000D01*
X154584013Y-57727000D01*
X154584013Y-56827000D01*
X154562253Y-56606069D01*
X154497810Y-56393629D01*
X154393160Y-56197843D01*
X154252325Y-56026235D01*
X154086560Y-55890195D01*
X154086560Y-55879998D01*
X154070611Y-55879998D01*
X153977553Y-55830257D01*
X154086560Y-55721250D01*
X154089632Y-55557000D01*
X154077372Y-55432518D01*
X154049278Y-55339904D01*
X154086560Y-55336232D01*
X154271560Y-55354453D01*
X155171560Y-55354453D01*
X155356560Y-55336232D01*
X155541560Y-55354453D01*
X156441560Y-55354453D01*
X156626560Y-55336232D01*
X156811560Y-55354453D01*
X157711560Y-55354453D01*
X157896560Y-55336232D01*
X158081560Y-55354453D01*
X158981560Y-55354453D01*
X159166560Y-55336232D01*
X159351560Y-55354453D01*
X160251560Y-55354453D01*
X160436560Y-55336232D01*
X160621560Y-55354453D01*
X161521560Y-55354453D01*
X161706560Y-55336232D01*
X161891560Y-55354453D01*
X162791560Y-55354453D01*
X162976560Y-55336232D01*
X163161560Y-55354453D01*
X164061560Y-55354453D01*
X164246560Y-55336232D01*
X164431560Y-55354453D01*
X165331560Y-55354453D01*
X165516560Y-55336232D01*
X165701560Y-55354453D01*
X166601560Y-55354453D01*
X166786560Y-55336232D01*
X166971560Y-55354453D01*
X167871560Y-55354453D01*
X168056560Y-55336232D01*
X168241560Y-55354453D01*
X169141560Y-55354453D01*
X169362491Y-55332693D01*
X169574931Y-55268250D01*
X169770717Y-55163600D01*
X169773000Y-55161726D01*
X169773001Y-68282274D01*
G37*
X169773001Y-68282274D02*
X169770717Y-68280400D01*
X169574931Y-68175750D01*
X169362491Y-68111307D01*
X169141560Y-68089547D01*
X168241560Y-68089547D01*
X168056560Y-68107768D01*
X167871560Y-68089547D01*
X166971560Y-68089547D01*
X166786560Y-68107768D01*
X166601560Y-68089547D01*
X165701560Y-68089547D01*
X165516560Y-68107768D01*
X165331560Y-68089547D01*
X164431560Y-68089547D01*
X164246560Y-68107768D01*
X164061560Y-68089547D01*
X163161560Y-68089547D01*
X162976560Y-68107768D01*
X162791560Y-68089547D01*
X161891560Y-68089547D01*
X161706560Y-68107768D01*
X161521560Y-68089547D01*
X160621560Y-68089547D01*
X160436560Y-68107768D01*
X160251560Y-68089547D01*
X159351560Y-68089547D01*
X159166560Y-68107768D01*
X158981560Y-68089547D01*
X158081560Y-68089547D01*
X157896560Y-68107768D01*
X157711560Y-68089547D01*
X156811560Y-68089547D01*
X156626560Y-68107768D01*
X156441560Y-68089547D01*
X155541560Y-68089547D01*
X155356560Y-68107768D01*
X155171560Y-68089547D01*
X154564064Y-68089547D01*
X154584013Y-67887000D01*
X154584013Y-66987000D01*
X154565792Y-66802000D01*
X154584013Y-66617000D01*
X154584013Y-65717000D01*
X154565792Y-65532000D01*
X154584013Y-65347000D01*
X154584013Y-64447000D01*
X154565792Y-64262000D01*
X154584013Y-64077000D01*
X154584013Y-63222000D01*
X159323488Y-63222000D01*
X159335748Y-63346482D01*
X159372058Y-63466180D01*
X159431023Y-63576494D01*
X159510375Y-63673185D01*
X159607066Y-63752537D01*
X159717380Y-63811502D01*
X159837078Y-63847812D01*
X159961560Y-63860072D01*
X162175810Y-63857000D01*
X162334560Y-63698250D01*
X162334560Y-60849000D01*
X162588560Y-60849000D01*
X162588560Y-63698250D01*
X162747310Y-63857000D01*
X164961560Y-63860072D01*
X165086042Y-63847812D01*
X165205740Y-63811502D01*
X165316054Y-63752537D01*
X165412745Y-63673185D01*
X165492097Y-63576494D01*
X165551062Y-63466180D01*
X165587372Y-63346482D01*
X165599632Y-63222000D01*
X165596560Y-61007750D01*
X165437810Y-60849000D01*
X162588560Y-60849000D01*
X162334560Y-60849000D01*
X159485310Y-60849000D01*
X159326560Y-61007750D01*
X159323488Y-63222000D01*
X154584013Y-63222000D01*
X154584013Y-63177000D01*
X154565792Y-62992000D01*
X154584013Y-62807000D01*
X154584013Y-61907000D01*
X154565792Y-61722000D01*
X154584013Y-61537000D01*
X154584013Y-60637000D01*
X154565792Y-60452000D01*
X154584013Y-60267000D01*
X154584013Y-59367000D01*
X154565792Y-59182000D01*
X154584013Y-58997000D01*
X154584013Y-58222000D01*
X159323488Y-58222000D01*
X159326560Y-60436250D01*
X159485310Y-60595000D01*
X162334560Y-60595000D01*
X162334560Y-57745750D01*
X162588560Y-57745750D01*
X162588560Y-60595000D01*
X165437810Y-60595000D01*
X165596560Y-60436250D01*
X165599632Y-58222000D01*
X165587372Y-58097518D01*
X165551062Y-57977820D01*
X165492097Y-57867506D01*
X165412745Y-57770815D01*
X165316054Y-57691463D01*
X165205740Y-57632498D01*
X165086042Y-57596188D01*
X164961560Y-57583928D01*
X162747310Y-57587000D01*
X162588560Y-57745750D01*
X162334560Y-57745750D01*
X162175810Y-57587000D01*
X159961560Y-57583928D01*
X159837078Y-57596188D01*
X159717380Y-57632498D01*
X159607066Y-57691463D01*
X159510375Y-57770815D01*
X159431023Y-57867506D01*
X159372058Y-57977820D01*
X159335748Y-58097518D01*
X159323488Y-58222000D01*
X154584013Y-58222000D01*
X154584013Y-58097000D01*
X154565792Y-57912000D01*
X154584013Y-57727000D01*
X154584013Y-56827000D01*
X154562253Y-56606069D01*
X154497810Y-56393629D01*
X154393160Y-56197843D01*
X154252325Y-56026235D01*
X154086560Y-55890195D01*
X154086560Y-55879998D01*
X154070611Y-55879998D01*
X153977553Y-55830257D01*
X154086560Y-55721250D01*
X154089632Y-55557000D01*
X154077372Y-55432518D01*
X154049278Y-55339904D01*
X154086560Y-55336232D01*
X154271560Y-55354453D01*
X155171560Y-55354453D01*
X155356560Y-55336232D01*
X155541560Y-55354453D01*
X156441560Y-55354453D01*
X156626560Y-55336232D01*
X156811560Y-55354453D01*
X157711560Y-55354453D01*
X157896560Y-55336232D01*
X158081560Y-55354453D01*
X158981560Y-55354453D01*
X159166560Y-55336232D01*
X159351560Y-55354453D01*
X160251560Y-55354453D01*
X160436560Y-55336232D01*
X160621560Y-55354453D01*
X161521560Y-55354453D01*
X161706560Y-55336232D01*
X161891560Y-55354453D01*
X162791560Y-55354453D01*
X162976560Y-55336232D01*
X163161560Y-55354453D01*
X164061560Y-55354453D01*
X164246560Y-55336232D01*
X164431560Y-55354453D01*
X165331560Y-55354453D01*
X165516560Y-55336232D01*
X165701560Y-55354453D01*
X166601560Y-55354453D01*
X166786560Y-55336232D01*
X166971560Y-55354453D01*
X167871560Y-55354453D01*
X168056560Y-55336232D01*
X168241560Y-55354453D01*
X169141560Y-55354453D01*
X169362491Y-55332693D01*
X169574931Y-55268250D01*
X169770717Y-55163600D01*
X169773000Y-55161726D01*
X169773001Y-68282274D01*
G36*
X167243139Y-45863350D02*
G01*
X167286263Y-45915897D01*
X167495939Y-46087973D01*
X167735155Y-46215837D01*
X167994721Y-46294575D01*
X168089568Y-46303917D01*
X168115893Y-46325521D01*
X168353820Y-46452696D01*
X168611986Y-46531010D01*
X168880470Y-46557453D01*
X169792970Y-46557453D01*
X169891256Y-46547773D01*
X169860916Y-46604536D01*
X169790755Y-46835826D01*
X169767064Y-47076360D01*
X169773000Y-47136628D01*
X169773000Y-49662682D01*
X169669957Y-49537123D01*
X169617415Y-49494003D01*
X167823321Y-47699910D01*
X167780197Y-47647363D01*
X167570521Y-47475287D01*
X167331305Y-47347423D01*
X167071739Y-47268685D01*
X166869440Y-47248760D01*
X166801800Y-47242098D01*
X166734160Y-47248760D01*
X165374204Y-47248760D01*
X165472360Y-47129157D01*
X165577010Y-46933371D01*
X165641453Y-46720931D01*
X165663213Y-46500000D01*
X165663213Y-46177000D01*
X165757760Y-46177000D01*
X165757760Y-46976250D01*
X165916510Y-47135000D01*
X166130760Y-47138072D01*
X166255242Y-47125812D01*
X166374940Y-47089502D01*
X166485254Y-47030537D01*
X166581945Y-46951185D01*
X166661297Y-46854494D01*
X166720262Y-46744180D01*
X166756572Y-46624482D01*
X166768832Y-46500000D01*
X166765760Y-46335750D01*
X166607010Y-46177000D01*
X165757760Y-46177000D01*
X165663213Y-46177000D01*
X165663213Y-45903000D01*
X165757760Y-45903000D01*
X165757760Y-45923000D01*
X166607010Y-45923000D01*
X166765760Y-45764250D01*
X166768832Y-45600000D01*
X166761170Y-45522200D01*
X166901989Y-45522200D01*
X167243139Y-45863350D01*
G37*
X167243139Y-45863350D02*
X167286263Y-45915897D01*
X167495939Y-46087973D01*
X167735155Y-46215837D01*
X167994721Y-46294575D01*
X168089568Y-46303917D01*
X168115893Y-46325521D01*
X168353820Y-46452696D01*
X168611986Y-46531010D01*
X168880470Y-46557453D01*
X169792970Y-46557453D01*
X169891256Y-46547773D01*
X169860916Y-46604536D01*
X169790755Y-46835826D01*
X169767064Y-47076360D01*
X169773000Y-47136628D01*
X169773000Y-49662682D01*
X169669957Y-49537123D01*
X169617415Y-49494003D01*
X167823321Y-47699910D01*
X167780197Y-47647363D01*
X167570521Y-47475287D01*
X167331305Y-47347423D01*
X167071739Y-47268685D01*
X166869440Y-47248760D01*
X166801800Y-47242098D01*
X166734160Y-47248760D01*
X165374204Y-47248760D01*
X165472360Y-47129157D01*
X165577010Y-46933371D01*
X165641453Y-46720931D01*
X165663213Y-46500000D01*
X165663213Y-46177000D01*
X165757760Y-46177000D01*
X165757760Y-46976250D01*
X165916510Y-47135000D01*
X166130760Y-47138072D01*
X166255242Y-47125812D01*
X166374940Y-47089502D01*
X166485254Y-47030537D01*
X166581945Y-46951185D01*
X166661297Y-46854494D01*
X166720262Y-46744180D01*
X166756572Y-46624482D01*
X166768832Y-46500000D01*
X166765760Y-46335750D01*
X166607010Y-46177000D01*
X165757760Y-46177000D01*
X165663213Y-46177000D01*
X165663213Y-45903000D01*
X165757760Y-45903000D01*
X165757760Y-45923000D01*
X166607010Y-45923000D01*
X166765760Y-45764250D01*
X166768832Y-45600000D01*
X166761170Y-45522200D01*
X166901989Y-45522200D01*
X167243139Y-45863350D01*
G36*
X158170259Y-45863350D02*
G01*
X158213383Y-45915897D01*
X158423059Y-46087973D01*
X158648713Y-46208588D01*
X158662275Y-46215837D01*
X158921840Y-46294575D01*
X158937640Y-46296131D01*
X158937640Y-46876640D01*
X158930978Y-46944280D01*
X158957565Y-47214219D01*
X158990678Y-47323378D01*
X159036303Y-47473784D01*
X159164167Y-47713000D01*
X159336243Y-47922676D01*
X159388786Y-47965797D01*
X160210988Y-48788000D01*
X158947312Y-48788000D01*
X158726850Y-48696681D01*
X158431836Y-48638000D01*
X158131044Y-48638000D01*
X157836030Y-48696681D01*
X157615568Y-48788000D01*
X156243440Y-48788000D01*
X156243440Y-47207872D01*
X156308040Y-47129157D01*
X156412690Y-46933371D01*
X156477133Y-46720931D01*
X156498893Y-46500000D01*
X156498893Y-46177000D01*
X156593440Y-46177000D01*
X156593440Y-46976250D01*
X156752190Y-47135000D01*
X156966440Y-47138072D01*
X157090922Y-47125812D01*
X157210620Y-47089502D01*
X157320934Y-47030537D01*
X157417625Y-46951185D01*
X157496977Y-46854494D01*
X157555942Y-46744180D01*
X157592252Y-46624482D01*
X157604512Y-46500000D01*
X157601440Y-46335750D01*
X157442690Y-46177000D01*
X156593440Y-46177000D01*
X156498893Y-46177000D01*
X156498893Y-45903000D01*
X156593440Y-45903000D01*
X156593440Y-45923000D01*
X157442690Y-45923000D01*
X157601440Y-45764250D01*
X157604512Y-45600000D01*
X157602853Y-45583160D01*
X157890069Y-45583160D01*
X158170259Y-45863350D01*
G37*
X158170259Y-45863350D02*
X158213383Y-45915897D01*
X158423059Y-46087973D01*
X158648713Y-46208588D01*
X158662275Y-46215837D01*
X158921840Y-46294575D01*
X158937640Y-46296131D01*
X158937640Y-46876640D01*
X158930978Y-46944280D01*
X158957565Y-47214219D01*
X158990678Y-47323378D01*
X159036303Y-47473784D01*
X159164167Y-47713000D01*
X159336243Y-47922676D01*
X159388786Y-47965797D01*
X160210988Y-48788000D01*
X158947312Y-48788000D01*
X158726850Y-48696681D01*
X158431836Y-48638000D01*
X158131044Y-48638000D01*
X157836030Y-48696681D01*
X157615568Y-48788000D01*
X156243440Y-48788000D01*
X156243440Y-47207872D01*
X156308040Y-47129157D01*
X156412690Y-46933371D01*
X156477133Y-46720931D01*
X156498893Y-46500000D01*
X156498893Y-46177000D01*
X156593440Y-46177000D01*
X156593440Y-46976250D01*
X156752190Y-47135000D01*
X156966440Y-47138072D01*
X157090922Y-47125812D01*
X157210620Y-47089502D01*
X157320934Y-47030537D01*
X157417625Y-46951185D01*
X157496977Y-46854494D01*
X157555942Y-46744180D01*
X157592252Y-46624482D01*
X157604512Y-46500000D01*
X157601440Y-46335750D01*
X157442690Y-46177000D01*
X156593440Y-46177000D01*
X156498893Y-46177000D01*
X156498893Y-45903000D01*
X156593440Y-45903000D01*
X156593440Y-45923000D01*
X157442690Y-45923000D01*
X157601440Y-45764250D01*
X157604512Y-45600000D01*
X157602853Y-45583160D01*
X157890069Y-45583160D01*
X158170259Y-45863350D01*
G36*
X175290480Y-45849360D02*
G01*
X173960604Y-45849360D01*
X174036216Y-45707900D01*
X174114530Y-45449734D01*
X174140973Y-45181250D01*
X174140973Y-44693750D01*
X174114530Y-44425266D01*
X174036216Y-44167100D01*
X173909041Y-43929173D01*
X173737892Y-43720628D01*
X173637872Y-43638543D01*
X173646592Y-43550000D01*
X173643520Y-43348250D01*
X173484770Y-43189500D01*
X172435520Y-43189500D01*
X172435520Y-43209500D01*
X172181520Y-43209500D01*
X172181520Y-43189500D01*
X171132270Y-43189500D01*
X170973520Y-43348250D01*
X170970448Y-43550000D01*
X170971482Y-43560500D01*
X170673758Y-43560500D01*
X170674792Y-43550000D01*
X170671720Y-43348250D01*
X170512970Y-43189500D01*
X169463720Y-43189500D01*
X169463720Y-43209500D01*
X169209720Y-43209500D01*
X169209720Y-43189500D01*
X169189720Y-43189500D01*
X169189720Y-42935500D01*
X169209720Y-42935500D01*
X169209720Y-42098750D01*
X169463720Y-42098750D01*
X169463720Y-42935500D01*
X170512970Y-42935500D01*
X170671720Y-42776750D01*
X170674792Y-42575000D01*
X170970448Y-42575000D01*
X170973520Y-42776750D01*
X171132270Y-42935500D01*
X172181520Y-42935500D01*
X172181520Y-42098750D01*
X172435520Y-42098750D01*
X172435520Y-42935500D01*
X173484770Y-42935500D01*
X173643520Y-42776750D01*
X173646592Y-42575000D01*
X173634332Y-42450518D01*
X173598022Y-42330820D01*
X173539057Y-42220506D01*
X173459705Y-42123815D01*
X173363014Y-42044463D01*
X173252700Y-41985498D01*
X173133002Y-41949188D01*
X173008520Y-41936928D01*
X172594270Y-41940000D01*
X172435520Y-42098750D01*
X172181520Y-42098750D01*
X172022770Y-41940000D01*
X171608520Y-41936928D01*
X171484038Y-41949188D01*
X171364340Y-41985498D01*
X171254026Y-42044463D01*
X171157335Y-42123815D01*
X171077983Y-42220506D01*
X171019018Y-42330820D01*
X170982708Y-42450518D01*
X170970448Y-42575000D01*
X170674792Y-42575000D01*
X170662532Y-42450518D01*
X170626222Y-42330820D01*
X170567257Y-42220506D01*
X170487905Y-42123815D01*
X170391214Y-42044463D01*
X170280900Y-41985498D01*
X170161202Y-41949188D01*
X170036720Y-41936928D01*
X169622470Y-41940000D01*
X169463720Y-42098750D01*
X169209720Y-42098750D01*
X169050970Y-41940000D01*
X168636720Y-41936928D01*
X168512238Y-41949188D01*
X168392540Y-41985498D01*
X168282226Y-42044463D01*
X168185535Y-42123815D01*
X168106183Y-42220506D01*
X168047218Y-42330820D01*
X168010908Y-42450518D01*
X167998648Y-42575000D01*
X168001720Y-42776750D01*
X168160468Y-42935498D01*
X168130272Y-42935498D01*
X168001865Y-42866863D01*
X167742299Y-42788125D01*
X167540000Y-42768200D01*
X167472360Y-42761538D01*
X167404720Y-42768200D01*
X166650049Y-42768200D01*
X166661297Y-42754494D01*
X166720262Y-42644180D01*
X166756572Y-42524482D01*
X166768832Y-42400000D01*
X166765760Y-42235750D01*
X166607010Y-42077000D01*
X165757760Y-42077000D01*
X165757760Y-42097000D01*
X165663213Y-42097000D01*
X165663213Y-41500000D01*
X165641453Y-41279069D01*
X165577010Y-41066629D01*
X165554091Y-41023750D01*
X165757760Y-41023750D01*
X165757760Y-41823000D01*
X166607010Y-41823000D01*
X166765760Y-41664250D01*
X166768832Y-41500000D01*
X166756572Y-41375518D01*
X166720262Y-41255820D01*
X166661297Y-41145506D01*
X166581945Y-41048815D01*
X166485254Y-40969463D01*
X166374940Y-40910498D01*
X166255242Y-40874188D01*
X166130760Y-40861928D01*
X165916510Y-40865000D01*
X165757760Y-41023750D01*
X165554091Y-41023750D01*
X165472360Y-40870843D01*
X165331525Y-40699235D01*
X165206951Y-40597000D01*
X175290480Y-40597000D01*
X175290480Y-45849360D01*
G37*
X175290480Y-45849360D02*
X173960604Y-45849360D01*
X174036216Y-45707900D01*
X174114530Y-45449734D01*
X174140973Y-45181250D01*
X174140973Y-44693750D01*
X174114530Y-44425266D01*
X174036216Y-44167100D01*
X173909041Y-43929173D01*
X173737892Y-43720628D01*
X173637872Y-43638543D01*
X173646592Y-43550000D01*
X173643520Y-43348250D01*
X173484770Y-43189500D01*
X172435520Y-43189500D01*
X172435520Y-43209500D01*
X172181520Y-43209500D01*
X172181520Y-43189500D01*
X171132270Y-43189500D01*
X170973520Y-43348250D01*
X170970448Y-43550000D01*
X170971482Y-43560500D01*
X170673758Y-43560500D01*
X170674792Y-43550000D01*
X170671720Y-43348250D01*
X170512970Y-43189500D01*
X169463720Y-43189500D01*
X169463720Y-43209500D01*
X169209720Y-43209500D01*
X169209720Y-43189500D01*
X169189720Y-43189500D01*
X169189720Y-42935500D01*
X169209720Y-42935500D01*
X169209720Y-42098750D01*
X169463720Y-42098750D01*
X169463720Y-42935500D01*
X170512970Y-42935500D01*
X170671720Y-42776750D01*
X170674792Y-42575000D01*
X170970448Y-42575000D01*
X170973520Y-42776750D01*
X171132270Y-42935500D01*
X172181520Y-42935500D01*
X172181520Y-42098750D01*
X172435520Y-42098750D01*
X172435520Y-42935500D01*
X173484770Y-42935500D01*
X173643520Y-42776750D01*
X173646592Y-42575000D01*
X173634332Y-42450518D01*
X173598022Y-42330820D01*
X173539057Y-42220506D01*
X173459705Y-42123815D01*
X173363014Y-42044463D01*
X173252700Y-41985498D01*
X173133002Y-41949188D01*
X173008520Y-41936928D01*
X172594270Y-41940000D01*
X172435520Y-42098750D01*
X172181520Y-42098750D01*
X172022770Y-41940000D01*
X171608520Y-41936928D01*
X171484038Y-41949188D01*
X171364340Y-41985498D01*
X171254026Y-42044463D01*
X171157335Y-42123815D01*
X171077983Y-42220506D01*
X171019018Y-42330820D01*
X170982708Y-42450518D01*
X170970448Y-42575000D01*
X170674792Y-42575000D01*
X170662532Y-42450518D01*
X170626222Y-42330820D01*
X170567257Y-42220506D01*
X170487905Y-42123815D01*
X170391214Y-42044463D01*
X170280900Y-41985498D01*
X170161202Y-41949188D01*
X170036720Y-41936928D01*
X169622470Y-41940000D01*
X169463720Y-42098750D01*
X169209720Y-42098750D01*
X169050970Y-41940000D01*
X168636720Y-41936928D01*
X168512238Y-41949188D01*
X168392540Y-41985498D01*
X168282226Y-42044463D01*
X168185535Y-42123815D01*
X168106183Y-42220506D01*
X168047218Y-42330820D01*
X168010908Y-42450518D01*
X167998648Y-42575000D01*
X168001720Y-42776750D01*
X168160468Y-42935498D01*
X168130272Y-42935498D01*
X168001865Y-42866863D01*
X167742299Y-42788125D01*
X167540000Y-42768200D01*
X167472360Y-42761538D01*
X167404720Y-42768200D01*
X166650049Y-42768200D01*
X166661297Y-42754494D01*
X166720262Y-42644180D01*
X166756572Y-42524482D01*
X166768832Y-42400000D01*
X166765760Y-42235750D01*
X166607010Y-42077000D01*
X165757760Y-42077000D01*
X165757760Y-42097000D01*
X165663213Y-42097000D01*
X165663213Y-41500000D01*
X165641453Y-41279069D01*
X165577010Y-41066629D01*
X165554091Y-41023750D01*
X165757760Y-41023750D01*
X165757760Y-41823000D01*
X166607010Y-41823000D01*
X166765760Y-41664250D01*
X166768832Y-41500000D01*
X166756572Y-41375518D01*
X166720262Y-41255820D01*
X166661297Y-41145506D01*
X166581945Y-41048815D01*
X166485254Y-40969463D01*
X166374940Y-40910498D01*
X166255242Y-40874188D01*
X166130760Y-40861928D01*
X165916510Y-40865000D01*
X165757760Y-41023750D01*
X165554091Y-41023750D01*
X165472360Y-40870843D01*
X165331525Y-40699235D01*
X165206951Y-40597000D01*
X175290480Y-40597000D01*
X175290480Y-45849360D01*
G36*
X161027418Y-40632294D02*
G01*
X160897635Y-40671663D01*
X160658419Y-40799527D01*
X160582383Y-40861928D01*
X160501282Y-40928485D01*
X160501279Y-40928488D01*
X160448743Y-40971603D01*
X160405627Y-41024140D01*
X159987221Y-41442547D01*
X159858390Y-41442547D01*
X159589906Y-41468990D01*
X159331740Y-41547304D01*
X159093813Y-41674479D01*
X158885268Y-41845628D01*
X158714119Y-42054173D01*
X158586944Y-42292100D01*
X158508630Y-42550266D01*
X158482187Y-42818750D01*
X158482187Y-42824640D01*
X158460440Y-42822498D01*
X158392800Y-42829160D01*
X157435700Y-42829160D01*
X157496977Y-42754494D01*
X157555942Y-42644180D01*
X157592252Y-42524482D01*
X157604512Y-42400000D01*
X157601440Y-42235750D01*
X157442690Y-42077000D01*
X156593440Y-42077000D01*
X156593440Y-42097000D01*
X156498893Y-42097000D01*
X156498893Y-41500000D01*
X156477133Y-41279069D01*
X156412690Y-41066629D01*
X156389771Y-41023750D01*
X156593440Y-41023750D01*
X156593440Y-41823000D01*
X157442690Y-41823000D01*
X157601440Y-41664250D01*
X157604512Y-41500000D01*
X157592252Y-41375518D01*
X157555942Y-41255820D01*
X157496977Y-41145506D01*
X157417625Y-41048815D01*
X157320934Y-40969463D01*
X157210620Y-40910498D01*
X157090922Y-40874188D01*
X156966440Y-40861928D01*
X156752190Y-40865000D01*
X156593440Y-41023750D01*
X156389771Y-41023750D01*
X156308040Y-40870843D01*
X156167205Y-40699235D01*
X156042631Y-40597000D01*
X161143767Y-40597000D01*
X161027418Y-40632294D01*
G37*
X161027418Y-40632294D02*
X160897635Y-40671663D01*
X160658419Y-40799527D01*
X160582383Y-40861928D01*
X160501282Y-40928485D01*
X160501279Y-40928488D01*
X160448743Y-40971603D01*
X160405627Y-41024140D01*
X159987221Y-41442547D01*
X159858390Y-41442547D01*
X159589906Y-41468990D01*
X159331740Y-41547304D01*
X159093813Y-41674479D01*
X158885268Y-41845628D01*
X158714119Y-42054173D01*
X158586944Y-42292100D01*
X158508630Y-42550266D01*
X158482187Y-42818750D01*
X158482187Y-42824640D01*
X158460440Y-42822498D01*
X158392800Y-42829160D01*
X157435700Y-42829160D01*
X157496977Y-42754494D01*
X157555942Y-42644180D01*
X157592252Y-42524482D01*
X157604512Y-42400000D01*
X157601440Y-42235750D01*
X157442690Y-42077000D01*
X156593440Y-42077000D01*
X156593440Y-42097000D01*
X156498893Y-42097000D01*
X156498893Y-41500000D01*
X156477133Y-41279069D01*
X156412690Y-41066629D01*
X156389771Y-41023750D01*
X156593440Y-41023750D01*
X156593440Y-41823000D01*
X157442690Y-41823000D01*
X157601440Y-41664250D01*
X157604512Y-41500000D01*
X157592252Y-41375518D01*
X157555942Y-41255820D01*
X157496977Y-41145506D01*
X157417625Y-41048815D01*
X157320934Y-40969463D01*
X157210620Y-40910498D01*
X157090922Y-40874188D01*
X156966440Y-40861928D01*
X156752190Y-40865000D01*
X156593440Y-41023750D01*
X156389771Y-41023750D01*
X156308040Y-40870843D01*
X156167205Y-40699235D01*
X156042631Y-40597000D01*
X161143767Y-40597000D01*
X161027418Y-40632294D01*
M02*
